<?xml version="1.0" ?>
<svg xmlns="http://www.w3.org/2000/svg" width="1000" height="1000" viewBox="-70 -214 144 448">
	<g>
		<title id="title1">.id(group_1_name)</title>
		<path d="M -42.48404292007548 -172.1088926297768 C -42.48496483064742 -168.63277443069134, -34.5525907919073 -187.68811087317607, -36.07674729030246 -184.6627982823315" fill-opacity="0.0"/>
		<path d="M -36.07674729030246 -184.6627982823315 C -37.600903788697615 -181.63748569148692, -26.736935723315625 -197.99437268193975, -27.71389761797711 -196.0356109088224" fill-opacity="0.0"/>
	</g>
	<g>
		<title id="title2">.id(group_2_name)</title>
		<path d="M -39.12237212197809 -188.7155853059302 C -37.88463172589638 -188.11287662452744, -39.491060346258536 -196.59090960379103, -39.85194317973482 -194.6192606903533" fill-opacity="0.0"/>
		<path d="M -39.85194317973482 -194.6192606903533 C -40.2128260132111 -192.64761177691554, -39.8168117115909 -198.43243784034948, -39.15950778525585 -199.0006357395466" fill-opacity="0.0"/>
	</g>
	<g>
		<title id="title3">.id(group_3_name)</title>
		<path d="M 2.677721568309412 9.416455186625114 C 5.356416167916041 12.882559113644165, -3.4642428896010022 2.6905855411060857, -2.865861633451416 3.735006697941358" fill-opacity="0.0"/>
		<path d="M -2.865861633451416 3.735006697941358 C -2.2674803773018297 4.77942785477663, 3.405378486608214 -7.903574514409485, 1.059482688689094 -4.010091201411129" fill-opacity="0.0"/>
		<path d="M 1.059482688689094 -4.010091201411129 C 0.33993873702217736 -0.3110932291109587, 9.511596566938561 -15.097332527383147, 7.831808644861983 -14.19887027305465" fill-opacity="0.0"/>
		<path d="M 7.831808644861983 -14.19887027305465 C 6.152020722785406 -13.300408018726154, 22.07457628412537 -16.439494371327196, 18.11117440478317 -16.95969970226012" fill-opacity="0.0"/>
	</g>
	<g>
		<title id="title4">.id(group_4_name)</title>
		<path d="M 1.059482688689094 -4.010091201411129 C 0.31116599769248965 0.32791285304036766, 6.219042852449664 -20.65944220368013, 4.395282445784591 -16.90495144851586" fill-opacity="0.0"/>
		<path d="M 4.395282445784591 -16.90495144851586 C 2.571522039119519 -13.15046069335159, 12.160789428767053 -32.717160607891415, 9.989840146093005 -28.9993488322789" fill-opacity="0.0"/>
	</g>
	<g>
		<title id="title5">.id(group_5_name)</title>
		<path d="M 45.42283218243054 223.1414195176321 C 44.867582263437725 224.1469710470394, 49.73401900376406 219.20508203512898, 48.35274466435018 220.1581572649559" fill-opacity="0.0"/>
		<path d="M 48.35274466435018 220.1581572649559 C 46.971470324936305 221.1112324947828, 55.80844623966227 216.38317430885238, 53.66645283568612 217.7609588922009" fill-opacity="0.0"/>
		<path d="M 53.66645283568612 217.7609588922009 C 51.52445943170998 219.13874347554943, 60.64534883408281 210.36812634944505, 59.4021770188541 212.7849080180832" fill-opacity="0.0"/>
		<path d="M 59.4021770188541 212.7849080180832 C 58.159005203625384 215.20168968672135, 60.712208327195086 201.96423612384854, 60.42816705459042 204.9850341509452" fill-opacity="0.0"/>
		<path d="M 60.42816705459042 204.9850341509452 C 60.14412578198575 208.00583217804189, 61.05652956483377 191.03485399379792, 61.01425085005793 194.7974442749308" fill-opacity="0.0"/>
		<path d="M 61.01425085005793 194.7974442749308 C 60.97197213528209 198.56003455606367, 60.18902181687577 178.97380180314866, 60.57899072076137 182.5265017804065" fill-opacity="0.0"/>
		<path d="M 60.57899072076137 182.5265017804065 C 60.96895962464696 186.07920175766435, 58.349805857839435 170.91797878558938, 58.90699548192018 173.5243076483994" fill-opacity="0.0"/>
		<path d="M 58.90699548192018 173.5243076483994 C 59.46418510600092 176.13063651120942, 56.7693791208534 164.94027322094337, 57.29997279857007 166.8894944839903" fill-opacity="0.0"/>
		<path d="M 57.29997279857007 166.8894944839903 C 57.830566476286734 168.8387157470372, 55.24380716752603 160.27149056682765, 55.76544734996016 161.8217423703076" fill-opacity="0.0"/>
		<path d="M 55.76544734996016 161.8217423703076 C 56.287087532394295 163.37199417378753, 52.90730776911438 154.57761705414106, 54.20243385356487 157.6014810149331" fill-opacity="0.0"/>
		<path d="M 54.20243385356487 157.6014810149331 C 55.49755993801536 160.62534497572517, 44.777269815752184 138.74313484838137, 47.51222053197002 143.9091447776255" fill-opacity="0.0"/>
		<path d="M 47.51222053197002 143.9091447776255 C 50.24717124818786 149.07515470686963, 34.24771158279795 120.1379719551357, 37.68018855932014 126.7038469014205" fill-opacity="0.0"/>
		<path d="M 37.68018855932014 126.7038469014205 C 41.11266553584234 133.2697218477053, 24.695633367335162 96.18363156003757, 27.1656425864602 104.5868633305504" fill-opacity="0.0"/>
		<path d="M 27.1656425864602 104.5868633305504 C 29.63565180558524 112.99009510106323, 23.162275326587366 68.86641747956033, 23.66898066729149 76.90717320148816" fill-opacity="0.0"/>
		<path d="M 23.66898066729149 76.90717320148816 C 24.175686007995612 84.947928923416, 23.31646076554265 51.062085544274865, 23.66150455445965 56.53120916434525" fill-opacity="0.0"/>
		<path d="M 23.66150455445965 56.53120916434525 C 24.00654834337665 62.00033278441563, 20.974283729768363 39.12613908393729, 22.10592704592882 44.18526235117189" fill-opacity="0.0"/>
		<path d="M 22.10592704592882 44.18526235117189 C 23.237570362089276 49.2443856184065, 13.102667733583399 20.418763568198262, 16.38282822805274 26.57333832537684" fill-opacity="0.0"/>
		<path d="M 16.38282822805274 26.57333832537684 C 19.662988722522083 32.72791308255542, -2.099433561376575 4.830314065890738, 2.677721568309412 9.416455186625114" fill-opacity="0.0"/>
		<path d="M 2.677721568309412 9.416455186625114 C 7.454876697995399 14.002596307359491, -15.315219189467577 -3.556685654129128, -11.17743621351351 0.04100470489893837" fill-opacity="0.0"/>
		<path d="M -11.17743621351351 0.04100470489893837 C -7.039653237559443 3.638695063927005, -25.177637985564626 -16.50377882248646, -21.99345894982134 -11.67015296920657" fill-opacity="0.0"/>
		<path d="M -21.99345894982134 -11.67015296920657 C -18.80927991407805 -6.836527115926681, -32.02195790973423 -33.69630360868813, -29.82579030336403 -28.16608505082907" fill-opacity="0.0"/>
		<path d="M -29.82579030336403 -28.16608505082907 C -27.629622696993827 -22.63586649297001, -36.6755700772715 -50.05136992225368, -35.01693734813467 -44.03473718918478" fill-opacity="0.0"/>
		<path d="M -35.01693734813467 -44.03473718918478 C -33.358304618997835 -38.018104456115886, -40.58663408161275 -69.40396061490921, -39.40948576505079 -63.6916183246788" fill-opacity="0.0"/>
		<path d="M -39.40948576505079 -63.6916183246788 C -38.23233744848883 -57.97927603444839, -43.61539190057514 -83.08456928624209, -42.15587689960709 -78.28149943558894" fill-opacity="0.0"/>
		<path d="M -42.15587689960709 -78.28149943558894 C -40.69636189863903 -73.4784295849358, -50.170671986859034 -96.96862674061775, -48.04142366132913 -92.24895164482784" fill-opacity="0.0"/>
		<path d="M -48.04142366132913 -92.24895164482784 C -45.91217533579922 -87.52927654903793, -56.52703050316177 -111.06908090147583, -54.92232255987787 -106.546155956428" fill-opacity="0.0"/>
		<path d="M -54.92232255987787 -106.546155956428 C -53.31761461659397 -102.02323101138016, -58.121426128959975 -122.98304859692175, -57.84259292637057 -119.0589199730022" fill-opacity="0.0"/>
		<path d="M -57.84259292637057 -119.0589199730022 C -57.56375972378117 -115.13479134908266, -56.226867450590994 -133.16920759956713, -56.79474072902764 -129.7023560605954" fill-opacity="0.0"/>
		<path d="M -56.79474072902764 -129.7023560605954 C -57.36261400746428 -126.2355045216237, -53.4872362220636 -143.26919192625914, -54.53745523436532 -139.6736021570024" fill-opacity="0.0"/>
		<path d="M -54.53745523436532 -139.6736021570024 C -55.587674246667035 -136.07801238774564, -49.25307082556423 -154.2185388665018, -50.57380037348249 -150.771728084198" fill-opacity="0.0"/>
		<path d="M -50.57380037348249 -150.771728084198 C -51.89452992140075 -147.3249173018942, -46.03659684570623 -161.6706642505523, -47.03369325456278 -159.2800386806214" fill-opacity="0.0"/>
		<path d="M -47.03369325456278 -159.2800386806214 C -48.03078966341933 -156.8894131106905, -43.82431346575318 -167.29248701527297, -44.5898054775676 -165.1243079317414" fill-opacity="0.0"/>
		<path d="M -44.5898054775676 -165.1243079317414 C -45.355297489382025 -162.95612884820986, -41.85343988056413 -174.5667310502226, -42.48404292007548 -172.1088926297768" fill-opacity="0.0"/>
		<path d="M -42.48404292007548 -172.1088926297768 C -43.90547042030993 -166.96550454258974, -38.96604111472465 -192.23173958349312, -39.12237212197809 -188.7155853059302" fill-opacity="0.0"/>
		<path d="M -39.12237212197809 -188.7155853059302 C -39.27870312923152 -185.1994310283673, -34.91790064363911 -208.82713245480792, -36.0938746379065 -204.1148555860648" fill-opacity="0.0"/>
	</g>
	<circle cx="54.48574672523452" cy="217.4468373477697" r="3" fill-opacity="0.0">
		<title id="title6">.id(marker_1)</title>
	</circle>
	<circle cx="60.31772030640948" cy="206.450704388271" r="3" fill-opacity="0.0">
		<title id="title7">.id(marker_2)</title>
	</circle>
	<circle cx="60.60067819563896" cy="182.351939939007" r="3" fill-opacity="0.0">
		<title id="title8">.id(marker_3)</title>
	</circle>
	<circle cx="57.26641991666243" cy="166.8948697874121" r="3" fill-opacity="0.0">
		<title id="title9">.id(marker_4)</title>
	</circle>
	<circle cx="55.95010857528311" cy="162.1880128628004" r="3" fill-opacity="0.0">
		<title id="title10">.id(marker_5)</title>
	</circle>
	<circle cx="54.299444946338" cy="157.7966435169104" r="3" fill-opacity="0.0">
		<title id="title11">.id(marker_6)</title>
	</circle>
	<circle cx="38.87576039800445" cy="128.7008274767139" r="3" fill-opacity="0.0">
		<title id="title12">.id(marker_7)</title>
	</circle>
	<circle cx="23.43106638766022" cy="55.30858794901977" r="3" fill-opacity="0.0">
		<title id="title13">.id(marker_8)</title>
	</circle>
	<circle cx="22.13899313081064" cy="44.55676287499519" r="3" fill-opacity="0.0">
		<title id="title14">.id(marker_9)</title>
	</circle>
	<circle cx="2.563170211794947" cy="9.039475083815987" r="3" fill-opacity="0.0">
		<title id="title15">.id(marker_10)</title>
	</circle>
	<circle cx="-10.96420480065844" cy="0.2245544668334105" r="3" fill-opacity="0.0">
		<title id="title16">.id(marker_11)</title>
	</circle>
	<circle cx="-57.82605306519208" cy="-122.7746018311782" r="3" fill-opacity="0.0">
		<title id="title17">.id(marker_12)</title>
	</circle>
	<circle cx="-42.39272491634625" cy="-172.2986832771489" r="3" fill-opacity="0.0">
		<title id="title18">.id(marker_13)</title>
	</circle>
</svg>
