<?xml version="1.0" ?>
<svg xmlns="http://www.w3.org/2000/svg" width="1000" height="1000" viewBox="-86 20 158 500">
	<circle style="fill: rgb(216, 216, 216);" cx="33.712100348533895" cy="156.43250826556465" r="0.9054">
		<title>.id(point_01)</title>
	</circle>
	<circle style="fill: rgb(216, 216, 216);" cx="40.29433310564995" cy="152.2335720576695" r="0.9054">
		<title>.id(point_02)</title>
	</circle>
	<circle style="fill: rgb(216, 216, 216);" cx="31.331472294738653" cy="140.8711452733935" r="0.9054">
		<title>.id(point_03)</title>
	</circle>
	<circle style="fill: rgb(216, 216, 216);" cx="15.374938245472606" cy="46.51042145577098" r="0.9054">
		<title>.id(point_04)</title>
	</circle>
	<circle style="fill: rgb(216, 216, 216);" cx="8.83671932075961" cy="31.402798415517182" r="0.9054">
		<title>.id(point_05)</title>
	</circle>
	<circle style="fill: rgb(216, 216, 216);" cx="17.644607422358007" cy="34.730348407374564" r="0.9054">
		<title>.id(point_06)</title>
	</circle>
	<circle style="fill: rgb(216, 216, 216);" cx="13.78136508228178" cy="44.014922494109044" r="0.9054">
		<title>.id(point_07)</title>
	</circle>
	<circle style="fill: rgb(216, 216, 216);" cx="23.69557862290966" cy="40.61086272097136" r="0.9054">
		<title>.id(point_08)</title>
	</circle>
	<circle style="fill: rgb(216, 216, 216);" cx="-27.085866497099097" cy="490.8487376691782" r="0.9054">
		<title>.id(point_09)</title>
	</circle>
	<circle style="fill: rgb(216, 216, 216);" cx="-10.97022378066091" cy="322.20315979243065" r="0.9054">
		<title>.id(point_10)</title>
	</circle>
	<circle style="fill: rgb(216, 216, 216);" cx="0.8052283210187908" cy="461.398177068916" r="0.9054">
		<title>.id(point_11)</title>
	</circle>
	<circle style="fill: rgb(216, 216, 216);" cx="14.926456232338584" cy="49.43796688754353" r="0.9054">
		<title>.id(point_12)</title>
	</circle>
	<circle style="fill: rgb(216, 216, 216);" cx="-7.916775785179733" cy="466.63621244654786" r="0.9054">
		<title>.id(point_13)</title>
	</circle>
	<circle style="fill: rgb(216, 216, 216);" cx="27.597101912803563" cy="244.48903581440632" r="0.9054">
		<title>.id(point_14)</title>
	</circle>
	<circle style="fill: rgb(216, 216, 216);" cx="21.055893517320975" cy="272.5909053982192" r="0.9054">
		<title>.id(point_15)</title>
	</circle>
	<circle style="fill: rgb(216, 216, 216);" cx="12.921175609871696" cy="57.80839319278627" r="0.9054">
		<title>.id(point_16)</title>
	</circle>
	<circle style="fill: rgb(216, 216, 216);" cx="15.37942711670401" cy="45.746895945816604" r="0.9054">
		<title>.id(point_17)</title>
	</circle>
	<circle style="fill: rgb(216, 216, 216);" cx="20.853984455077715" cy="272.8954140777248" r="0.9054">
		<title>.id(point_18)</title>
	</circle>
	<circle style="fill: rgb(216, 216, 216);" cx="6.85973746005577" cy="287.2475050468269" r="0.9054">
		<title>.id(point_19)</title>
	</circle>
	<circle style="fill: rgb(216, 216, 216);" cx="26.558832107252645" cy="230.65844011499357" r="0.9054">
		<title>.id(point_20)</title>
	</circle>
	<circle style="fill: rgb(216, 216, 216);" cx="32.0022203609481" cy="161.0448948457899" r="0.9054">
		<title>.id(point_21)</title>
	</circle>
	<circle style="fill: rgb(216, 216, 216);" cx="31.322815711014307" cy="153.5234893275677" r="0.9054">
		<title>.id(point_22)</title>
	</circle>
	<circle style="fill: rgb(216, 216, 216);" cx="30.14195382157564" cy="107.75141703228" r="0.9054">
		<title>.id(point_23)</title>
	</circle>
	<circle style="fill: rgb(216, 216, 216);" cx="14.065137381972946" cy="52.720898157373895" r="0.9054">
		<title>.id(point_24)</title>
	</circle>
	<circle style="fill: rgb(216, 216, 216);" cx="22.54579926115169" cy="136.10431972228864" r="0.9054">
		<title>.id(point_25)</title>
	</circle>
	<circle style="fill: rgb(216, 216, 216);" cx="12.050720078726421" cy="62.17472231250095" r="0.9054">
		<title>.id(point_26)</title>
	</circle>
	<circle style="fill: rgb(216, 216, 216);" cx="39.86318401921552" cy="106.45361024507989" r="0.9054">
		<title>.id(point_27)</title>
	</circle>
	<circle style="fill: rgb(216, 216, 216);" cx="3.4880946268068533" cy="286.6375481874026" r="0.9054">
		<title>.id(point_28)</title>
	</circle>
	<circle style="fill: rgb(216, 216, 216);" cx="27.454873735777532" cy="250.6887121753852" r="0.9054">
		<title>.id(point_29)</title>
	</circle>
	<circle style="fill: rgb(216, 216, 216);" cx="46.207412409405684" cy="308.84808035781" r="0.9054">
		<title>.id(point_30)</title>
	</circle>
	<circle style="fill: rgb(216, 216, 216);" cx="18.1098562074305" cy="264.2809939056934" r="0.9054">
		<title>.id(point_31)</title>
	</circle>
	<circle style="fill: rgb(216, 216, 216);" cx="28.049930873975672" cy="494.1957752281369" r="0.9054">
		<title>.id(point_32)</title>
	</circle>
	<circle style="fill: rgb(216, 216, 216);" cx="10.75053249110811" cy="46.66839638200536" r="0.9054">
		<title>.id(point_33)</title>
	</circle>
	<circle style="fill: rgb(216, 216, 216);" cx="12.914791849696957" cy="48.14705070467284" r="0.9054">
		<title>.id(point_34)</title>
	</circle>
	<circle style="fill: rgb(216, 216, 216);" cx="22.74154774120165" cy="136.27582380262845" r="0.9054">
		<title>.id(point_35)</title>
	</circle>
	<circle style="fill: rgb(216, 216, 216);" cx="20.745699355375013" cy="147.4897824837864" r="0.9054">
		<title>.id(point_36)</title>
	</circle>
	<circle style="fill: rgb(216, 216, 216);" cx="22.083890184177903" cy="122.86839620003846" r="0.9054">
		<title>.id(point_37)</title>
	</circle>
	<circle style="fill: rgb(216, 216, 216);" cx="39.3162331646334" cy="150.67932683236103" r="0.9054">
		<title>.id(point_38)</title>
	</circle>
	<circle style="fill: rgb(216, 216, 216);" cx="42.15052691356698" cy="147.25713688975253" r="0.9054">
		<title>.id(point_39)</title>
	</circle>
	<circle style="fill: rgb(216, 216, 216);" cx="27.56666510825878" cy="150.03808443887624" r="0.9054">
		<title>.id(point_40)</title>
	</circle>
	<circle style="fill: rgb(216, 216, 216);" cx="34.29951645882029" cy="150.390059716933" r="0.9054">
		<title>.id(point_41)</title>
	</circle>
	<circle style="fill: rgb(216, 216, 216);" cx="57.76201649148561" cy="141.02741749876049" r="0.9054">
		<title>.id(point_42)</title>
	</circle>
	<circle style="fill: rgb(216, 216, 216);" cx="12.086477192653344" cy="50.370515474032814" r="0.9054">
		<title>.id(point_43)</title>
	</circle>
	<circle style="fill: rgb(216, 216, 216);" cx="35.35872274485958" cy="93.23804414894249" r="0.9054">
		<title>.id(point_44)</title>
	</circle>
	<circle style="fill: rgb(216, 216, 216);" cx="30.95705009619088" cy="106.78881569842221" r="0.9054">
		<title>.id(point_45)</title>
	</circle>
	<circle style="fill: rgb(216, 216, 216);" cx="42.61067789093119" cy="108.34139544954712" r="0.9054">
		<title>.id(point_46)</title>
	</circle>
	<circle style="fill: rgb(216, 216, 216);" cx="31.040861150672885" cy="106.9591386658677" r="0.9054">
		<title>.id(point_47)</title>
	</circle>
	<circle style="fill: rgb(216, 216, 216);" cx="33.57639194388484" cy="156.7995916023398" r="0.9054">
		<title>.id(point_48)</title>
	</circle>
	<circle style="fill: rgb(216, 216, 216);" cx="34.454090744912676" cy="149.9399022572567" r="0.9054">
		<title>.id(point_49)</title>
	</circle>
	<circle style="fill: rgb(216, 216, 216);" cx="33.71321257112713" cy="156.4294990316504" r="0.9054">
		<title>.id(point_50)</title>
	</circle>
	<circle style="fill: rgb(216, 216, 216);" cx="33.03167495849695" cy="153.78065147091968" r="0.9054">
		<title>.id(point_51)</title>
	</circle>
	<circle style="fill: rgb(216, 216, 216);" cx="1.8083690999670683" cy="498.3704160615823" r="0.9054">
		<title>.id(point_52)</title>
	</circle>
	<circle style="fill: rgb(216, 216, 216);" cx="1.7877588939342863" cy="498.35684416620956" r="0.9054">
		<title>.id(point_53)</title>
	</circle>
	<circle style="fill: rgb(216, 216, 216);" cx="15.620767846453536" cy="261.80827106960555" r="0.9054">
		<title>.id(point_54)</title>
	</circle>
	<circle style="fill: rgb(216, 216, 216);" cx="21.481746657311625" cy="271.83706772724634" r="0.9054">
		<title>.id(point_55)</title>
	</circle>
	<circle style="fill: rgb(216, 216, 216);" cx="32.007901249123954" cy="161.01925427713155" r="0.9054">
		<title>.id(point_56)</title>
	</circle>
	<circle style="fill: rgb(216, 216, 216);" cx="30.024556087446268" cy="172.54096840378932" r="0.9054">
		<title>.id(point_57)</title>
	</circle>
	<circle style="fill: rgb(216, 216, 216);" cx="31.968298234311185" cy="161.1987693304181" r="0.9054">
		<title>.id(point_58)</title>
	</circle>
	<circle style="fill: rgb(216, 216, 216);" cx="21.483726438095935" cy="271.84500178797373" r="0.9054">
		<title>.id(point_59)</title>
	</circle>
	<circle style="fill: rgb(216, 216, 216);" cx="21.82172374640762" cy="121.58022207676407" r="0.9054">
		<title>.id(point_60)</title>
	</circle>
	<circle style="fill: rgb(216, 216, 216);" cx="35.59514116644702" cy="152.3555781657584" r="0.9054">
		<title>.id(point_61)</title>
	</circle>
	<circle style="fill: rgb(216, 216, 216);" cx="35.58399446825082" cy="152.33972950045555" r="0.9054">
		<title>.id(point_62)</title>
	</circle>
	<circle style="fill: rgb(216, 216, 216);" cx="35.07605816729838" cy="151.5980489976955" r="0.9054">
		<title>.id(point_63)</title>
	</circle>
	<circle style="fill: rgb(216, 216, 216);" cx="-4.214953749502792" cy="302.7768189861754" r="0.9054">
		<title>.id(point_64)</title>
	</circle>
	<circle style="fill: rgb(216, 216, 216);" cx="21.709511387010156" cy="270.9131313992993" r="0.9054">
		<title>.id(point_65)</title>
	</circle>
	<circle style="fill: rgb(216, 216, 216);" cx="21.730817686807505" cy="271.736916747501" r="0.9054">
		<title>.id(point_66)</title>
	</circle>
	<circle style="fill: rgb(216, 216, 216);" cx="22.08816164419869" cy="122.8891248667314" r="0.9054">
		<title>.id(point_67)</title>
	</circle>
	<circle style="fill: rgb(216, 216, 216);" cx="-14.17060264817452" cy="50.29307628248515" r="0.9054">
		<title>.id(point_68)</title>
	</circle>
	<circle style="fill: rgb(216, 216, 216);" cx="58.82863616060387" cy="129.886869161286" r="0.9054">
		<title>.id(point_69)</title>
	</circle>
	<circle style="fill: rgb(216, 216, 216);" cx="29.949267010866702" cy="169.86136454767197" r="0.9054">
		<title>.id(point_70)</title>
	</circle>
	<circle style="fill: rgb(216, 216, 216);" cx="-47.63669300885831" cy="228.36718362237423" r="0.9054">
		<title>.id(point_71)</title>
	</circle>
	<circle style="fill: rgb(216, 216, 216);" cx="-65.78057155484836" cy="270.1142455783906" r="0.9054">
		<title>.id(point_72)</title>
	</circle>
	<circle style="fill: rgb(216, 216, 216);" cx="-38.074169623572004" cy="242.13646606215096" r="0.9054">
		<title>.id(point_73)</title>
	</circle>
	<circle style="fill: rgb(216, 216, 216);" cx="-76.0765254207542" cy="349.5313403976091" r="0.9054">
		<title>.id(point_74)</title>
	</circle>
	<circle style="fill: rgb(216, 216, 216);" cx="52.50291717598946" cy="509.4187503355017" r="0.9054">
		<title>.id(point_75)</title>
	</circle>
	<circle style="fill: rgb(216, 216, 216);" cx="-14.34951567473675" cy="49.415653811881526" r="0.9054">
		<title>.id(point_76)</title>
	</circle>
	<circle style="fill: rgb(216, 216, 216);" cx="33.573997657674894" cy="273.4336405830024" r="0.9054">
		<title>.id(point_77)</title>
	</circle>
	<circle style="fill: rgb(216, 216, 216);" cx="59.81842251253664" cy="118.26563989640016" r="0.9054">
		<title>.id(point_78)</title>
	</circle>
	<circle style="fill: rgb(216, 216, 216);" cx="33.45738117361863" cy="164.45224637200502" r="0.9054">
		<title>.id(point_79)</title>
	</circle>
	<path d="M 33.712100348533895 156.43250826556465 C 34.443459561217644 155.9659597866926, 35.17481861667918 155.499411408297, 35.90617782943833 155.03286292978828 C 36.63753704219747 154.56631445127962, 37.36889625486748 154.0997659724559, 38.10025546754447 153.63321749372855 C 38.83161468022146 153.1666690150011, 39.562973892967484 152.70012053641076, 40.29433310564995 152.2335720576695" stroke="#01136e" fill="none">
		<title>.id(nerve_feature_01)</title>
	</path>
	<path d="M 15.374938245472606 46.51042145577098 C 9.110967116175125 49.09764715435795, 11.7791055167822 46.794515356758794, 13.769683869300271 44.03112325448632 C 15.760262221818339 41.26773115221385, 19.29880089856872 37.7157792538642, 18.062796298699503 35.34112780993982 C 16.82679169883028 32.966476366015435, 12.387897253315154 32.36509319249221, 8.83671932075961 31.402798415517182" stroke="#01136e" fill="none">
		<title>.id(nerve_feature_02)</title>
	</path>
	<path d="M 32.0022203609481 161.0448948457899 C 31.926727786017867 160.2091480343128, 31.85126373746444 159.37371702742172, 31.775771162393614 158.53797021438808 C 31.700278587322785 157.7022234013545, 31.62478601205291 156.86647658654462, 31.549293436782207 156.03072977184257 C 31.473800861511506 155.19498295714055, 31.398308286295567 154.35923614235563, 31.322815711014307 153.5234893275677" stroke="#01136e" fill="none">
		<title>.id(nerve_feature_03)</title>
	</path>
	<path d="M 14.065137381972946 52.720898157373895 C 13.270834558082237 55.78750581318089, 12.451362525691195 59.02437505115739, 12.053050409109428 62.156370538430714 C 11.654738292527648 65.28836602570404, 11.56494494421875 68.44118292535683, 11.643814550614058 71.578559956623 C 11.722684157009368 74.71593698788917, 11.971971495959215 77.8409193733598, 12.312734194802282 80.94986182486565 C 12.653496893645345 84.05880427637148, 13.087107833724144 87.1532434560616, 13.570357073943367 90.23695507929871 C 14.053606314162579 93.32066670253587, 14.587318585019382 96.39409741021055, 15.147942417286679 99.46113847006254 C 15.708566249553975 102.52817952991452, 16.296553289512662 105.58892124969749, 16.89896023197845 108.64607499754466 C 17.50136717444425 111.70322874539173, 18.11844046179076 114.75679346555326, 18.74288501069643 117.80848015393723 C 19.3673295596021 120.86016684232115, 19.999286180060047 123.90995791362198, 20.634333317526345 126.95895303176364 C 21.26938045499264 130.00794814990522, 21.907608731569134 133.05612977903453, 22.54579926115169 136.10431972228864" stroke="#01136e" fill="none">
		<title>.id(nerve_feature_04)</title>
	</path>
	<path d="M -10.970223780660916 322.2031597924307 C -9.364657787363887 318.2536730735963, -7.750869424749551 314.283960380988, -6.145303284319587 310.334473299221 C -4.5397371438896235 306.38498621745396, -2.934170664586109 302.43549830389475, -1.3286043580281992 298.48601081531683 C 0.2769619485297077 294.53652332673903, 1.8825283015432919 290.5870357227785, 3.4880946268068533 286.6375481874026" stroke="#01136e" fill="none">
		<title>.id(nerve_feature_05)</title>
	</path>
	<path d="M 27.454873735777532 250.6887121753852 C 28.2362475080076 253.11207499049408, 29.017167496680692 255.5340304343609, 29.79854173037966 257.95739468142096 C 30.579915964078634 260.3807589284812, 31.36129117430047 262.8041262024756, 32.14266591930896 265.2274920341725 C 32.92404066431747 267.65085786586934, 33.70541551422763 270.07422402346424, 34.48679031415773 272.49759002556266 C 35.268165114087836 274.920956027661, 36.049539925281984 277.34432206518363, 36.83091473113909 279.76768808559734 C 37.612289536996194 282.191054106011, 38.39366434415067 284.61442013037015, 39.1750391504998 287.0377861530109 C 39.956413956848934 289.46115217565176, 40.737788763698646 291.8845181977581, 41.519163570115936 294.30788422121634 C 42.3005383765332 296.73125024467447, 43.08191318332896 299.1546162668918, 43.86328798975941 301.5779822895087 C 44.64466279618985 304.00134831212574, 45.42603760298047 306.42471433473423, 46.207412409405684 308.84808035781" stroke="#01136e" fill="none">
		<title>.id(nerve_feature_06)</title>
	</path>
	<path d="M 27.454873735777525 250.6887121753852 C 26.415980331091856 252.1997774898728, 25.38211201866369 253.7035338317014, 24.343218474169586 255.2145993484026 C 23.304324929675484 256.7256648651039, 22.265431071220938 258.2367308380883, 21.226537369600273 259.7477965851589 C 20.187643667979614 261.25886233222946, 19.1487499258722 262.7699281368013, 18.1098562074305 264.2809939056934" stroke="#01136e" fill="none">
		<title>.id(nerve_feature_07)</title>
	</path>
	<path d="M 0.8052283210188589 461.3981770689161 C 3.8132105358297803 465.01923300737093, 6.992690227320718 468.8467402840304, 10.000768184686759 472.467911477659 C 13.008846142052802 476.08908267128777, 16.01714599337405 479.7105209862093, 19.025331110687496 483.3318211802473 C 22.033516228000927 486.9531213742853, 25.041733243742048 490.5744599705363, 28.049930873975672 494.1957752281369" stroke="#01136e" fill="none">
		<title>.id(nerve_feature_08)</title>
	</path>
	<path d="M 17.644607422358007 34.73034840737456 C 15.045707831440913 33.76028451939044, 12.90407219746199 33.91828305233611, 11.900084744937136 35.22495118837952 C 10.896097292412286 36.53161932442295, 10.644338520594445 38.448028286582954, 10.570601156122741 40.44224167599664 C 10.496863791651036 42.43645506541033, 10.628777867122682 44.55820803454955, 10.75053249110811 46.66839638200536" stroke="#01136e" fill="none">
		<title>.id(nerve_feature_09)</title>
	</path>
	<path d="M 13.781365082228284 44.014922494183175 C 13.925265727498878 44.58280923695522, 14.069474732684501 45.15213033865278, 14.125699169083934 45.68971007478018 C 14.181923605483364 46.22728981090758, 14.148533683368592 46.73388544041688, 13.941453153997216 47.14730184583393 C 13.734372624625845 47.560718251251, 13.32627204146793 47.85684333250221, 12.914791849696957 48.14705070467284" stroke="#01136e" fill="none">
		<title>.id(nerve_feature_10)</title>
	</path>
	<path d="M 22.74154774120165 136.27582380262845 C 22.51998454644664 137.52070819813048, 22.296649085700146 138.7755503228315, 22.075085308938696 140.02043798827785 C 21.853521532177254 141.26532565372426, 21.631956954879897 142.51021781769057, 21.410392570848156 143.7551088949112 C 21.188828186816405 144.9999999721318, 20.967263765882798 146.2448912574941, 20.745699355375013 147.4897824837864" stroke="#01136e" fill="none">
		<title>.id(nerve_feature_11)</title>
	</path>
	<path d="M 42.15052691356698 147.25713688975253 C 40.5300978241168 147.5661310619684, 38.909668734539174 147.87512523399968, 37.28923964505959 148.18411940614146 C 35.668810555579995 148.49311357828327, 34.048381466042 148.80210775029352, 32.42795237665959 149.11110192250746 C 30.807523287277174 149.42009609472143, 29.187094197683123 149.729090266725, 27.56666510825878 150.03808443887624" stroke="#01136e" fill="none">
		<title>.id(nerve_feature_12)</title>
	</path>
	<path d="M 32.00222036094809 161.04489484578986 C 31.878202130014287 157.49198309690985, 31.754190827462427 153.93926983549534, 31.630172596192622 150.38635808402626 C 31.506154364922804 146.83344633255726, 31.382136133728004 143.28053457612754, 31.258117902569335 139.72762282197863 C 31.13409967141066 136.17471106782966, 31.010081440288054 132.62179931330868, 30.88606320890791 129.06888755883372 C 30.76204497752776 125.51597580435869, 30.638026746413413 121.9630640500233, 30.514008515242043 118.41015229556429 C 30.389990284070684 114.8572405411053, 30.2659720527105 111.30432878674301, 30.14195382157564 107.75141703228" stroke="#01136e" fill="none">
		<title>.id(nerve_feature_13)</title>
	</path>
	<path d="M 14.926456232331756 49.43796688756902 C 14.610903741137736 49.54158315568399, 14.29534463110907 49.645201597146624, 13.979792139899859 49.74881786531204 C 13.664239648690648 49.85243413347746, 13.3486871574836 49.95605040155612, 13.033134666277812 50.05966666967132 C 12.717582175072021 50.163282937786526, 12.402029683849626 50.26689920591834, 12.086477192653344 50.370515474032814" stroke="#01136e" fill="none">
		<title>.id(nerve_feature_14)</title>
	</path>
	<path d="M 35.35872274485958 93.23804414894249 C 34.8692981528155 94.74476247324218, 34.383066433547484 96.24165137751338, 33.89363841666315 97.74838024545662 C 33.40421039977882 99.25510911339985, 32.914777011029194 100.76185451877434, 32.425345393048694 102.26859447279283 C 31.9359137750682 103.77533442681126, 31.44648188482229 105.28207521932106, 30.95705009619088 106.78881569842221" stroke="#01136e" fill="none">
		<title>.id(nerve_feature_15)</title>
	</path>
	<path d="M 12.050720078726423 62.17472231250095 C 13.633231844551217 65.90675703116939, 15.21574349451756 69.63879147847186, 16.79825526027118 73.37082619698943 C 18.3807670260248 77.102860915507, 19.963278791541473 80.83489563476611, 21.54579055707172 84.56693035328209 C 23.128302322601982 88.29896507179811, 24.710814088342133 92.03099979105875, 26.293325853872403 95.7630345095748 C 27.875837619402667 99.49506922809084, 29.458349384937325 103.22710394817327, 31.040861150672885 106.9591386658677" stroke="#01136e" fill="none">
		<title>.id(nerve_feature_16)</title>
	</path>
	<path d="M 33.57639194388484 156.7995916023398 C 33.67391433178354 156.03740156105778, 33.77143402955604 155.27523254495944, 33.86895641747794 154.5130425039087 C 33.96647880539986 153.75085246285798, 34.06400119325336 152.98866242171113, 34.16152358119524 152.2264723805837 C 34.25904596913711 151.46428233945625, 34.35656835697076 150.70209229813173, 34.454090744912676 149.9399022572567" stroke="#01136e" fill="none">
		<title>.id(nerve_feature_17)</title>
	</path>
	<path d="M 32.002220360948094 161.04489484578986 C 32.11660548778391 160.2377476421183, 32.230979067689994 159.43068191816178, 32.345364194717284 158.62353471293943 C 32.45974932174457 157.81638750771705, 32.57413444916602 157.00924030044294, 32.68851957646013 156.2020930929668 C 32.80290470375424 155.39494588549067, 32.91728983117618 154.58779867834826, 33.03167495849695 153.78065147091968" stroke="#01136e" fill="none">
		<title>.id(nerve_feature_18)</title>
	</path>
	<path d="M -7.916775785179707 466.6362124465479 C -8.37453634231588 470.5677282124076, -8.840065035589294 474.2785206352228, -9.03793776247791 478.2282497290484 C -9.235810489366525 482.177978822874, -9.296975431072372 486.3072548320913, -7.427896955821524 489.99327065969607 C -5.558818480570671 493.6792864873009, -1.708457572355643 496.0542623974559, 1.8083690999670683 498.3704160615823" stroke="#01136e" fill="none">
		<title>.id(nerve_feature_19)</title>
	</path>
	<path d="M 15.620767846453536 261.80827106960555 C 16.27235646987137 262.9232127913029, 16.920611798579824 264.0324508702107, 17.57220150971983 265.1473944534845 C 18.223791220859837 266.26233803675814, 18.87538291249616 267.3772850085654, 19.52697379179427 268.49223059119697 C 20.178564671092378 269.60717617382863, 20.830155699076983 270.7221220099647, 21.481746657311625 271.83706772724634" stroke="#01136e" fill="none">
		<title>.id(nerve_feature_20)</title>
	</path>
	<path d="M 27.597101912803566 244.48903581440632 C 26.918217081506207 247.52689115769851, 26.23593095538347 250.57996652006184, 25.557045380636357 253.61782518928274 C 24.87815980588925 256.6556838585036, 24.199272469429047 259.69355040899086, 23.520386051831093 262.7314128511298 C 22.84149963423315 265.7692752932688, 22.162612956632483 268.80713889701883, 21.483726438095935 271.84500178797373" stroke="#01136e" fill="none">
		<title>.id(nerve_feature_21)</title>
	</path>
	<path d="M 34.29951645882029 150.390059716933 C 36.90395508680831 149.35076607727729, 39.53081848977387 148.30252389690307, 42.135266475935076 147.26322652288846 C 44.73971446209629 146.2239291488738, 47.34418107632892 145.1846243410077, 49.94863926405403 144.1453228965712 C 52.553097451779124 143.1060214521347, 55.15755744312549 142.06671928722542, 57.76201649148561 141.02741749876049" stroke="#01136e" fill="none">
		<title>.id(nerve_feature_22)</title>
	</path>
	<path d="M -4.214953749502792 302.7768189861754 C -1.3345137660016406 299.2364782601886, 1.5464314936539343 295.6955164982756, 4.426871477780621 292.1551757711212 C 7.307311461907306 288.61483504396676, 10.187751447695186 285.0744943143724, 13.068191432274894 281.53415358535824 C 15.948631416854596 277.99381285634405, 18.829071402070138 274.4534721281332, 21.709511387010156 270.9131313992993" stroke="#01136e" fill="none">
		<title>.id(nerve_feature_23)</title>
	</path>
	<path d="M 22.083890184177903 122.86839620003846 C 21.765573375731325 126.7839955037256, 21.287901272846835 130.781510868696, 22.22647520782567 134.66149581088098 C 23.1650491428045 138.541480753066, 26.05245187602005 141.665746716807, 29.081402402852166 144.3147952925452 C 32.11035292968428 146.9638438682834, 35.53594443566126 149.32341796336405, 39.3162331646334 150.67932683236103" stroke="#01136e" fill="none">
		<title>.id(nerve_feature_24)</title>
	</path>
	<path d="M 32.0022203609481 161.04489484578988 C 32.19250139315499 160.53247867138282, 32.38274105896948 160.0201739153192, 32.57296639693551 159.5076173813541 C 32.763191734901554 158.99506084738897, 32.9533613774937 158.4823639360528, 33.14341945404019 157.96938672141778 C 33.33347753058669 157.4564095067828, 33.5233934376149 156.94307542643102, 33.71321257112713 156.4294990316504" stroke="#01136e" fill="none">
		<title>.id(nerve_feature_25)</title>
	</path>
	<path d="M 21.82172374640762 121.58022207676407 C 23.198231628700945 125.21856849107103, 24.572722277431126 128.8567072399975, 25.987232612337028 132.4543187297666 C 27.401742947242948 136.05193021953576, 28.853734485375362 139.61724209282724, 30.419795252847045 143.02176330292411 C 31.98585602031873 146.42628451302093, 33.69238816800435 149.6517577047398, 35.59514116644702 152.3555781657584" stroke="#01136e" fill="none">
		<title>.id(nerve_feature_26)</title>
	</path>
	<path d="M 21.05589351731932 272.5909053982217 C 19.06388025330926 269.52678542348815, 16.844937893919102 266.5094096260775, 15.885867536916814 263.10901543742034 C 14.926797179914523 259.70862124876317, 16.135308844521024 256.1841916064394, 17.24655701395911 252.6945208319333 C 18.35780518339719 249.20485005742717, 19.663231733912397 245.4516378261637, 20.49475497711074 241.07030137049844 C 21.326278220309067 236.68896491483315, 21.925947021758564 232.21210451573265, 22.54315205587038 227.7589412058345 C 23.160357089982195 223.30577789593636, 23.757734029605718 218.8477524436862, 24.356575833692332 214.39188367503513 C 24.955417637778943 209.936014906384, 25.5526166945743 205.47953131113258, 26.150146377018295 201.0234030847751 C 26.747676059462286 196.56727485841765, 27.34482882808294 192.11073886089338, 27.944860840040267 187.65484732220838 C 28.544892851997602 183.19895578352342, 29.141785492886388 178.74028082614865, 29.775311911967798 174.2880940713758 C 30.408838331049214 169.83590731660297, 31.03769674885744 165.39511792143333, 32.007901249123954 161.01925427713155" stroke="#01136e" fill="none">
		<title>.id(nerve_feature_27)</title>
	</path>
	<path d="M 12.9211756098717 57.80839319278626 C 13.343290907831348 61.37237040404925, 13.818726812150674 65.3855084202623, 14.245621353037095 68.95323909700578 C 14.672515893923508 72.52096977374927, 15.103997793807132 76.09256427951797, 15.54584708824916 79.6710884962457 C 15.987696382691187 83.24961271297344, 16.43984282985391 86.83556388262413, 16.911031651599497 90.43200223681235 C 17.38222047334508 94.02844059100059, 17.87238458366189 97.63631770318258, 18.395116517770255 101.25410346606806 C 18.917848451878623 104.87188922895359, 19.47317832563138 108.50161454195208, 20.081316683584294 112.12315325880449 C 20.6894550415372 115.74469197565693, 21.35904955291235 119.35156773625003, 22.08816164419869 122.8891248667314" stroke="#01136e" fill="none">
		<title>.id(nerve_feature_28)</title>
	</path>
	<path d="M 35.35872274485958 93.23804414894246 C 36.16510786367879 94.91746955755309, 36.9659267849627 96.58530247259382, 37.772316056302216 98.26473652974194 C 38.57870532764174 99.94417058689014, 39.38510212334748 101.62362031427813, 40.191495851723666 103.30306365312312 C 40.99788958009984 104.98250699196808, 41.804283865102214 106.66195149063797, 42.61067789093119 108.34139544954712" stroke="#01136e" fill="none">
		<title>.id(nerve_feature_29)</title>
	</path>
	<path d="M 15.379427116704006 45.746895945816604 C 12.20652721033082 46.23503674605958, 8.041630760991668 46.87579313311367, 4.868592012057867 47.36395529408969 C 1.6955532631240557 47.85211745506569, -1.4777932546893489 48.34032696394819, -4.650980056527088 48.82851190187899 C -7.824166858364826 49.31669683980979, -10.997398405430289 49.80488866096279, -14.17060264817452 50.29307628248515" stroke="#01136e" fill="none">
		<title>.id(nerve_feature_30)</title>
	</path>
	<path d="M 35.583994468250836 152.33972950045552 C 38.13934322048145 149.81473721603763, 40.71254467986265 147.2998957511359, 43.293273966354526 144.79762166857984 C 45.87400325284639 142.29534758602372, 48.46228254268516 139.8048607858675, 51.0526961199354 137.32176810303568 C 53.643109697185636 134.8386754202039, 56.23595252888023 132.36269864788753, 58.82863616060387 129.886869161286" stroke="#01136e" fill="none">
		<title>.id(nerve_feature_31)</title>
	</path>
	<path d="M 30.02455608744627 172.5409684037893 C 30.016183461754153 172.242979358374, 30.007875396168842 171.94728806021647, 29.999502770071814 171.64929900085315 C 29.991130143974765 171.35130994148975, 29.9827575175152 171.05332086805467, 29.974384890917534 170.755331790212 C 29.96601226431986 170.45734271236935, 29.95763963758588 170.15935363005872, 29.949267010866702 169.86136454767197" stroke="#01136e" fill="none">
		<title>.id(nerve_feature_32)</title>
	</path>
	<path d="M 14.06513738197295 52.72089815737388 C 15.7804605035042 55.92765332587765, 17.54685871112829 59.229848336665135, 19.262077065058424 62.43667297489262 C 20.977295418988554 65.64349761312013, 22.692845604799015 68.85078898814461, 24.40656828770082 72.05776289388054 C 26.120290970602632 75.26473679961649, 27.83627714696371 78.47446095197434, 29.534479279932974 81.68217665461209 C 31.232681412902227 84.88989235724983, 32.953663646624 88.12658159918621, 34.46719699405082 91.28736477260225 C 35.980730341477646 94.44814794601828, 36.91075103853541 97.08903763380117, 37.693916377572904 99.48618974276039 C 38.47708171661041 101.88334185171956, 39.16453570476252 104.16416395894483, 39.86318401921552 106.45361024507989" stroke="#01136e" fill="none">
		<title>.id(nerve_feature_33)</title>
	</path>
	<path d="M 33.71210034853389 156.43250826556465 C 33.447538799745935 154.70350824292606, 33.183000780817785 152.97448842015143, 32.91847864162123 151.245454782992 C 32.65395650242467 149.51642114583257, 32.38945017325519 147.78737404097936, 32.12495175054635 146.0583202118855 C 31.860453327837522 144.32926638279164, 31.595962811160426 142.60020582771827, 31.331472294738653 140.8711452733935" stroke="#01136e" fill="none">
		<title>.id(nerve_feature_34)</title>
	</path>
	<path d="M 20.85398445507773 272.8954140777248 C 17.9997301804598 271.0397616472062, 15.156928435498422 269.1915549139628, 12.30267358631717 267.3359021097328 C 9.448418737135915 265.4802493055028, 6.594162656490034 263.62459570024123, 3.7399071685515244 261.7689424810039 C 0.8856516806130106 259.9132892617665, -1.9686039435439775 258.0576359534287, -4.82285950213282 256.2019826878424 C -7.677115060721663 254.3463294222561, -10.531370634370052 252.49067614730708, -13.385626200782855 250.63502287650016 C -16.23988176719565 248.77936960569326, -19.094137335277402 246.9237163345161, -21.948392902525008 245.06806306314826 C -24.80264846977262 243.21240979178046, -27.65690403732083 241.35675652100548, -30.511159604609432 239.50110324957535 C -33.36541517189803 237.64544997814514, -36.219670739465755 235.78979670648133, -39.07392630673166 233.93414343597607 C -41.92818187399755 232.07849016547087, -44.782437441518425 230.2228368932875, -47.63669300885831 228.36718362237423" stroke="#01136e" fill="none">
		<title>.id(nerve_feature_35)</title>
	</path>
	<path d="M 20.853984455077736 272.8954140777247 C 17.644914992091838 272.792395567877, 14.446201923025582 272.689709520964, 11.237131788531421 272.58669098932535 C 8.028061654037256 272.4836724576866, 4.8189900343101995 272.38065387852737, 1.6099191478994297 272.2776353218599 C -1.5991517385113396 272.17461676519247, -4.808222801566794 272.07159820390797, -8.017293777456635 271.9685796452522 C -11.226364753346477 271.8655610865964, -14.435435750153022 271.7625425265953, -17.64450673665388 271.6595239675601 C -20.85357772315474 271.5565054085249, -24.062648712215996 271.45348684970145, -27.271719699873433 271.3504682897401 C -30.48079068753088 271.24744972977874, -33.689861675758046 271.14443117187596, -36.89893266357107 271.04141261190483 C -40.10800365138411 270.9383940519338, -43.31707463939002 270.8353754931093, -46.52614562732538 270.73235693406696 C -49.73521661526075 270.62933837502464, -52.94428760315309 270.5263198152267, -56.153358591086366 270.4233012562283 C -59.36242957901963 270.32028269722986, -62.571500566909975 270.2172641374224, -65.78057155484836 270.1142455783906" stroke="#01136e" fill="none">
		<title>.id(nerve_feature_36)</title>
	</path>
	<path d="M 6.85973746005576 287.24750504682686 C 4.362545255601447 284.74046877491827, 1.8809223409122555 282.24906316823115, -0.6162703498224242 279.74202640837336 C -3.1134630405571024 277.23498964851535, -5.610656787475973 274.72795182846824, -8.107850020439814 272.2209145239867 C -10.605043253403657 269.7138772195052, -13.102236606977828 267.20683979458806, -15.599429901749339 264.6998024280791 C -18.09662319652085 262.1927650615702, -20.593816505113466 259.6857276812651, -23.091009807093524 257.17869030804087 C -25.58820310907359 254.67165293481668, -28.08539641252422 252.16461555986757, -30.582589715177967 249.6575781852515 C -33.07978301783172 247.15054081063548, -35.57697632090062 244.6435034363383, -38.074169623572004 242.13646606215096" stroke="#01136e" fill="none">
		<title>.id(nerve_feature_37)</title>
	</path>
	<path d="M 6.85973746005576 287.24750504682686 C 3.788137734125083 289.5542283654648, 0.7135702441018363 291.8631804301124, -2.3580313452512 294.1699051481226 C -5.429632934604234 296.4766298661329, -8.501238663460766 298.78335769472864, -11.57284233992723 301.0900839799843 C -14.644446016393697 303.3968102652398, -17.716050191124534 305.70353692601327, -20.787654118757047 308.01026340073304 C -23.859258046389563 310.3169898754529, -26.93086203404206 312.6237163949314, -30.002465991958843 314.93044289235354 C -33.074069949875636 317.2371693897757, -36.14567391499541 319.54389589262445, -39.21727787651729 321.85062239250317 C -42.28888183803914 324.15734889238183, -45.360485800414075 326.46407539284166, -48.43208976244257 328.7708018936796 C -51.50369372447109 331.0775283945177, -54.57529768653 333.3842548956382, -57.64690164853253 335.69098139497953 C -60.71850561053503 337.99770789432074, -63.79010957262335 340.3044343970076, -66.86171353464206 342.6111608962944 C -69.93331749666078 344.9178873955814, -73.00492145874478 347.2246138966688, -76.0765254207542 349.5313403976091" stroke="#01136e" fill="none">
		<title>.id(nerve_feature_38)</title>
	</path>
	<path d="M 1.7877588939342415 498.3568441662096 C 4.9327812860545945 500.25088947369466, 8.287002333295167 501.8527477935155, 11.727933052443854 502.997880215711 C 15.168863771592537 504.14301263790634, 18.63066534980914 504.9567832978196, 22.06182960730069 505.619524264985 C 25.492993864792243 506.2822652321504, 28.90154189702147 506.7911404352167, 32.29118687038647 507.2351047198318 C 35.68083184375144 507.67906900444694, 39.054132693706315 508.055964905886, 42.41989630960735 508.40909217451286 C 45.78565992550839 508.7622194431396, 49.14429064579956 509.09022364842156, 52.50291717598946 509.4187503355017" stroke="#01136e" fill="none">
		<title>.id(nerve_feature_39)</title>
	</path>
	<path d="M 15.379427116704004 45.7468959458166 C 12.206050012388443 46.13851270478366, 7.869718341510067 46.67364612831679, 4.695932226537247 47.06531336108054 C 1.522146111564426 47.45698059384432, -1.652500309705331 47.84875399652833, -4.826714104451041 48.240474007676966 C -8.00092789919675 48.63219401882557, -11.175255227855443 49.02392804244011, -14.34951567473675 49.415653811881526" stroke="#01136e" fill="none">
		<title>.id(nerve_feature_40)</title>
	</path>
	<path d="M 26.558832107252634 230.65844011499354 C 27.142768103828725 234.21900887576217, 27.734634218641084 237.82793179170318, 28.3185703799993 241.38850155817542 C 28.90250654135752 244.94907132464763, 29.486443078374023 248.50964337862857, 30.070379425108207 252.07021427712493 C 30.6543157718424 255.63078517562138, 31.23825216638132 259.191356364487, 31.822188537178008 262.75192740437086 C 32.40612490797469 266.31249844425463, 32.9900612845997 269.8730695255792, 33.573997657674894 273.4336405830024" stroke="#01136e" fill="none">
		<title>.id(nerve_feature_41)</title>
	</path>
	<path d="M 35.0760581673166 151.59804899772274 C 37.82365513733819 147.89654234404233, 40.58523323959955 144.17620059435518, 43.33283094217893 140.47469295351746 C 46.08042864475832 136.7731853126797, 48.82802805371879 133.0716753735684, 51.575626583961196 129.37016661813996 C 54.323225114203616 125.66865786271143, 57.07082388652651 121.96714878116462, 59.81842251253664 118.26563989640016" stroke="#01136e" fill="none">
		<title>.id(nerve_feature_42)</title>
	</path>
	<path d="M -4.214953749502792 302.7768189861754 C -1.3321477540144078 299.32800974695886, 1.551175709753542 295.8785814388991, 4.433981705747602 292.4297721983327 C 7.316787701741663 288.9809629577664, 10.199593699532603 285.5321537152482, 13.082399696158102 282.0833444730602 C 15.965205692783599 278.63453523087225, 18.84801169011958 275.1857259894695, 21.730817686807505 271.736916747501" stroke="#01136e" fill="none">
		<title>.id(nerve_feature_43)</title>
	</path>
	<path d="M 31.968298234310904 161.19876933041937 C 32.13368692656928 161.56012483257408, 32.29966018045773 161.92275753535156, 32.46504888352769 162.28411306107262 C 32.63043758659766 162.6454685867936, 32.79582630086283 163.00682413703737, 32.96121501760634 163.36817969257743 C 33.126603734349864 163.72953524811746, 33.29199245406494 164.09089081024013, 33.45738117361863 164.45224637200502" stroke="#01136e" fill="none">
		<title>.id(nerve_feature_44)</title>
	</path>
	<path d="M 23.69557862290966 40.61086272097136 C 20.119984229401457 42.032672236745825, 16.537892262507402 41.72900603189098, 15.332885701547003 41.68430617700202 C 14.127879140586614 41.639606322113075, 16.251983690665607 44.49126981875681, 14.93416958490346 49.409178479736354 C 13.616355479141312 54.32708714071591, 13.016727079937114 56.843110144404484, 12.527424754794819 60.20158134944562 C 12.038122429652528 63.560052554486795, 11.99645955635922 66.8620747508422, 12.167114210960033 70.30971716926439 C 12.33776886556084 73.75735958768655, 12.63121872874702 77.29882671974178, 12.920272592692458 80.89713298807546 C 13.209326456637898 84.4954392564091, 13.538829648016522 88.1161167220462, 13.957531527100006 91.76810063935714 C 14.37623340618348 95.42008455666809, 14.819702448534171 99.06690315022938, 15.101770853299252 102.76016708352188 C 15.383839258064329 106.45343101681442, 15.640348818730716 110.19479124183289, 15.880569043361879 113.91888225979189 C 16.120789267993043 117.64297327775091, 16.303976956588336 121.36659777882241, 16.438128071798086 125.09560289831263 C 16.572279187007844 128.8246080178028, 16.676850348839427 132.55570399761544, 16.83824746459725 136.29555648588456 C 16.999644580355064 140.0354089741536, 17.248853510815753 143.7911394391976, 17.63151369826671 147.53980750668632 C 18.014173885717664 151.28847557417498, 18.49871308931858 155.0382827150663, 19.011422903440156 158.7813421608597 C 19.524132717561738 162.52440160665313, 20.060769095887373 166.25414002199753, 20.55770264983725 169.95027075007422 C 21.054636203787123 173.6464014781509, 21.52224095170214 177.31005441988708, 21.959277501167772 180.9175387185531 C 22.3963140506334 184.5250230172191, 22.80289024986326 188.07679374547388, 23.181409826091517 191.57673599234573 C 23.55992940231976 195.07667823921756, 23.91090615748937 198.5182651248661, 24.237195389963773 201.9542160176546 C 24.563484622438168 205.3901669104431, 24.86481895089386 208.82959818798597, 25.141428228456167 212.3424361836017 C 25.418037506018464 215.85527417921745, 25.65215025016251 219.44882560566776, 25.915166386805538 222.9706810709711 C 26.178182523448537 226.49253653627446, 26.488777034281146 230.02058219570242, 26.870744144674276 233.95842796822666 C 27.25271125506741 237.89627374075093, 27.61175699383444 241.9290735255846, 27.61185340968546 245.9156573899612 C 27.6119498255365 249.9022412543378, 27.29169107603255 253.87765895088097, 26.603957109747892 257.6838210247331 C 25.916223143463228 261.4899830985854, 24.855622086515567 265.11591557040606, 23.392744467389427 268.3432028636916 C 21.92986684826329 271.57049015697714, 19.98252567761038 274.4158726816853, 17.611424931732927 276.9957927473396 C 15.240324185855485 279.57571281299386, 12.610032994564254 281.81459878701884, 10.016212084882211 284.19280186926727 C 7.422391175200165 286.57100495151565, 4.912952912454253 289.14762343801704, 2.5928541445062474 292.11369386733395 C 0.27275537655823845 295.07976429665075, -1.8809294878956428 298.39324725345955, -3.784116150336941 301.9575568677937 C -5.68730281277824 305.52186648212785, -7.359450651139689 309.3622192968164, -8.690320056529032 313.38074070815475 C -10.021189461918375 317.39926211949313, -10.990988073385928 321.56307245233194, -11.530657899549682 325.755635248741 C -12.070327725713431 329.9481980451501, -12.199458992269363 334.2110570094792, -11.936866088377847 338.39321444434694 C -11.674273184486335 342.57537187921463, -11.009576438084052 346.67071007643807, -10.109826544301429 350.69452003606636 C -9.21007665051881 354.7183299956946, -8.076023546785692 358.6659100560856, -6.887986335211982 362.51337945107923 C -5.699949123638273 366.3608488460727, -4.449592546243461 370.15036646278156, -3.3334249483159533 374.04075586210956 C -2.217257350388449 377.93114526143745, -1.2925933262320894 381.896396295116, -0.5284251756002274 385.9484232140606 C 0.23574297503163422 390.00045013300536, 0.8501398728760373 394.0931744099333, 1.4240989904106822 398.15892170032424 C 1.9980581079453281 402.2246689907153, 2.5457326202676267 406.3056372356601, 3.2103915578663154 410.32321903383746 C 3.8750504954650036 414.3408008320149, 4.663494888223639 418.3024333321145, 5.6364386905256305 422.0325104777491 C 6.609382492827623 425.76258762338387, 7.796144706263091 429.1275646686213, 9.37571998026032 433.1009847442338 C 10.95529525425755 437.07440481984634, 12.03340853124955 441.1869897896433, 12.067307588870733 445.1269283381431 C 12.10120664649191 449.06686688664337, 11.122340500128523 452.79932447446964, 8.335369405592793 455.88637230025455 C 5.54839831105706 458.97342012603974, 0.993689560100691 461.3557853572769, -3.329946957471546 463.6058830292862 C -7.653583475043784 465.8559807012955, -10.881820540472967 469.33425765547764, -14.46425445668459 472.06700770911056 C -18.046688372896213 474.7997577627437, -21.99578557333752 476.4218379879806, -24.77288120789249 478.3991607009121 C -27.549976842447442 480.3764834138436, -29.259417894847097 482.4428258518728, -29.437626314778917 484.53566963418166 C -29.615834734710745 486.6285134164904, -28.371080688015468 488.77150894557104, -27.085866497099097 490.8487376691782" stroke="#01136e" fill="none">
		<title>.id(nerve_feature_48)</title>
	</path>
	<circle cx="-14.625506807802742" cy="472.34836660253364" r="1" fill="none">
		<title>.id(marker_227)</title>
	</circle>
	<circle cx="8.14144094262291" cy="429.9395573646282" r="1" fill="none">
		<title>.id(marker_228)</title>
	</circle>
	<circle cx="20.654923226071087" cy="273.12187320156676" r="1" fill="none">
		<title>.id(marker_229)</title>
	</circle>
	<circle cx="26.542706252697453" cy="230.66798599817562" r="1" fill="none">
		<title>.id(marker_230)</title>
	</circle>
	<circle cx="25.61948049921739" cy="218.95117417901596" r="1" fill="none">
		<title>.id(marker_231)</title>
	</circle>
	<circle cx="16.927162461652383" cy="138.10032016403724" r="1" fill="none">
		<title>.id(marker_232)</title>
	</circle>
	<circle cx="14.6955042524489" cy="98.15987143199207" r="1" fill="none">
		<title>.id(marker_233)</title>
	</circle>
	<circle cx="15.099906853548667" cy="102.77560907280595" r="1" fill="none">
		<title>.id(marker_234)</title>
	</circle>
	<circle cx="14.05425614660487" cy="92.42569338123812" r="1" fill="none">
		<title>.id(marker_235)</title>
	</circle>
	<circle cx="12.50228966119503" cy="75.18781804528798" r="1" fill="none">
		<title>.id(marker_236)</title>
	</circle>
	<circle cx="14.951393514663607" cy="49.00185075754982" r="1" fill="none">
		<title>.id(marker_237)</title>
	</circle>
	<circle cx="14.877301730216388" cy="41.77158563772221" r="1" fill="none">
		<title>.id(marker_238)</title>
	</circle>
</svg>
