<?xml version="1.0" encoding="utf-8"?>
<svg width="1000" height="1000" viewBox="-19 -1518 94 460" xmlns="http://www.w3.org/2000/svg" xmlns:bx="https://boxy-svg.com">
  <defs>
    <bx:export>
      <bx:file format="svg"/>
    </bx:export>
  </defs>
  <rect x="-19" y="-1518" width="94" height="53" fill="red">
    <title>.id(brain_region)</title>
  </rect>
  <rect x="-19" y="-1465" width="94" height="103" fill="green">
    <title>.id(cervical_region)</title>
  </rect>
  <rect x="-19" y="-1362" width="94" height="235" fill="grey">
    <title>.id(thoracic_region)</title>
  </rect>
  <rect x="-19" y="-1127" width="94" height="79" fill="blue">
    <title>.id(lumbar_region)</title>
  </rect>
  <path d="M 8.607445200558836 -1393.4024955338596 C 9.03005433315588 -1394.1153629437981, 9.452663469611256 -1394.8282303602446, 9.8752726022083 -1395.5410977701833 C 10.297881734805348 -1396.2539651801214, 10.720490867402736 -1396.9668325900614, 11.143099999999992 -1397.6797000000004" fill="none" style="stroke-width: 2px;">
    <title>.id(nerve_feature_01)</title>
  </path>
  <path d="M 9.468 -1392.893 C 9.468 -1392.893 10.313 -1394.318 10.735 -1395.031 C 11.158 -1395.744 11.581 -1396.457 12.003 -1397.17 L 10.283 -1398.19 C 9.86 -1397.477 9.438 -1396.764 9.015 -1396.051 C 8.592 -1395.338 7.747 -1393.912 7.747 -1393.912 C 7.747 -1393.912 9.468 -1392.893 9.468 -1392.893 Z" style="fill: rgb(110, 1, 1); stroke: rgb(85, 145, 218);"/>
  <path d="M 27.06830414019548 -1491.817670124759 C 31.888774815659076 -1490.9016886071577, 35.28654538955618 -1491.998289479088, 37.726728918773276 -1494.4563055525089 C 40.166912447990384 -1496.91432162593, 42.137656932856196 -1500.3037161486488, 46.6100743933045 -1502.1262405509337 C 51.08249185375281 -1503.948764953219, 55.99798055021826 -1504.0349576176966, 60.603843217213395 -1504.1840742515346" fill="none" style="stroke-width: 2px;">
    <title>.id(nerve_feature_02)</title>
  </path>
  <path d="M 27.255 -1492.8 C 31.829 -1491.869 34.739 -1492.866 37.017 -1495.161 C 39.368 -1497.529 41.477 -1501.115 46.233 -1503.052 C 48.555 -1503.999 51.037 -1504.503 53.444 -1504.776 C 54.648 -1504.913 55.866 -1504.997 57.054 -1505.055 C 58.243 -1505.113 60.555 -1505.183 60.555 -1505.183 C 60.565 -1505.183 60.642 -1503.185 60.653 -1503.185 C 60.653 -1503.185 58.32 -1503.114 57.152 -1503.057 C 55.983 -1503 54.83 -1502.921 53.67 -1502.789 C 51.349 -1502.526 49.138 -1502.076 46.987 -1501.2 C 42.798 -1499.493 40.965 -1496.299 38.436 -1493.752 C 35.835 -1491.131 31.949 -1489.935 26.882 -1490.835 Z" style="fill: rgb(110, 1, 1); stroke: rgb(85, 145, 218);"/>
  <path d="M 11.00423078862422 -1389.443832381396 C 10.837788606661851 -1390.505384025708, 10.67136872677365 -1391.5667934296139, 10.504926544758254 -1392.6283450742637 C 10.338484362742852 -1393.689896718914, 10.17204218065363 -1394.7514483640352, 10.005599998584993 -1395.813000009025" fill="none" style="stroke-width: 2px;">
    <title>.id(nerve_feature_03)</title>
  </path>
  <path d="M 10.994 -1395.968 C 11.16 -1394.906 11.326 -1393.845 11.493 -1392.783 C 11.659 -1391.722 11.992 -1389.599 11.992 -1389.599 L 10.016 -1389.289 C 10.016 -1389.289 9.683 -1391.412 9.517 -1392.473 C 9.351 -1393.535 9.184 -1394.597 9.018 -1395.658 Z" style="fill: rgb(110, 1, 1); stroke: rgb(85, 145, 218);"/>
  <path d="M 30.440288850197625 -1486.3164909615407 C 30.69978020523916 -1482.537557978272, 30.939499947426306 -1478.795183405351, 31.054758977020896 -1475.0135883677058 C 31.170018006615475 -1471.231993330061, 31.198040660589037 -1467.4983173401627, 31.189566830594604 -1463.808429226819 C 31.181093000600168 -1460.1185411134754, 31.134689651452238 -1456.468819152762, 31.072647650531312 -1452.8416013363155 C 31.010605649610383 -1449.2143835198694, 30.93222835046183 -1445.6085687797968, 30.84716057290307 -1442.0128183846798 C 30.762092795344312 -1438.4170679895633, 30.670021359095156 -1434.831320191804, 30.575148956036475 -1431.249832820274 C 30.48027655297779 -1427.6683454487438, 30.38246472486706 -1424.0912120016435, 30.28364104179548 -1420.5156213325122 C 30.184817358723897 -1416.9400306633804, 30.084913847683726 -1413.3660612833473, 29.9850347348408 -1409.79205912617" fill="none" style="stroke-width: 2px;">
    <title>.id(nerve_feature_04)</title>
  </path>
  <path d="M 31.438 -1486.385 C 31.698 -1482.604 31.939 -1478.842 32.054 -1475.044 C 32.17 -1471.251 32.198 -1467.501 32.19 -1463.806 C 32.181 -1460.111 32.135 -1456.454 32.073 -1452.825 C 32.01 -1449.195 31.932 -1445.586 31.847 -1441.989 C 31.762 -1438.392 31.67 -1434.805 31.575 -1431.223 C 31.48 -1427.641 31.382 -1424.064 31.283 -1420.488 C 31.234 -1418.7 31.184 -1416.913 31.134 -1415.125 C 31.109 -1414.232 31.085 -1413.338 31.06 -1412.445 C 31.035 -1411.551 30.985 -1409.764 30.985 -1409.764 C 30.985 -1409.764 28.985 -1409.82 28.985 -1409.82 C 28.985 -1409.82 29.035 -1411.607 29.06 -1412.501 C 29.085 -1413.394 29.11 -1414.288 29.135 -1415.181 C 29.185 -1416.968 29.235 -1418.756 29.284 -1420.543 C 29.383 -1424.119 29.481 -1427.695 29.576 -1431.276 C 29.67 -1434.857 29.762 -1438.442 29.847 -1442.036 C 29.933 -1445.631 30.011 -1449.234 30.073 -1452.859 C 30.135 -1456.484 30.181 -1460.126 30.19 -1463.811 C 30.198 -1467.496 30.17 -1471.213 30.055 -1474.983 C 29.94 -1478.748 29.702 -1482.471 29.443 -1486.248 Z" style="fill: rgb(110, 1, 1); stroke: rgb(85, 145, 218);"/>
  <path d="M 11.365266574303236 -1236.6254467558429 C 10.23563740213734 -1240.4682744240736, 9.10030497760353 -1244.3305036946513, 7.970675613415396 -1248.1733320161127 C 6.841046249227262 -1252.0161603375743, 5.711416443617373 -1255.8589901606867, 4.581786863180131 -1259.701819217795 C 3.4521572827428897 -1263.5446482749035, 2.3225276414506175 -1267.3874775390307, 1.1928980365846447 -1271.230306679242" fill="none" style="stroke-width: 2px;">
    <title>.id(nerve_feature_05)</title>
  </path>
  <path d="M 10.406 -1236.343 C 9.276 -1240.186 8.141 -1244.048 7.011 -1247.891 C 5.882 -1251.734 4.752 -1255.577 3.622 -1259.42 C 3.058 -1261.341 2.493 -1263.263 1.928 -1265.184 C 1.646 -1266.145 1.363 -1267.105 1.081 -1268.066 C 0.798 -1269.027 0.234 -1270.948 0.234 -1270.948 C 0.234 -1270.948 2.152 -1271.512 2.152 -1271.512 C 2.152 -1271.512 2.717 -1269.591 3 -1268.63 C 3.282 -1267.669 3.564 -1266.709 3.847 -1265.748 C 4.412 -1263.827 4.976 -1261.905 5.541 -1259.984 C 6.671 -1256.141 7.8 -1252.298 8.93 -1248.455 C 10.06 -1244.613 11.195 -1240.75 12.325 -1236.907 Z" style="fill: rgb(110, 1, 1); stroke: rgb(85, 145, 218);"/>
  <path d="M 28.164687936006114 -1304.781421492497 C 29.514099201994195 -1301.8079436562734, 30.8635197436268 -1298.8344453808231, 32.212931009639554 -1295.860967544545 C 33.5623422756523 -1292.887489708267, 34.91175354172276 -1289.9140118718617, 36.261164807763805 -1286.9405340355213 C 37.610576073804864 -1283.9670561991804, 38.959987339853235 -1280.9935783628237, 40.30939860589787 -1278.020100526475 C 41.65880987194249 -1275.0466226901265, 43.00822113798795 -1272.0731448537765, 44.35763240403313 -1269.0996670174272 C 45.70704367007833 -1266.1261891810775, 47.05645493612367 -1263.1527113447275, 48.405866202168895 -1260.1792335083778 C 49.75527746821414 -1257.2057556720285, 51.10468873425944 -1254.2322778356788, 52.45410000030466 -1251.2587999993293" fill="none" style="stroke-width: 2px;">
    <title>.id(nerve_feature_06)</title>
  </path>
  <path d="M 29.075 -1305.195 C 30.425 -1302.221 31.774 -1299.248 33.124 -1296.274 C 34.473 -1293.301 35.822 -1290.327 37.172 -1287.354 C 38.521 -1284.38 39.871 -1281.407 41.22 -1278.433 C 42.569 -1275.46 43.919 -1272.486 45.268 -1269.513 C 46.618 -1266.539 47.967 -1263.566 49.316 -1260.593 C 49.991 -1259.106 50.666 -1257.619 51.341 -1256.132 C 51.678 -1255.389 52.015 -1254.646 52.353 -1253.902 C 52.69 -1253.159 53.365 -1251.672 53.365 -1251.672 L 51.543 -1250.846 C 51.543 -1250.846 50.869 -1252.332 50.531 -1253.076 C 50.194 -1253.819 49.857 -1254.562 49.519 -1255.306 C 48.845 -1256.793 48.17 -1258.279 47.495 -1259.766 C 46.146 -1262.739 44.796 -1265.713 43.447 -1268.686 C 42.098 -1271.66 40.748 -1274.633 39.399 -1277.607 C 38.049 -1280.58 36.7 -1283.554 35.351 -1286.527 C 34.001 -1289.501 32.652 -1292.474 31.302 -1295.448 C 29.953 -1298.421 28.603 -1301.395 27.254 -1304.368 Z" style="fill: rgb(110, 1, 1); stroke: rgb(85, 145, 218);"/>
  <path d="M 28.164687936006118 -1304.7814214924972 C 24.622123882251312 -1302.7726421345615, 21.07965621502006 -1300.7639174317444, 17.537092161264223 -1298.755138073808 C 13.99452810750838 -1296.7463587158716, 10.451964053749261 -1294.737579357933, 6.909399999992135 -1292.728799999996" fill="none" style="stroke-width: 2px;">
    <title>.id(nerve_feature_07)</title>
  </path>
  <path d="M 27.671 -1305.651 C 27.671 -1305.651 25.9 -1304.647 25.015 -1304.145 C 24.129 -1303.643 23.243 -1303.14 22.358 -1302.638 C 20.586 -1301.634 18.815 -1300.629 17.044 -1299.625 C 13.501 -1297.616 9.959 -1295.607 6.416 -1293.599 L 7.403 -1291.859 C 10.945 -1293.868 14.488 -1295.876 18.03 -1297.885 C 19.802 -1298.89 21.573 -1299.894 23.344 -1300.898 C 24.23 -1301.401 25.115 -1301.903 26.001 -1302.405 C 26.887 -1302.907 28.658 -1303.912 28.658 -1303.912 C 28.658 -1303.912 27.671 -1305.651 27.671 -1305.651 Z" style="fill: rgb(110, 1, 1); stroke: rgb(85, 145, 218);"/>
  <path d="M 21.587576861756055 -1108.6109907869245 C 20.094381582627182 -1105.5925709033072, 18.57448342850732 -1102.5201724879141, 17.081284388244015 -1099.5017450013509 C 15.588085347980712 -1096.483317514788, 14.094877515040007 -1093.4648722542654, 12.601674231223507 -1090.446436189571 C 11.108470947407014 -1087.4280001248765, 9.615266397266513 -1084.409561500371, 8.122062617221367 -1081.391124432575" fill="none" style="stroke-width: 3px;">
    <title>.id(nerve_feature_08)</title>
  </path>
  <path d="M 22.932 -1107.946 C 21.439 -1104.927 19.919 -1101.855 18.426 -1098.837 C 16.933 -1095.818 15.439 -1092.8 13.946 -1089.781 C 13.2 -1088.272 12.453 -1086.763 11.706 -1085.254 C 10.96 -1083.744 9.467 -1080.726 9.467 -1080.726 C 9.467 -1080.726 6.778 -1082.056 6.778 -1082.056 C 6.778 -1082.056 8.271 -1085.075 9.017 -1086.584 C 9.764 -1088.093 10.511 -1089.602 11.257 -1091.112 C 12.75 -1094.13 14.244 -1097.148 15.737 -1100.167 C 17.23 -1103.185 18.75 -1106.258 20.243 -1109.276 Z" style="fill: rgb(110, 1, 1); stroke: rgb(85, 145, 218);"/>
  <path d="M 46.122351913335784 -1501.9169967584048 C 44.64840631562056 -1501.8412041399065, 42.00318717265092 -1500.5160683607262, 38.913163952175196 -1498.415074862631 C 35.82314073169949 -1496.314081364536, 32.455814235009534 -1493.6822330428936, 29.135948571361492 -1491.0887651702458" fill="none" style="stroke-width: 2px;">
    <title>.id(nerve_feature_09)</title>
  </path>
  <path d="M 45.682 -1502.815 C 45.682 -1502.815 43.973 -1502.455 42.684 -1501.824 C 41.415 -1501.202 39.92 -1500.309 38.351 -1499.242 C 35.233 -1497.122 31.84 -1494.47 28.52 -1491.877 L 29.752 -1490.301 C 33.072 -1492.894 36.413 -1495.506 39.475 -1497.588 C 40.996 -1498.622 42.369 -1499.442 43.564 -1500.027 C 44.154 -1500.317 44.658 -1500.529 45.125 -1500.685 C 45.578 -1500.836 46.438 -1500.968 46.438 -1500.968 C 46.388 -1500.954 45.741 -1502.839 45.682 -1502.815 Z" style="fill: rgb(110, 1, 1); stroke: rgb(85, 145, 218);"/>
  <path d="M 37.74102151897279 -1494.4707186306064 C 36.69301792182383 -1493.6818641845348, 35.64384722963127 -1492.8921322073331, 34.63755241612674 -1492.1363466784567 C 33.631257602622206 -1491.3805611495804, 32.695573533744565 -1490.6804210079522, 31.788349149505404 -1490.0025507524676" fill="none" style="stroke-width: 2px;">
    <title>.id(nerve_feature_10)</title>
  </path>
  <path d="M 38.342 -1493.672 C 37.294 -1492.883 36.245 -1492.093 35.238 -1491.337 C 34.231 -1490.58 32.389 -1489.203 32.389 -1489.203 C 32.388 -1489.202 31.189 -1490.803 31.188 -1490.802 C 31.188 -1490.802 33.031 -1492.181 34.037 -1492.936 C 35.043 -1493.691 36.092 -1494.481 37.14 -1495.27 Z" style="fill: rgb(110, 1, 1); stroke: rgb(85, 145, 218);"/>
  <path d="M 21.18966700193196 -1407.3477642264743 C 21.57438880457958 -1406.074104726117, 21.95911278940982 -1404.8004380014286, 22.343834592057497 -1403.5267785010708 C 22.72855639470517 -1402.2531190007135, 23.11327819735285 -1400.979459500356, 23.4980000000005 -1399.7057999999981" fill="none" style="stroke-width: 2px;">
    <title>.id(nerve_feature_11)</title>
  </path>
  <path d="M 22.147 -1407.637 C 22.532 -1406.363 22.916 -1405.09 23.301 -1403.816 C 23.493 -1403.179 23.686 -1402.542 23.878 -1401.905 C 24.071 -1401.269 24.455 -1399.995 24.455 -1399.995 C 24.455 -1399.995 22.541 -1399.417 22.541 -1399.417 C 22.541 -1399.417 22.156 -1400.69 21.964 -1401.327 C 21.771 -1401.964 21.579 -1402.601 21.387 -1403.238 C 21.002 -1404.511 20.617 -1405.785 20.232 -1407.059 Z" style="fill: rgb(110, 1, 1); stroke: rgb(85, 145, 218);"/>
  <path d="M 4.102711478242515 -1404.5434480732433 C 5.549009565202115 -1403.5450400610364, 6.995307652161843 -1402.5466320488292, 8.441605739121377 -1401.548224036622 C 9.887903826080908 -1400.549816024415, 11.334201913040477 -1399.551408012207, 12.78050000000001 -1398.5529999999997" fill="none" style="stroke-width: 2px;">
    <title>.id(nerve_feature_12)</title>
  </path>
  <path d="M 4.671 -1405.366 C 6.117 -1404.368 7.563 -1403.37 9.01 -1402.371 C 9.733 -1401.872 10.456 -1401.373 11.179 -1400.874 C 11.902 -1400.374 13.349 -1399.376 13.349 -1399.376 L 12.212 -1397.73 C 12.212 -1397.73 10.766 -1398.728 10.043 -1399.228 C 9.32 -1399.727 8.597 -1400.226 7.873 -1400.725 C 6.427 -1401.724 4.981 -1402.722 3.535 -1403.721 Z" style="fill: rgb(110, 1, 1); stroke: rgb(85, 145, 218);"/>
  <path d="M 11.00423078862422 -1389.443832381396 C 11.035669936790717 -1393.4783190756827, 11.067108518304448 -1397.512733053208, 11.098547666474 -1401.547219747887 C 11.129986814643553 -1405.5817064425662, 11.161425962820157 -1409.6161931381498, 11.19286511099317 -1413.6506798332732 C 11.22430425916618 -1417.685166528396, 11.255743407340109 -1421.7196532236367, 11.287182555513573 -1425.7541399188171 C 11.318621703687032 -1429.7886266139972, 11.350060851860636 -1433.8231133091952, 11.38150000003415 -1437.8576000043834" fill="none" style="stroke-width: 2px;">
    <title>.id(nerve_feature_13)</title>
  </path>
  <path d="M 12.004 -1389.436 C 12.004 -1389.436 12.02 -1391.453 12.028 -1392.462 C 12.036 -1393.471 12.044 -1394.479 12.051 -1395.488 C 12.067 -1397.505 12.083 -1399.522 12.099 -1401.539 C 12.13 -1405.574 12.161 -1409.608 12.193 -1413.643 C 12.224 -1417.677 12.256 -1421.712 12.287 -1425.746 C 12.319 -1429.781 12.35 -1433.815 12.381 -1437.85 L 10.382 -1437.865 C 10.35 -1433.831 10.319 -1429.796 10.287 -1425.762 C 10.256 -1421.727 10.224 -1417.693 10.193 -1413.658 C 10.161 -1409.624 10.13 -1405.589 10.099 -1401.555 C 10.083 -1399.538 10.067 -1397.521 10.051 -1395.503 C 10.044 -1394.495 10.036 -1393.486 10.028 -1392.477 C 10.02 -1391.469 10.004 -1389.452 10.004 -1389.452 Z" style="fill: rgb(110, 1, 1); stroke: rgb(85, 145, 218);"/>
  <path d="M 28.778195615643764 -1489.7479045818523 C 29.12456822727732 -1489.4821555492963, 29.487471660983037 -1489.2037234990148, 29.833869388393918 -1488.9379551967672 C 30.180267115804803 -1488.6721868945192, 30.52669178196097 -1488.4063979239345, 30.87311431763925 -1488.1406105879264" fill="none" style="stroke-width: 2px;">
    <title>.id(nerve_feature_14)</title>
  </path>
  <path d="M 29.387 -1490.541 C 29.733 -1490.276 30.096 -1489.997 30.443 -1489.731 C 30.789 -1489.466 31.482 -1488.934 31.482 -1488.934 C 31.482 -1488.934 30.264 -1487.347 30.264 -1487.347 C 30.264 -1487.347 29.572 -1487.879 29.225 -1488.145 C 28.879 -1488.41 28.516 -1488.689 28.169 -1488.955 Z" style="fill: rgb(110, 1, 1); stroke: rgb(85, 145, 218);"/>
  <path d="M 13.340362163793056 -1451.5330233515922 C 12.88700562513182 -1449.415148371996, 12.440505989582462 -1447.3293057164096, 11.987144949249194 -1445.2114097070548 C 11.533783908915918 -1443.0935136977005, 11.080413932725046 -1440.9755759440939, 10.627048375078433 -1438.857658831911" fill="none" style="stroke-width: 2px;">
    <title>.id(nerve_feature_15)</title>
  </path>
  <path d="M 12.363 -1451.742 C 12.363 -1451.742 11.911 -1449.632 11.686 -1448.582 C 11.461 -1447.531 11.236 -1446.48 11.009 -1445.421 C 10.556 -1443.303 10.103 -1441.185 9.649 -1439.067 L 11.605 -1438.648 C 12.058 -1440.766 12.512 -1442.884 12.965 -1445.002 C 13.192 -1446.061 13.417 -1447.112 13.642 -1448.163 C 13.867 -1449.214 14.318 -1451.324 14.318 -1451.324 C 14.318 -1451.324 12.363 -1451.742 12.363 -1451.742 Z" style="fill: rgb(110, 1, 1); stroke: rgb(85, 145, 218);"/>
  <path d="M 31.05543332493437 -1474.9914311326413 C 29.341088868003677 -1471.9684785150027, 27.626744569304158 -1468.9455261763778, 25.912400112373106 -1465.9225735587393 C 24.19805565544204 -1462.8996209411, 22.483711198512246 -1459.8766683234628, 20.769366741581862 -1456.8537157058252 C 19.055022284651475 -1453.8307630881873, 17.340677827721308 -1450.8078104705507, 15.626333370790983 -1447.7848578529133 C 13.911988913860668 -1444.7619052352754, 12.197644456930368 -1441.7389526176376, 10.48330000000001 -1438.7160000000003" fill="none" style="stroke-width: 2px;">
    <title>.id(nerve_feature_16)</title>
  </path>
  <path d="M 31.925 -1474.498 C 30.211 -1471.475 28.497 -1468.452 26.782 -1465.429 C 25.068 -1462.406 23.354 -1459.383 21.639 -1456.36 C 19.925 -1453.337 18.211 -1450.314 16.496 -1447.292 C 15.639 -1445.78 14.782 -1444.269 13.925 -1442.757 C 13.496 -1442.001 13.068 -1441.246 12.639 -1440.49 C 12.21 -1439.734 11.353 -1438.223 11.353 -1438.223 L 9.613 -1439.209 C 9.613 -1439.209 10.471 -1440.721 10.899 -1441.477 C 11.328 -1442.232 11.756 -1442.988 12.185 -1443.744 C 13.042 -1445.255 13.899 -1446.767 14.756 -1448.278 C 16.471 -1451.301 18.185 -1454.324 19.9 -1457.347 C 21.614 -1460.37 23.328 -1463.393 25.043 -1466.416 C 26.757 -1469.439 28.471 -1472.462 30.186 -1475.485 Z" style="fill: rgb(110, 1, 1); stroke: rgb(85, 145, 218);"/>
  <path d="M 8.818164423473169 -1393.0541186749326 C 9.298836945402883 -1394.091482069066, 9.779509912281613 -1395.1288464234663, 10.260182434211346 -1396.1662098175998 C 10.740854956141085 -1397.2035732117338, 11.221527478070543 -1398.240936605867, 11.702200000000099 -1399.2783000000004" fill="none" style="stroke-width: 2px;">
    <title>.id(nerve_feature_17)</title>
  </path>
  <path d="M 12.61 -1398.858 C 12.129 -1397.821 11.648 -1396.783 11.168 -1395.746 C 10.687 -1394.708 9.725 -1392.634 9.725 -1392.634 C 9.725 -1392.634 7.911 -1393.475 7.911 -1393.475 C 7.911 -1393.475 8.872 -1395.549 9.353 -1396.587 C 9.834 -1397.624 10.314 -1398.661 10.795 -1399.699 Z" style="fill: rgb(110, 1, 1); stroke: rgb(85, 145, 218);"/>
  <path d="M 11.00423078862422 -1389.443832381396 C 10.920458246635356 -1390.4845695593856, 10.836690167113227 -1391.5252512985055, 10.752917625090822 -1392.565988476912 C 10.669145083068413 -1393.6067256553183, 10.58537254100169 -1394.6474628342744, 10.501599998945938 -1395.6882000130947" fill="none" style="stroke-width: 2px;">
    <title>.id(nerve_feature_18)</title>
  </path>
  <path d="M 11.498 -1395.768 C 11.582 -1394.728 11.666 -1393.687 11.75 -1392.646 C 11.833 -1391.605 12.001 -1389.524 12.001 -1389.524 L 10.007 -1389.364 C 10.007 -1389.364 9.84 -1391.445 9.756 -1392.486 C 9.672 -1393.526 9.589 -1394.567 9.505 -1395.608 Z" style="fill: rgb(110, 1, 1); stroke: rgb(85, 145, 218);"/>
  <path d="M 27.819230967256082 -1102.3238930903908 C 28.750589506235507 -1098.664391372817, 29.71707086315102 -1094.9258887638478, 30.51353479950591 -1091.2927432511153 C 31.3099987358608 -1087.6595977383827, 32.080473485902615 -1083.8871598771977, 31.68784400361543 -1080.800673563834 C 31.29521452132823 -1077.71418725047, 29.848349173362877 -1075.6813494425699, 28.54278365342654 -1073.60565212985" fill="none" style="stroke-width: 2px;">
    <title>.id(nerve_feature_19)</title>
  </path>
  <path d="M 28.788 -1102.571 C 29.719 -1098.913 30.69 -1095.158 31.49 -1091.507 C 32.288 -1087.867 33.093 -1083.921 32.68 -1080.674 C 32.257 -1077.354 29.535 -1073.479 29.535 -1073.479 C 29.446 -1073.253 27.697 -1074.139 27.69 -1074.128 C 27.69 -1074.128 28.359 -1075.175 28.677 -1075.694 C 28.996 -1076.214 29.289 -1076.721 29.562 -1077.27 C 30.11 -1078.371 30.513 -1079.491 30.696 -1080.927 C 31.068 -1083.854 30.332 -1087.452 29.537 -1091.079 C 28.744 -1094.694 27.782 -1098.416 26.85 -1102.077 Z" style="fill: rgb(110, 1, 1); stroke: rgb(85, 145, 218);"/>
  <path d="M 18.405000998363057 -1294.4849577422835 C 15.657210479508544 -1293.126013490305, 12.911860639069792 -1291.7682762975544, 10.164069428717825 -1290.4093317035897 C 7.41627821836585 -1289.0503871096253, 4.668485432865559 -1287.691441736657, 1.9206935308845532 -1286.332496800641" fill="none" style="stroke-width: 2px;">
    <title>.id(nerve_feature_20)</title>
  </path>
  <path d="M 18.848 -1293.589 C 16.101 -1292.23 13.355 -1290.872 10.607 -1289.513 C 9.233 -1288.833 7.86 -1288.154 6.486 -1287.475 C 5.799 -1287.135 5.112 -1286.795 4.425 -1286.455 C 3.738 -1286.116 2.364 -1285.436 2.364 -1285.436 C 2.364 -1285.436 1.477 -1287.229 1.477 -1287.229 C 1.477 -1287.229 2.851 -1287.908 3.538 -1288.248 C 4.225 -1288.588 4.912 -1288.928 5.599 -1289.267 C 6.973 -1289.947 8.347 -1290.626 9.721 -1291.306 C 12.469 -1292.665 15.214 -1294.022 17.962 -1295.381 Z" style="fill: rgb(110, 1, 1); stroke: rgb(85, 145, 218);"/>
  <path d="M 29.00028654939989 -1310.4569581405776 C 25.99240191730661 -1307.7771450834357, 22.970034108947072 -1305.0844285377589, 19.962140269904996 -1302.4046072778751 C 16.954246430862923 -1299.7247860179912, 13.946330791792624 -1297.0449453358199, 10.93842651247969 -1294.365114774391 C 7.930522233166759 -1291.6852842129622, 4.922614743690431 -1289.005450791504, 1.9147092220779727 -1286.325619123274" fill="none" style="stroke-width: 2px;">
    <title>.id(nerve_feature_21)</title>
  </path>
  <path d="M 28.335 -1311.204 C 28.335 -1311.204 26.83 -1309.863 26.077 -1309.192 C 25.324 -1308.521 24.57 -1307.849 23.816 -1307.177 C 22.308 -1305.834 20.801 -1304.491 19.297 -1303.151 C 16.289 -1300.471 13.281 -1297.792 10.273 -1295.112 C 7.265 -1292.432 4.257 -1289.752 1.249 -1287.072 L 2.58 -1285.579 C 5.588 -1288.259 8.596 -1290.939 11.604 -1293.618 C 14.612 -1296.298 17.619 -1298.978 20.627 -1301.658 C 22.131 -1302.998 23.639 -1304.341 25.146 -1305.684 C 25.9 -1306.356 26.654 -1307.027 27.407 -1307.698 C 28.161 -1308.37 29.666 -1309.71 29.666 -1309.71 C 29.666 -1309.71 28.335 -1311.204 28.335 -1311.204 Z" style="fill: rgb(110, 1, 1); stroke: rgb(85, 145, 218);"/>
  <path d="M 8.90532043928135 -1398.9007882512792 C 7.307829834198001 -1400.7777047619502, 5.709562399430536 -1402.6555339818754, 4.112071774871337 -1404.5324505154283 C 2.5145811503121394 -1406.4093670489822, 0.9170904779142812 -1408.2862836387424, -0.680400166118412 -1410.1632001951762" fill="none" style="stroke-width: 2px;">
    <title>.id(nerve_feature_22)</title>
  </path>
  <path d="M 8.144 -1398.253 C 6.546 -1400.13 4.948 -1402.007 3.351 -1403.884 C 2.552 -1404.823 1.753 -1405.761 0.954 -1406.7 C 0.555 -1407.169 0.156 -1407.638 -0.244 -1408.107 C -0.643 -1408.577 -1.442 -1409.515 -1.442 -1409.515 C -1.442 -1409.515 0.081 -1410.811 0.081 -1410.811 C 0.081 -1410.811 0.88 -1409.873 1.279 -1409.404 C 1.679 -1408.934 2.078 -1408.465 2.477 -1407.996 C 3.276 -1407.057 4.075 -1406.119 4.874 -1405.181 C 6.471 -1403.304 8.069 -1401.426 9.667 -1399.549 Z" style="fill: rgb(110, 1, 1); stroke: rgb(85, 145, 218);"/>
  <path d="M 12.689313638155543 -1254.928021407744 C 11.494030828824922 -1258.5136851567593, 10.297379762535908 -1262.103453465245, 9.102096929966397 -1265.6891172839732 C 7.906814097396879 -1269.2747811027011, 6.711531210774146 -1272.8604450835805, 5.516248351946479 -1276.4461089810789 C 4.320965493118816 -1280.0317728785776, 3.125682626652699 -1283.6174367989909, 1.9303997648000353 -1287.203100705564" fill="none" style="stroke-width: 2px;">
    <title>.id(nerve_feature_23)</title>
  </path>
  <path d="M 11.741 -1254.612 C 10.545 -1258.197 9.349 -1261.787 8.153 -1265.373 C 6.958 -1268.959 5.763 -1272.544 4.568 -1276.13 C 3.372 -1279.716 0.982 -1286.887 0.982 -1286.887 C 0.982 -1286.887 2.879 -1287.519 2.879 -1287.519 C 2.879 -1287.519 3.477 -1285.727 3.776 -1284.83 C 4.074 -1283.934 4.373 -1283.037 4.672 -1282.141 C 5.27 -1280.348 5.867 -1278.555 6.465 -1276.762 C 7.66 -1273.177 8.855 -1269.591 10.051 -1266.005 C 11.246 -1262.42 12.443 -1258.83 13.638 -1255.244 Z" style="fill: rgb(110, 1, 1); stroke: rgb(85, 145, 218);"/>
  <path d="M 27.0567758619704 -1422.2033099281489 C 25.628931700817795 -1417.048779505923, 23.86893243843383 -1411.3907250837499, 21.205275772625292 -1407.371294624358 C 18.54161910681676 -1403.3518641649646, 15.754778881529063 -1401.164361296382, 13.154374593346791 -1399.1603082095728" fill="none" style="stroke-width: 2px;">
    <title>.id(nerve_feature_24)</title>
  </path>
  <path d="M 28.02 -1421.936 C 26.588 -1416.767 24.78 -1410.955 22.039 -1406.819 C 20.67 -1404.753 19.234 -1403.118 17.848 -1401.788 C 17.153 -1401.121 16.449 -1400.509 15.77 -1399.951 C 15.09 -1399.392 13.789 -1398.388 13.789 -1398.388 C 13.778 -1398.379 12.531 -1399.942 12.519 -1399.933 C 12.519 -1399.933 13.842 -1400.955 14.5 -1401.496 C 15.158 -1402.037 15.804 -1402.599 16.464 -1403.232 C 17.788 -1404.502 19.077 -1405.97 20.372 -1407.924 C 22.958 -1411.826 24.67 -1417.331 26.093 -1422.47 Z" style="fill: rgb(110, 1, 1); stroke: rgb(85, 145, 218);"/>
  <path d="M 11.00423078862422 -1389.443832381396 C 10.60418451075748 -1390.1041603545798, 10.204215936522754 -1390.764360047782, 9.804304857128201 -1391.4247755408 C 9.404393777733645 -1392.0851910338197, 9.004657320025991 -1392.745719532577, 8.60510406611516 -1393.4063665108924" fill="none" style="stroke-width: 2px;">
    <title>.id(nerve_feature_25)</title>
  </path>
  <path d="M 10.149 -1388.926 C 9.749 -1389.586 9.349 -1390.246 8.949 -1390.907 C 8.549 -1391.567 7.75 -1392.888 7.75 -1392.888 C 7.75 -1392.889 9.461 -1393.924 9.461 -1393.924 C 9.461 -1393.924 10.26 -1392.603 10.66 -1391.943 C 11.06 -1391.282 11.459 -1390.622 11.86 -1389.962 Z" style="fill: rgb(110, 1, 1); stroke: rgb(85, 145, 218);"/>
  <path d="M 27.342028661991506 -1423.4453197859816 C 25.275203781239835 -1420.450181907552, 23.209129912200993 -1417.4557749209162, 21.09758221149595 -1414.4901010919127 C 18.986034510790912 -1411.5244272629097, 16.82974602536895 -1408.5878962012137, 14.581811720336567 -1405.717900467648 C 12.333877415304185 -1402.8479047340825, 9.984015385577663 -1400.052679836511, 7.514521885247799 -1397.3591089389222" fill="none" style="stroke-width: 2px;">
    <title>.id(nerve_feature_26)</title>
  </path>
  <path d="M 28.165 -1422.877 C 26.098 -1419.882 24.028 -1416.882 21.912 -1413.91 C 19.796 -1410.938 17.627 -1407.983 15.369 -1405.101 C 14.24 -1403.659 13.079 -1402.229 11.895 -1400.827 C 11.304 -1400.126 10.702 -1399.427 10.096 -1398.738 C 9.49 -1398.048 8.266 -1396.699 8.266 -1396.699 C 8.262 -1396.695 6.767 -1398.023 6.763 -1398.019 C 6.763 -1398.019 7.994 -1399.376 8.593 -1400.058 C 9.193 -1400.74 9.782 -1401.424 10.367 -1402.117 C 11.538 -1403.504 12.676 -1404.906 13.795 -1406.335 C 16.033 -1409.192 18.176 -1412.11 20.283 -1415.07 C 22.39 -1418.03 24.452 -1421.018 26.519 -1424.013 Z" style="fill: rgb(110, 1, 1); stroke: rgb(85, 145, 218);"/>
  <path d="M 22.448108456829225 -1284.9641506854223 C 21.381675715243958 -1287.6859908679658, 20.372284032394518 -1290.3839922447098, 18.87151761784222 -1293.5323730130858 C 17.370751203289934 -1296.680753781462, 15.235010831280754 -1300.2378867907332, 13.329679764298538 -1303.792020010868 C 11.424348697316324 -1307.3461532310032, 9.711283868994563 -1311.1779627726166, 9.317387318670061 -1315.295908410238 C 8.923490768345557 -1319.4138540478596, 9.095110778164234 -1323.544056593218, 9.227970914095227 -1327.66523535262 C 9.360831050026222 -1331.7864141120215, 9.54492779525971 -1335.9064689703969, 9.725437276061745 -1340.0257297846063 C 9.905946756863775 -1344.1449905988152, 10.091171209911638 -1348.2642150039114, 10.275040634195378 -1352.383355945859 C 10.45891005847912 -1356.5024968878067, 10.64397941239915 -1360.6217009839386, 10.81759309636052 -1364.741256719251 C 10.99120678032189 -1368.8608124545635, 11.17343108550349 -1372.9808325666022, 11.229480740167238 -1377.104190148022 C 11.285530394830989 -1381.227547729442, 11.17511545756043 -1385.3530422451463, 11.00322431830165 -1389.4679432506136" fill="none" style="stroke-width: 3px;">
    <title>.id(nerve_feature_27)</title>
  </path>
  <path d="M 21.051 -1284.417 C 19.981 -1287.15 18.99 -1289.797 17.517 -1292.887 C 16.048 -1295.97 13.93 -1299.497 12.008 -1303.083 C 10.077 -1306.685 8.241 -1310.797 7.824 -1315.153 C 7.421 -1319.373 7.596 -1323.599 7.729 -1327.714 C 7.862 -1331.844 8.046 -1335.973 8.227 -1340.091 C 8.407 -1344.212 8.593 -1348.331 8.777 -1352.45 C 8.96 -1356.57 9.145 -1360.687 9.319 -1364.804 C 9.493 -1368.926 9.674 -1373.024 9.73 -1377.125 C 9.757 -1379.171 9.744 -1381.208 9.702 -1383.259 C 9.681 -1384.284 9.653 -1385.305 9.62 -1386.331 C 9.586 -1387.357 9.504 -1389.419 9.504 -1389.419 C 9.504 -1389.415 12.502 -1389.521 12.502 -1389.517 C 12.502 -1389.517 12.584 -1387.463 12.618 -1386.429 C 12.652 -1385.395 12.68 -1384.356 12.702 -1383.32 C 12.744 -1381.248 12.758 -1379.161 12.729 -1377.084 C 12.673 -1372.938 12.49 -1368.796 12.316 -1364.678 C 12.143 -1360.556 11.957 -1356.435 11.774 -1352.316 C 11.59 -1348.197 11.404 -1344.078 11.224 -1339.96 C 11.043 -1335.84 10.86 -1331.729 10.727 -1327.617 C 10.594 -1323.489 10.426 -1319.455 10.811 -1315.439 C 11.182 -1311.559 12.772 -1308.008 14.652 -1304.501 C 16.54 -1300.979 18.694 -1297.391 20.226 -1294.178 C 21.754 -1290.971 22.782 -1288.222 23.845 -1285.511 Z" style="fill: rgb(110, 1, 1); stroke: rgb(85, 145, 218);"/>
  <path d="M 32.23498820248274 -1481.4019357625202 C 32.17062702249501 -1477.4458416162825, 32.10908966547903 -1473.635780253946, 32.01313578931305 -1469.6773881041559 C 31.91718191314706 -1465.718995954366, 31.789261178250335 -1461.7579851612127, 31.595448539700236 -1457.7943664071156 C 31.401635901150122 -1453.8307476530192, 31.141988771085074 -1449.8640696017915, 30.779828789811244 -1445.8975074111027 C 30.417668808537407 -1441.930945220413, 29.95301330436625 -1437.9642788797498, 29.345402369342413 -1434.0066714863735 C 28.737791434318584 -1430.049064092998, 27.969332001838104 -1426.1032228963988, 27.051399059308594 -1422.1803239295452" fill="none" style="stroke-width: 3px;">
    <title>.id(nerve_feature_28)</title>
  </path>
  <path d="M 33.735 -1481.378 C 33.67 -1477.422 33.609 -1473.605 33.513 -1469.641 C 33.417 -1465.677 33.288 -1461.697 33.094 -1457.721 C 32.899 -1453.745 32.638 -1449.747 32.274 -1445.761 C 31.91 -1441.775 31.44 -1437.763 30.828 -1433.779 C 30.522 -1431.785 30.173 -1429.78 29.787 -1427.795 C 29.594 -1426.802 29.39 -1425.803 29.178 -1424.812 C 28.966 -1423.822 28.518 -1421.866 28.518 -1421.866 C 28.517 -1421.859 25.586 -1422.501 25.585 -1422.494 C 25.585 -1422.494 26.036 -1424.464 26.245 -1425.441 C 26.454 -1426.417 26.652 -1427.388 26.842 -1428.366 C 27.222 -1430.324 27.561 -1432.27 27.863 -1434.234 C 28.466 -1438.165 28.926 -1442.086 29.286 -1446.034 C 29.646 -1449.981 29.904 -1453.916 30.097 -1457.868 C 30.29 -1461.819 30.418 -1465.761 30.514 -1469.714 C 30.609 -1473.666 30.671 -1477.47 30.735 -1481.426 Z" style="fill: rgb(110, 1, 1); stroke: rgb(85, 145, 218);"/>
  <path d="M 13.340362163793055 -1451.5330233515924 C 11.040205103198165 -1449.446719860915, 8.772099917628776 -1447.38948827141, 6.471929523696868 -1445.3031726870418 C 4.171759129764961 -1443.2168571026737, 1.8715583679411403 -1441.1305139738217, -0.42862539977558733 -1439.044186259076" fill="none" style="stroke-width: 2px;">
    <title>.id(nerve_feature_29)</title>
  </path>
  <path d="M 14.012 -1450.792 C 11.712 -1448.706 9.444 -1446.649 7.144 -1444.562 C 5.994 -1443.519 4.844 -1442.476 3.694 -1441.433 C 3.118 -1440.911 2.543 -1440.39 1.968 -1439.868 C 1.393 -1439.347 0.243 -1438.303 0.243 -1438.303 C 0.243 -1438.303 -1.1 -1439.785 -1.1 -1439.785 C -1.1 -1439.785 0.05 -1440.828 0.625 -1441.35 C 1.2 -1441.871 1.775 -1442.393 2.35 -1442.914 C 3.5 -1443.958 4.65 -1445.001 5.8 -1446.044 C 8.1 -1448.13 10.368 -1450.187 12.669 -1452.274 Z" style="fill: rgb(110, 1, 1); stroke: rgb(85, 145, 218);"/>
  <path d="M 26.809329603084983 -1492.0510298000236 C 25.506221573309105 -1491.5067977373867, 23.820651498988223 -1490.8028336321056, 22.516853101278503 -1490.2583132431323 C 21.213054703568776 -1489.7137928541588, 19.907720186976043 -1489.168630918108, 18.603181393225206 -1488.623801308981 C 17.298642599474377 -1488.0789716998543, 15.993881678621301 -1487.5340493212182, 14.689256046611296 -1486.9891834448256" fill="none" style="stroke-width: 2px;">
    <title>.id(nerve_feature_30)</title>
  </path>
  <path d="M 26.424 -1492.974 C 26.424 -1492.974 25.025 -1492.39 24.278 -1492.078 C 23.531 -1491.765 22.783 -1491.453 22.131 -1491.181 C 20.828 -1490.637 19.522 -1490.091 18.218 -1489.547 C 16.913 -1489.002 15.609 -1488.457 14.304 -1487.912 L 15.075 -1486.066 C 16.379 -1486.611 17.684 -1487.156 18.989 -1487.701 C 20.293 -1488.246 21.598 -1488.791 22.902 -1489.336 C 23.554 -1489.608 24.301 -1489.92 25.049 -1490.232 C 25.796 -1490.544 27.195 -1491.128 27.195 -1491.128 C 27.195 -1491.128 26.424 -1492.974 26.424 -1492.974 Z" style="fill: rgb(110, 1, 1); stroke: rgb(85, 145, 218);"/>
  <path d="M 7.528990204784664 -1397.3748927440372 C 6.060323006518326 -1401.2502298417019, 4.663389086408839 -1405.1157735531467, 3.305615610516374 -1408.9749621795438 C 1.947842134623908 -1412.8341508059411, 0.6277119854265959 -1416.6873510464065, -0.6923824910894726 -1420.5404475968605" fill="none" style="stroke-width: 2px;">
    <title>.id(nerve_feature_31)</title>
  </path>
  <path d="M 6.594 -1397.021 C 5.123 -1400.903 3.721 -1404.78 2.362 -1408.643 C 1.683 -1410.575 1.012 -1412.506 0.347 -1414.434 C 0.015 -1415.398 -0.317 -1416.362 -0.648 -1417.326 C -0.978 -1418.29 -1.638 -1420.216 -1.638 -1420.216 C -1.638 -1420.216 0.254 -1420.865 0.253 -1420.865 C 0.253 -1420.865 0.914 -1418.938 1.244 -1417.975 C 1.575 -1417.012 1.906 -1416.049 2.238 -1415.086 C 2.902 -1413.16 3.571 -1411.235 4.249 -1409.307 C 5.605 -1405.452 6.998 -1401.597 8.464 -1397.729 Z" style="fill: rgb(110, 1, 1); stroke: rgb(85, 145, 218);"/>
  <path d="M 11.239797339981036 -1378.094796951706 C 11.152899708676106 -1378.5100178978073, 11.066090480197637 -1378.924816430723, 10.979192848702573 -1379.3400373777326 C 10.892295217207506 -1379.7552583247427, 10.805397585509617 -1380.1704792727219, 10.718499953824848 -1380.5857002206383" fill="none" style="stroke-width: 2px;">
    <title>.id(nerve_feature_32)</title>
  </path>
  <path d="M 10.261 -1377.89 C 10.174 -1378.305 10.087 -1378.72 10 -1379.135 C 9.914 -1379.55 9.74 -1380.381 9.74 -1380.381 C 9.74 -1380.381 11.697 -1380.791 11.697 -1380.791 C 11.697 -1380.791 11.871 -1379.96 11.958 -1379.545 C 12.045 -1379.13 12.132 -1378.715 12.219 -1378.3 Z" style="fill: rgb(110, 1, 1); stroke: rgb(85, 145, 218);"/>
  <path d="M 30.440288850197618 -1486.3164909615402 C 29.292179215506295 -1483.1667783554287, 28.15990953586077 -1480.0558676260916, 26.958876915567043 -1476.900065291082 C 25.757844295273316 -1473.7442629560724, 24.505428742502474 -1470.5793525491154, 23.095753299187592 -1467.409031812318 C 21.686077855872703 -1464.2387110755205, 20.119174908680158 -1461.0470779553095, 18.172025033341722 -1457.9156142663883 C 16.224875158003297 -1454.7841505774666, 13.797407138039034 -1451.7208677106705, 10.899219868926238 -1449.1237567045596 C 8.001032599813444 -1446.5266456984496, 4.848169911064087 -1444.3281905971694, 1.7265202279517422 -1442.136786551328" fill="none" style="stroke-width: 2px;">
    <title>.id(nerve_feature_33)</title>
  </path>
  <path d="M 31.38 -1485.974 C 30.232 -1482.825 29.097 -1479.707 27.893 -1476.544 C 26.69 -1473.382 25.428 -1470.192 24.009 -1467.003 C 22.592 -1463.815 20.995 -1460.561 19.021 -1457.388 C 17.044 -1454.208 14.528 -1451.033 11.567 -1448.379 C 10.095 -1447.06 8.547 -1445.833 6.994 -1444.676 C 6.218 -1444.098 5.432 -1443.53 4.649 -1442.973 C 3.866 -1442.416 2.306 -1441.322 2.306 -1441.322 C 2.303 -1441.32 1.15 -1442.954 1.147 -1442.952 C 1.147 -1442.952 2.712 -1444.05 3.489 -1444.603 C 4.266 -1445.155 5.035 -1445.71 5.799 -1446.28 C 7.328 -1447.419 8.805 -1448.59 10.232 -1449.868 C 13.067 -1452.409 15.406 -1455.36 17.323 -1458.444 C 19.244 -1461.533 20.78 -1464.662 22.182 -1467.815 C 23.583 -1470.967 24.826 -1474.106 26.024 -1477.256 C 27.223 -1480.405 28.353 -1483.509 29.501 -1486.659 Z" style="fill: rgb(110, 1, 1); stroke: rgb(85, 145, 218);"/>
  <path d="M 8.607445200558832 -1393.402495533859 C 9.216344789584733 -1395.7274217319534, 9.825120678934116 -1398.0523654175477, 10.43383369461076 -1400.37731796418 C 11.042546710287404 -1402.7022705108125, 11.651197363818717 -1405.0272318604143, 12.259848017171837 -1407.3521932093363" fill="none" style="stroke-width: 2px;">
    <title>.id(nerve_feature_34)</title>
  </path>
  <path d="M 9.575 -1393.149 C 9.575 -1393.149 10.184 -1395.474 10.488 -1396.637 C 10.792 -1397.799 11.097 -1398.962 11.401 -1400.124 C 12.01 -1402.449 12.619 -1404.774 13.227 -1407.099 L 11.292 -1407.605 C 10.684 -1405.28 10.075 -1402.956 9.466 -1400.631 C 9.162 -1399.468 8.858 -1398.306 8.553 -1397.143 C 8.249 -1395.981 7.64 -1393.656 7.64 -1393.656 C 7.64 -1393.656 9.575 -1393.149 9.575 -1393.149 Z" style="fill: rgb(110, 1, 1); stroke: rgb(85, 145, 218);"/>
  <path d="M 22.114033343643705 -1284.1120050702662 C 24.38612247474118 -1285.9436854067699, 26.674255940054177 -1287.7883001352802, 28.946345853035204 -1289.6199811021113 C 31.218435766016242 -1291.4516620689421, 33.49052748985973 -1293.2833444956286, 35.762618286677515 -1295.115026174979 C 38.03470908349529 -1296.9467078543294, 40.3068001194372 -1298.778389726453, 42.57889103296537 -1300.610071499891 C 44.850981946493555 -1302.4417532733291, 47.123072891598916 -1304.2734350722237, 49.395163820538166 -1306.105116858086 C 51.66725474947738 -1307.9367986439481, 53.93934568259107 -1309.7684804331757, 56.211436613560615 -1311.6001622206752 C 58.48352754453021 -1313.4318440081743, 60.75561847608764 -1315.2635257961476, 63.02770940729052 -1317.0952075838347" fill="none" style="stroke-width: 3px;">
    <title>.id(nerve_feature_35)</title>
  </path>
  <path d="M 23.055 -1282.944 C 23.055 -1282.944 25.332 -1284.779 26.472 -1285.698 C 27.612 -1286.617 28.752 -1287.536 29.888 -1288.452 C 32.16 -1290.284 34.432 -1292.116 36.704 -1293.947 C 38.976 -1295.779 41.248 -1297.611 43.52 -1299.442 C 45.792 -1301.274 48.065 -1303.106 50.337 -1304.937 C 52.609 -1306.769 54.881 -1308.601 57.153 -1310.432 C 59.425 -1312.264 61.697 -1314.096 63.969 -1315.927 L 62.086 -1318.263 C 59.814 -1316.431 57.542 -1314.6 55.27 -1312.768 C 52.998 -1310.936 50.726 -1309.105 48.454 -1307.273 C 46.182 -1305.441 43.91 -1303.61 41.637 -1301.778 C 39.365 -1299.946 37.093 -1298.115 34.821 -1296.283 C 32.549 -1294.451 30.277 -1292.619 28.005 -1290.788 C 26.869 -1289.872 25.729 -1288.953 24.589 -1288.034 C 23.449 -1287.115 21.173 -1285.28 21.173 -1285.28 C 21.173 -1285.28 23.055 -1282.944 23.055 -1282.944 Z" style="fill: rgb(110, 1, 1); stroke: rgb(85, 145, 218);"/>
  <path d="M 22.114033343643705 -1284.1120050702666 C 22.13783346245493 -1283.9182223383884, 22.161696460615147 -1283.723927637132, 22.185496605309602 -1283.5301446945102 C 22.20929675000404 -1283.3363617518883, 22.23309695370731 -1283.142578328811, 22.256897127567854 -1282.948795148716 C 22.280697301428404 -1282.7550119686211, 22.304497482809534 -1282.5612287272934, 22.328297660387246 -1282.3674455169332 C 22.35209783796497 -1282.1736623065726, 22.37589801650117 -1281.9798790884086, 22.399698194552634 -1281.786095874191 C 22.423498372604094 -1281.5923126599735, 22.447298550777713 -1281.3985294447612, 22.47109872888955 -1281.2047462300523 C 22.494898907001417 -1281.0109630153431, 22.518699085128826 -1280.8171798005076, 22.542499263248367 -1280.623396585736 C 22.566299441367892 -1280.4296133709643, 22.590099619489422 -1280.2358301561765, 22.61389979760994 -1280.042046941397 C 22.637699975730456 -1279.8482637266175, 22.661500153851243 -1279.6544805118356, 22.685300331971867 -1279.4606972970548" fill="none" style="stroke-width: 2px;">
    <title>.id(nerve_feature_36)</title>
  </path>
  <path d="M 23.107 -1284.234 C 23.13 -1284.04 23.154 -1283.846 23.178 -1283.652 C 23.202 -1283.458 23.226 -1283.264 23.249 -1283.071 C 23.273 -1282.877 23.297 -1282.683 23.321 -1282.489 C 23.345 -1282.296 23.368 -1282.102 23.392 -1281.908 C 23.416 -1281.714 23.44 -1281.52 23.464 -1281.327 C 23.487 -1281.133 23.511 -1280.939 23.535 -1280.745 C 23.559 -1280.552 23.583 -1280.358 23.606 -1280.164 C 23.63 -1279.97 23.678 -1279.583 23.678 -1279.583 C 23.678 -1279.583 21.693 -1279.339 21.693 -1279.339 C 21.693 -1279.339 21.645 -1279.726 21.621 -1279.92 C 21.598 -1280.114 21.574 -1280.308 21.55 -1280.501 C 21.526 -1280.695 21.502 -1280.889 21.479 -1281.083 C 21.455 -1281.277 21.431 -1281.47 21.407 -1281.664 C 21.383 -1281.858 21.36 -1282.052 21.336 -1282.246 C 21.312 -1282.439 21.288 -1282.633 21.264 -1282.827 C 21.241 -1283.021 21.217 -1283.214 21.193 -1283.408 C 21.169 -1283.602 21.145 -1283.796 21.122 -1283.99 Z" style="fill: rgb(110, 1, 1); stroke: rgb(85, 145, 218);"/>
  <path d="M 16.052259715378554 -1269.9044308964762 C 17.49799422802195 -1272.3587472901197, 18.920624387750486 -1274.773841135206, 20.36636056756766 -1277.228160359087 C 21.812096747384835 -1279.6824795829682, 23.257836754555317 -1282.1368053042625, 24.703574821742812 -1284.5911277321918 C 26.1493128889303 -1287.0454501601214, 27.595051447119204 -1289.4997734215883, 29.04078975642002 -1291.954096260536 C 30.486528065720837 -1294.4084190994838, 31.932266438075978 -1296.8627420454734, 33.378004778371796 -1299.3170649370388 C 34.82374311866761 -1301.7713878286045, 36.26948146756915 -1304.2257107347798, 37.71521981133839 -1306.6800336322422" fill="none" style="stroke-width: 2px;">
    <title>.id(nerve_feature_37)</title>
  </path>
  <path d="M 16.914 -1269.397 C 16.914 -1269.397 17.635 -1270.622 17.995 -1271.231 C 18.354 -1271.841 18.712 -1272.45 19.071 -1273.059 C 19.788 -1274.276 20.505 -1275.493 21.228 -1276.721 C 22.674 -1279.175 24.119 -1281.629 25.565 -1284.084 C 27.011 -1286.538 28.457 -1288.992 29.902 -1291.447 C 31.348 -1293.901 32.794 -1296.355 34.24 -1298.81 C 35.685 -1301.264 37.131 -1303.718 38.577 -1306.172 L 36.854 -1307.188 C 35.408 -1304.733 33.962 -1302.279 32.516 -1299.825 C 31.071 -1297.37 29.625 -1294.916 28.179 -1292.462 C 26.733 -1290.007 25.288 -1287.553 23.842 -1285.099 C 22.396 -1282.644 20.95 -1280.19 19.505 -1277.736 C 18.782 -1276.509 18.065 -1275.291 17.348 -1274.074 C 16.989 -1273.465 16.631 -1272.856 16.271 -1272.247 C 15.912 -1271.637 15.191 -1270.412 15.191 -1270.412 C 15.191 -1270.412 16.914 -1269.397 16.914 -1269.397 Z" style="fill: rgb(110, 1, 1); stroke: rgb(85, 145, 218);"/>
  <path d="M 16.05225971537856 -1269.9044308964762 C 17.619301736767 -1267.1387667950416, 19.191922613014142 -1264.3632566024369, 20.758971672514413 -1261.5975800794758 C 22.326020732014694 -1258.831903556515, 23.893085920121766 -1256.0661985682618, 25.460142919358802 -1253.300508032502 C 27.027199918595848 -1250.534817496742, 28.594258997017832 -1247.7691232914399, 30.161317019787806 -1245.003430949252 C 31.728375042557786 -1242.2377386070643, 33.29543333336208 -1239.472045791824, 34.86249148807888 -1236.706353216764 C 36.429549642795685 -1233.940660641704, 37.99660783206558 -1231.174968005661, 39.563666003792115 -1228.409275400581 C 41.13072417551867 -1225.6435827955008, 42.69778235169981 -1222.8778901825597, 44.264840525619114 -1220.11219757361 C 45.83189869953843 -1217.3465049646604, 47.39895687403252 -1214.5808123546956, 48.96601504823391 -1211.815119745248 C 50.53307322243532 -1209.0494271358004, 52.10013139671588 -1206.2837345262137, 53.66718957094884 -1203.5180419167102" fill="none" style="stroke-width: 2px;">
    <title>.id(nerve_feature_38)</title>
  </path>
  <path d="M 15.182 -1269.411 C 15.182 -1269.411 15.966 -1268.028 16.358 -1267.336 C 16.751 -1266.643 17.143 -1265.951 17.536 -1265.258 C 18.32 -1263.873 19.105 -1262.487 19.889 -1261.105 C 21.456 -1258.339 23.023 -1255.573 24.59 -1252.808 C 26.157 -1250.042 27.724 -1247.276 29.291 -1244.51 C 30.858 -1241.745 32.425 -1238.979 33.992 -1236.213 C 35.559 -1233.448 37.127 -1230.682 38.694 -1227.916 C 40.261 -1225.151 41.828 -1222.385 43.395 -1219.619 C 44.962 -1216.854 46.529 -1214.088 48.096 -1211.322 C 49.663 -1208.556 51.23 -1205.791 52.797 -1203.025 L 54.537 -1204.011 C 52.97 -1206.777 51.403 -1209.542 49.836 -1212.308 C 48.269 -1215.074 46.702 -1217.839 45.135 -1220.605 C 43.568 -1223.371 42.001 -1226.137 40.434 -1228.902 C 38.867 -1231.668 37.3 -1234.434 35.733 -1237.199 C 34.165 -1239.965 32.598 -1242.731 31.031 -1245.496 C 29.464 -1248.262 27.897 -1251.028 26.33 -1253.793 C 24.763 -1256.559 23.196 -1259.325 21.629 -1262.091 C 20.845 -1263.473 20.061 -1264.859 19.276 -1266.244 C 18.883 -1266.937 18.491 -1267.629 18.098 -1268.322 C 17.706 -1269.014 16.922 -1270.397 16.922 -1270.397 C 16.922 -1270.397 15.182 -1269.411 15.182 -1269.411 Z" style="fill: rgb(110, 1, 1); stroke: rgb(85, 145, 218);"/>
  <path d="M 28.550435059535694 -1073.6178139364729 C 25.933186298736626 -1072.6479690230863, 23.112297289547534 -1071.8981779726137, 20.106454190182372 -1071.38790838722 C 17.100611090817203 -1070.8776388018264, 13.94177353145977 -1070.574614786185, 10.70297619025751 -1070.402532631008 C 7.464178849055251 -1070.230450475831, 4.1444037260837945 -1070.1892148042768, 0.7911556333232141 -1070.210692568946 C -2.5620924594373653 -1070.232170333615, -5.950142889309095 -1070.3166005896398, -9.337556697049243 -1070.4008511917593" fill="none" style="stroke-width: 2px;">
    <title>.id(nerve_feature_39)</title>
  </path>
  <path d="M 28.898 -1072.68 C 26.235 -1071.696 23.325 -1070.92 20.274 -1070.402 C 17.232 -1069.886 14.016 -1069.577 10.756 -1069.404 C 7.497 -1069.231 4.147 -1069.189 0.785 -1069.211 C -0.897 -1069.221 -2.589 -1069.248 -4.281 -1069.282 C -5.127 -1069.3 -5.974 -1069.319 -6.821 -1069.339 C -7.668 -1069.359 -9.361 -1069.401 -9.361 -1069.401 C -9.362 -1069.401 -9.313 -1071.401 -9.314 -1071.401 C -9.314 -1071.401 -7.62 -1071.358 -6.774 -1071.338 C -5.928 -1071.318 -5.084 -1071.299 -4.24 -1071.282 C -2.553 -1071.248 -0.874 -1071.221 0.798 -1071.211 C 4.141 -1071.189 7.431 -1071.23 10.65 -1071.401 C 13.867 -1071.572 16.969 -1071.87 19.939 -1072.374 C 22.9 -1072.876 25.631 -1073.6 28.203 -1074.556 Z" style="fill: rgb(110, 1, 1); stroke: rgb(85, 145, 218);"/>
  <path d="M 26.809329603084983 -1492.0510298000236 C 26.39670168392287 -1491.5414310231272, 25.851615978919995 -1490.8682458224332, 25.438581556930334 -1490.358145011297 C 25.025547134940663 -1489.848044200161, 24.611648591212525 -1489.336876191774, 24.198183668361906 -1488.826243708635 C 23.784718745511295 -1488.3156112254962, 23.371140480687682 -1487.804838764115, 22.957628839803768 -1487.2941485838314" fill="none" style="stroke-width: 2px;">
    <title>.id(nerve_feature_40)</title>
  </path>
  <path d="M 27.587 -1491.422 C 27.174 -1490.912 26.629 -1490.239 26.216 -1489.729 C 25.803 -1489.219 25.389 -1488.708 24.975 -1488.197 C 24.562 -1487.686 23.735 -1486.665 23.735 -1486.665 C 23.735 -1486.665 22.18 -1487.923 22.18 -1487.923 C 22.18 -1487.923 23.008 -1488.945 23.421 -1489.456 C 23.834 -1489.966 24.248 -1490.477 24.661 -1490.987 C 25.074 -1491.498 25.62 -1492.171 26.032 -1492.68 Z" style="fill: rgb(110, 1, 1); stroke: rgb(85, 145, 218);"/>
  <path d="M 29.40296887324417 -1323.1040222184706 C 26.992887086369 -1320.0080829190763, 24.57873542745788 -1316.9069155494774, 22.168651849287574 -1313.8109739490237 C 19.758568271117266 -1310.7150323485705, 17.348480600495506 -1307.6190854910415, 14.938395002565253 -1304.5231412960477 C 12.528309404634998 -1301.4271971010542, 10.118223282455606 -1298.331252232621, 7.708137426593595 -1295.235307706294 C 5.298051570731593 -1292.1393631799672, 2.8879656435100616 -1289.0434185619738, 0.47787975880437616 -1285.947473998595" fill="none" style="stroke-width: 2px;">
    <title>.id(nerve_feature_41)</title>
  </path>
  <path d="M 30.192 -1322.49 C 27.782 -1319.394 25.368 -1316.293 22.958 -1313.197 C 20.548 -1310.101 18.138 -1307.005 15.727 -1303.909 C 13.317 -1300.813 10.907 -1297.717 8.497 -1294.621 C 7.292 -1293.073 6.087 -1291.525 4.882 -1289.977 C 4.28 -1289.203 3.677 -1288.429 3.075 -1287.655 C 2.472 -1286.881 1.267 -1285.333 1.267 -1285.333 C 1.267 -1285.333 -0.311 -1286.562 -0.311 -1286.562 C -0.311 -1286.562 0.894 -1288.11 1.496 -1288.884 C 2.099 -1289.658 2.701 -1290.432 3.304 -1291.206 C 4.509 -1292.754 5.714 -1294.302 6.919 -1295.85 C 9.329 -1298.946 11.739 -1302.041 14.149 -1305.137 C 16.559 -1308.233 18.969 -1311.329 21.38 -1314.425 C 23.79 -1317.521 26.204 -1320.622 28.614 -1323.718 Z" style="fill: rgb(110, 1, 1); stroke: rgb(85, 145, 218);"/>
  <path d="M 8.105486791159322 -1398.0081390261641 C 7.129296978606546 -1401.7105196400798, 6.152728695303266 -1405.414335674394, 5.176538881010757 -1409.116716294908 C 4.20034906671825 -1412.819096915422, 3.22415924836985 -1416.5214775513195, 2.247969432110074 -1420.2238581792951 C 1.2717796158502983 -1423.9262388072702, 0.29558979901491533 -1427.6286194374288, -0.6806000174722138 -1431.3310000662668" fill="none" style="stroke-width: 2px;">
    <title>.id(nerve_feature_42)</title>
  </path>
  <path d="M 7.139 -1397.753 C 6.162 -1401.456 5.186 -1405.159 4.21 -1408.862 C 3.233 -1412.564 2.257 -1416.267 1.281 -1419.969 C 0.793 -1421.82 0.305 -1423.671 -0.183 -1425.522 C -0.427 -1426.448 -0.671 -1427.374 -0.915 -1428.299 C -1.159 -1429.225 -1.648 -1431.076 -1.648 -1431.076 C -1.648 -1431.076 0.286 -1431.586 0.286 -1431.586 C 0.286 -1431.586 0.774 -1429.735 1.019 -1428.809 C 1.263 -1427.884 1.507 -1426.958 1.751 -1426.032 C 2.239 -1424.181 2.727 -1422.33 3.215 -1420.479 C 4.191 -1416.776 5.167 -1413.074 6.143 -1409.372 C 7.12 -1405.669 8.096 -1401.965 9.072 -1398.263 Z" style="fill: rgb(110, 1, 1); stroke: rgb(85, 145, 218);"/>
  <path d="M 12.689313638155543 -1254.928021407744 C 11.453638369517568 -1258.4318331995048, 10.216526983063547 -1261.9397171667529, 8.980851689812651 -1265.4435290283047 C 7.745176396561758 -1268.947340889857, 6.509501046259501 -1272.4511529131805, 5.273825725219818 -1275.954964853529 C 4.038150404180133 -1279.4587767938774, 2.802475075141105 -1282.9625887569082, 1.566799750919926 -1286.466400706278" fill="none" style="stroke-width: 2px;">
    <title>.id(nerve_feature_43)</title>
  </path>
  <path d="M 13.632 -1255.261 C 13.632 -1255.261 13.014 -1257.013 12.705 -1257.889 C 12.396 -1258.765 12.087 -1259.642 11.778 -1260.518 C 11.16 -1262.271 10.542 -1264.024 9.924 -1265.776 C 8.688 -1269.28 7.453 -1272.784 6.217 -1276.288 C 4.981 -1279.791 3.746 -1283.295 2.51 -1286.799 L 0.624 -1286.134 C 1.859 -1282.63 3.095 -1279.126 4.331 -1275.622 C 5.566 -1272.119 6.802 -1268.615 8.038 -1265.111 C 8.656 -1263.359 9.274 -1261.606 9.892 -1259.853 C 10.201 -1258.977 10.51 -1258.1 10.819 -1257.224 C 11.128 -1256.348 11.746 -1254.595 11.746 -1254.595 C 11.746 -1254.595 13.632 -1255.261 13.632 -1255.261 Z" style="fill: rgb(110, 1, 1); stroke: rgb(85, 145, 218);"/>
  <path d="M 11.031821628757651 -1388.768631912562 C 10.736390134017805 -1388.2992057955337, 10.441217834557136 -1387.8301915270577, 10.145786269496917 -1387.360765298294 C 9.8503547044367 -1386.8913390695302, 9.554923061248102 -1386.4219127166243, 9.259491425847498 -1385.9524863760928" fill="none" style="stroke-width: 2px;">
    <title>.id(nerve_feature_44)</title>
  </path>
  <path d="M 8.413 -1386.485 C 8.709 -1386.955 9.004 -1387.424 9.299 -1387.893 C 9.595 -1388.363 10.185 -1389.301 10.185 -1389.301 C 10.185 -1389.301 11.878 -1388.236 11.878 -1388.236 C 11.878 -1388.236 11.288 -1387.298 10.992 -1386.828 C 10.697 -1386.359 10.401 -1385.889 10.106 -1385.42 Z" style="fill: rgb(110, 1, 1); stroke: rgb(85, 145, 218);"/>
  <path d="M 21.11238772069403 -1508.391292311859 C 21.479266329676065 -1504.785730149753, 21.846144938658096 -1501.1801679876469, 22.213023547640127 -1497.5746058255406 C 22.579902156622165 -1493.969043663435, 26.915248406548205 -1493.1355086606711, 28.859254976129222 -1489.6045799483522 C 30.803261545710235 -1486.073651236033, 32.286482868947544 -1481.6043186881857, 33.34530805038268 -1477.535445817806 C 34.40413323181779 -1473.4665729474264, 35.171331634021584 -1469.3095359483855, 35.643487272014966 -1465.172082805709 C 36.11564291000837 -1461.0346296630323, 36.285956037355895 -1456.8616510327186, 36.21070731027149 -1452.6781081883157 C 36.13545858318708 -1448.494565343913, 35.75298833790334 -1444.3537186298443, 35.20428142391016 -1440.1823971009508 C 34.655574509916974 -1436.0110755720561, 33.862575829202484 -1431.7963288705826, 32.89860593462863 -1427.6242736651225 C 31.934636040054766 -1423.452218459663, 30.86751483303816 -1419.2914363147675, 29.787364258569955 -1415.1370456825869 C 28.707213684101745 -1410.9826550504067, 27.606888977770964 -1406.8359540076433, 26.547756796583123 -1402.7053846745619 C 25.488624615395274 -1398.5748153414809, 24.475592795152853 -1394.4409505988904, 23.690094533517808 -1390.2984812211662 C 22.904596271882774 -1386.1560118434415, 22.372375028021793 -1382.006741423869, 22.25665492190636 -1377.887305472112 C 22.140934815790928 -1373.7678695203551, 22.367728780336925 -1369.695015306589, 22.794362904897305 -1365.6730102257268 C 23.220997029457678 -1361.651005144865, 23.849967553948662 -1357.6785396520645, 24.611426706315793 -1353.7391493361492 C 25.372885858682935 -1349.7997590202335, 26.260314537520927 -1345.8900453458502, 27.051761384462825 -1341.9337829986232 C 27.843208231404702 -1337.977520651396, 28.507650607804038 -1333.9578711156928, 28.923245786623415 -1329.888072739492 C 29.3388409654428 -1325.8182743632913, 29.537770771590964 -1321.7068028898123, 29.455876607211298 -1317.5696303019718 C 29.373982442831622 -1313.4324577141317, 28.97397116256265 -1309.2033817872946, 28.214079222756258 -1305.0490356005541 C 27.454187282949874 -1300.8946894138132, 26.393949768683306 -1296.844914286611, 25.237314500696066 -1293.0694026688388 C 24.08067923270881 -1289.293891051067, 22.818627333266978 -1285.7756136895882, 21.58503643149739 -1282.8110500774242 C 20.351445529727805 -1279.8464864652597, 19.154029239670713 -1277.383763671018, 18.052931742317003 -1274.9055779979017 C 16.9518342449633 -1272.4273923247858, 15.945711320878976 -1269.8751189470738, 15.092941063954079 -1266.8715125200733 C 14.240170807029187 -1263.8679060930724, 13.52116647850848 -1260.5573131759072, 12.969720534937684 -1256.9349780964387 C 12.418274591366881 -1253.3126430169705, 12.077596853743707 -1249.3436798342989, 11.818574157391119 -1245.2353607319337 C 11.559551461038533 -1241.1270416295688, 11.373863152597334 -1236.879710619173, 11.187059694916593 -1232.6032972509747 C 11.000256237235845 -1228.3268838827769, 10.82597136406178 -1224.039388103151, 10.663881709617288 -1219.8709542547388 C 10.501792055172796 -1215.7025204063268, 10.352059892534495 -1211.658153558559, 10.22002016905189 -1207.7022885718027 C 10.087980445569286 -1203.7464235850466, 9.997670513107948 -1199.8825160344904, 9.879376457266577 -1196.028083868315 C 9.761082401425199 -1192.1736517021395, 9.574484896819627 -1188.29439111499, 9.032632784333957 -1184.2764237827 C 8.490780671848292 -1180.25845645041, 7.667200935066375 -1176.1564395502194, 6.75793523777389 -1172.0486318742328 C 5.848669540481403 -1167.9408241982464, 4.825651636497637 -1163.8114213065667, 4.018230192766473 -1159.697252158614 C 3.2108087490353068 -1155.5830830106613, 2.674960413537643 -1151.4841986947442, 2.582701279378199 -1147.561476380019 C 2.4904421452187546 -1143.6387540652938, 2.8962547338863964 -1139.9673072110857, 3.760005939336355 -1136.641405918134 C 4.623757144786314 -1133.3155046251827, 5.899326395255151 -1130.042390806444, 7.6570576713793415 -1126.668042554449 C 9.414788947503531 -1123.2936943024538, 11.74405425293551 -1119.830303932391, 14.333066823735152 -1116.5895465368203 C 16.92207939453479 -1113.3487891412492, 19.68001050729718 -1110.503735628405, 22.35858308875632 -1107.841402687522 C 25.037155670215476 -1105.1790697466395, 27.663517252145382 -1102.5739968035903, 30.22195963949877 -1099.7439283918718 C 32.78040202685215 -1096.9138599801536, 34.9762649397776 -1094.4939301379827, 37.48670153135632 -1092.1013736972557 C 39.99713812293504 -1089.7088172565288, 43.00598958633148 -1087.2077057974723, 45.814032618727886 -1084.819826135712 C 48.6220756511243 -1082.4319464739517, 50.95582044825029 -1080.3317214176818, 53.21606222333353 -1078.2930385988232" fill="none" style="stroke-width: 5px;">
    <title>.id(nerve_feature_48)</title>
  </path>
  <path d="M 18.625 -1508.138 C 18.625 -1508.138 18.992 -1504.533 19.176 -1502.73 C 19.359 -1500.927 19.542 -1499.124 19.726 -1497.322 C 19.992 -1494.706 21.93 -1492.775 23.381 -1491.611 C 24.82 -1490.457 25.965 -1489.678 26.669 -1488.399 C 28.504 -1485.067 29.888 -1480.895 30.926 -1476.906 C 31.962 -1472.924 32.697 -1468.941 33.16 -1464.889 C 33.621 -1460.842 33.785 -1456.833 33.711 -1452.723 C 33.638 -1448.632 33.268 -1444.632 32.726 -1440.508 C 32.186 -1436.405 31.415 -1432.309 30.463 -1428.187 C 29.506 -1424.044 28.447 -1419.917 27.368 -1415.766 C 26.289 -1411.618 25.188 -1407.467 24.126 -1403.326 C 23.064 -1399.183 22.032 -1394.972 21.234 -1390.764 C 20.434 -1386.548 19.877 -1382.201 19.758 -1377.958 C 19.639 -1373.734 19.875 -1369.494 20.308 -1365.409 C 20.742 -1361.324 21.387 -1357.246 22.157 -1353.265 C 22.926 -1349.286 23.815 -1345.368 24.6 -1341.443 C 25.384 -1337.528 26.028 -1333.627 26.436 -1329.634 C 26.845 -1325.631 27.037 -1321.671 26.956 -1317.619 C 26.876 -1313.575 26.495 -1309.547 25.755 -1305.499 C 25.012 -1301.437 23.989 -1297.528 22.847 -1293.802 C 21.708 -1290.083 20.487 -1286.679 19.277 -1283.772 C 18.071 -1280.874 16.887 -1278.438 15.768 -1275.921 C 14.646 -1273.394 13.574 -1270.677 12.688 -1267.554 C 11.814 -1264.475 11.061 -1261.011 10.498 -1257.311 C 9.934 -1253.608 9.584 -1249.529 9.324 -1245.393 C 9.063 -1241.26 8.876 -1236.989 8.689 -1232.712 C 8.502 -1228.432 8.328 -1224.139 8.166 -1219.968 C 8.004 -1215.797 7.854 -1211.746 7.721 -1207.786 C 7.589 -1203.817 7.499 -1199.95 7.381 -1196.105 C 7.263 -1192.272 7.083 -1188.522 6.555 -1184.611 C 6.024 -1180.672 5.221 -1176.673 4.317 -1172.589 C 3.414 -1168.512 2.384 -1164.353 1.565 -1160.179 C 0.742 -1155.986 0.179 -1151.676 0.083 -1147.62 C -0.013 -1143.531 0.431 -1139.513 1.34 -1136.013 C 2.241 -1132.545 3.619 -1129.008 5.44 -1125.513 C 7.262 -1122.015 9.727 -1118.35 12.38 -1115.029 C 15.043 -1111.695 17.901 -1108.747 20.596 -1106.068 C 23.276 -1103.405 25.855 -1100.847 28.367 -1098.067 C 30.927 -1095.236 33.186 -1092.747 35.762 -1090.292 C 38.334 -1087.841 41.397 -1085.294 44.195 -1082.915 C 46.976 -1080.55 49.282 -1078.474 51.542 -1076.437 L 54.89 -1080.149 C 52.629 -1082.189 50.268 -1084.314 47.434 -1086.724 C 44.615 -1089.121 41.661 -1091.577 39.211 -1093.911 C 36.767 -1096.241 34.633 -1098.592 32.076 -1101.42 C 29.472 -1104.301 26.799 -1106.953 24.121 -1109.615 C 21.459 -1112.261 18.801 -1115.003 16.286 -1118.15 C 13.761 -1121.311 11.568 -1124.572 9.874 -1127.823 C 8.179 -1131.077 7.007 -1134.086 6.18 -1137.27 C 5.361 -1140.422 4.994 -1143.746 5.082 -1147.503 C 5.171 -1151.293 5.679 -1155.18 6.471 -1159.216 C 7.267 -1163.27 8.283 -1167.37 9.199 -1171.508 C 10.113 -1175.64 10.958 -1179.845 11.51 -1183.942 C 12.066 -1188.067 12.259 -1192.075 12.378 -1195.951 C 12.497 -1199.815 12.587 -1203.676 12.719 -1207.619 C 12.85 -1211.57 13 -1215.608 13.162 -1219.774 C 13.324 -1223.94 13.498 -1228.222 13.685 -1232.494 C 13.871 -1236.771 14.056 -1240.994 14.314 -1245.078 C 14.571 -1249.158 14.902 -1253.017 15.441 -1256.559 C 15.981 -1260.104 16.667 -1263.261 17.498 -1266.189 C 18.317 -1269.074 19.258 -1271.461 20.338 -1273.891 C 21.421 -1276.329 22.632 -1278.819 23.893 -1281.851 C 25.151 -1284.873 26.454 -1288.505 27.628 -1292.337 C 28.799 -1296.162 29.896 -1300.353 30.673 -1304.599 C 31.453 -1308.86 31.872 -1313.29 31.955 -1317.52 C 32.039 -1321.742 31.833 -1326.006 31.41 -1330.142 C 30.987 -1334.289 30.303 -1338.427 29.503 -1342.424 C 28.705 -1346.412 27.82 -1350.314 27.066 -1354.214 C 26.313 -1358.111 25.7 -1361.979 25.28 -1365.937 C 24.86 -1369.897 24.643 -1373.802 24.756 -1377.817 C 24.868 -1381.812 25.375 -1385.764 26.146 -1389.833 C 26.919 -1393.91 27.914 -1397.967 28.969 -1402.084 C 30.026 -1406.205 31.125 -1410.348 32.207 -1414.508 C 33.288 -1418.666 34.364 -1422.86 35.334 -1427.061 C 36.31 -1431.284 37.125 -1435.617 37.683 -1439.856 C 38.238 -1444.076 38.633 -1448.357 38.71 -1452.633 C 38.787 -1456.89 38.61 -1461.228 38.127 -1465.456 C 37.645 -1469.678 36.846 -1474.009 35.765 -1478.165 C 34.685 -1482.314 33.103 -1487.08 31.049 -1490.81 C 29.81 -1493.062 27.814 -1494.465 26.508 -1495.512 C 25.214 -1496.55 24.801 -1496.838 24.7 -1497.828 C 24.517 -1499.63 24.333 -1501.433 24.15 -1503.236 C 23.966 -1505.039 23.6 -1508.644 23.6 -1508.644 Z" style="fill: rgb(1, 19, 110); stroke: rgb(186, 218, 85);"/>
  <circle cx="32.89654483537752" cy="-1096.8064755126559" r="1" fill="orange">
    <title>.id(marker_189)</title>
  </circle>
  <circle cx="3.180290805546237" cy="-1139.3015828620173" r="1" fill="orange">
    <title>.id(marker_190)</title>
  </circle>
  <circle cx="22.0518531419448" cy="-1283.956012117795" r="1" fill="orange">
    <title>.id(marker_191)</title>
  </circle>
  <circle cx="29.404102787124874" cy="-1323.0741143938455" r="1" fill="orange">
    <title>.id(marker_192)</title>
  </circle>
  <circle cx="28.437986635859513" cy="-1333.8782206586247" r="1" fill="orange">
    <title>.id(marker_193)</title>
  </circle>
  <circle cx="27.86177567395428" cy="-1407.7734203959965" r="1" fill="orange">
    <title>.id(marker_194)</title>
  </circle>
  <circle cx="35.659334731580685" cy="-1444.0251398848711" r="1" fill="orange">
    <title>.id(marker_195)</title>
  </circle>
  <circle cx="35.14561832610292" cy="-1439.743114375057" r="1" fill="orange">
    <title>.id(marker_196)</title>
  </circle>
  <circle cx="36.083830555252554" cy="-1449.2701417493327" r="1" fill="orange">
    <title>.id(marker_197)</title>
  </circle>
  <circle cx="35.65432626660681" cy="-1465.0766264636618" r="1" fill="orange">
    <title>.id(marker_198)</title>
  </circle>
  <circle cx="29.356162232562276" cy="-1488.66265867177" r="1" fill="orange">
    <title>.id(marker_199)</title>
  </circle>
  <circle cx="22.367005642921068" cy="-1496.7832515736056" r="1" fill="orange">
    <title>.id(marker_200)</title>
  </circle>
  <circle cx="15.998463943708895" cy="-1269.749630471106" r="1" fill="orange">
    <title>.id(marker_201)</title>
  </circle>
  <circle cx="30.45128442785951" cy="-1486.2905083635737" r="1" fill="orange">
    <title>.id(marker_202)</title>
  </circle>
</svg>