<svg width="1000" height="1000" xmlns="http://www.w3.org/2000/svg">
  <g>
    <title id="title1">.id(group_1_name)</title>
    <path d="M 42.48404292007548 172.1088926297768 C 42.48312100950354 175.58501082886224, 37.600903788697615 181.63748569148692, 36.07674729030246 184.6627982823315" stroke="blue" fill-opacity="0.0"/>
    <path d="M 36.07674729030246 184.6627982823315 C 34.5525907919073 187.68811087317607, 28.690859512638596 194.07684913570506, 27.71389761797711 196.0356109088224" stroke="blue" fill-opacity="0.0"/>
  </g>
  <g>
    <title id="title2">.id(group_2_name)</title>
    <path d="M 39.12237212197809 188.7155853059302 C 40.3601125180598 189.31829398733296, 40.2128260132111 192.64761177691545, 39.85194317973482 194.6192606903532" stroke="blue" fill-opacity="0.0"/>
    <path d="M 39.85194317973482 194.6192606903532 C 39.491060346258536 196.59090960379095, 38.502203858920794 199.5688336387437, 39.15950778525585 199.0006357395466" stroke="blue" fill-opacity="0.0"/>
  </g>
  <g>
    <title id="title3">.id(group_3_name)</title>
    <path d="M -2.677721568309413 -9.416455186625116 C 0.0009730312972169308 -5.950351259606066, 2.2674803773018297 -4.779427854776629, 2.865861633451416 -3.735006697941357" stroke="blue" fill-opacity="0.0"/>
    <path d="M 2.865861633451416 -3.735006697941357 C 3.4642428896010022 -2.690585541106085, 1.2864131092300273 0.11660788841276526, -1.059482688689093 4.010091201411122" stroke="blue" fill-opacity="0.0"/>
    <path d="M -1.059482688689093 4.010091201411122 C -1.7790266403560095 7.709089173711291, -6.152020722785406 13.300408018726163, -7.831808644861983 14.19887027305466" stroke="blue" fill-opacity="0.0"/>
    <path d="M -7.831808644861983 14.19887027305466 C -9.511596566938561 15.097332527383156, -14.14777252544097 17.479905033193045, -18.11117440478317 16.95969970226012" stroke="blue" fill-opacity="0.0"/>
  </g>
  <g>
    <title id="title4">.id(group_4_name)</title>
    <path d="M -1.059482688689093 4.010091201411122 C -1.8077993796856973 8.348095255862617, -2.571522039119521 13.15046069335159, -4.395282445784593 16.90495144851586" stroke="blue" fill-opacity="0.0"/>
    <path d="M -4.395282445784593 16.90495144851586 C -6.2190428524496655 20.65944220368013, -7.818890863418958 25.281537056666387, -9.989840146093007 28.9993488322789" stroke="blue" fill-opacity="0.0"/>
  </g>
  <g>
    <title id="title5">.id(group_5_name)</title>
    <path d="M -45.42283218243054 -223.1414195176321 C -45.978082101423354 -222.13586798822482, -46.971470324936305 -221.1112324947828, -48.35274466435018 -220.1581572649559" stroke="blue" fill-opacity="0.0"/>
    <path d="M -48.35274466435018 -220.1581572649559 C -49.73401900376406 -219.20508203512898, -51.524459431709964 -219.13874347554943, -53.66645283568611 -217.7609588922009" stroke="blue" fill-opacity="0.0"/>
    <path d="M -53.66645283568611 -217.7609588922009 C -55.80844623966225 -216.38317430885238, -58.159005203625384 -215.20168968672135, -59.4021770188541 -212.7849080180832" stroke="blue" fill-opacity="0.0"/>
    <path d="M -59.4021770188541 -212.7849080180832 C -60.64534883408281 -210.36812634944505, -60.14412578198575 -208.00583217804189, -60.42816705459042 -204.9850341509452" stroke="blue" fill-opacity="0.0"/>
    <path d="M -60.42816705459042 -204.9850341509452 C -60.712208327195086 -201.96423612384854, -60.97197213528209 -198.56003455606367, -61.01425085005793 -194.7974442749308" stroke="blue" fill-opacity="0.0"/>
    <path d="M -61.01425085005793 -194.7974442749308 C -61.05652956483377 -191.03485399379792, -60.96895962464696 -186.07920175766435, -60.57899072076137 -182.5265017804065" stroke="blue" fill-opacity="0.0"/>
    <path d="M -60.57899072076137 -182.5265017804065 C -60.18902181687577 -178.97380180314866, -59.46418510600091 -176.13063651120942, -58.90699548192017 -173.5243076483994" stroke="blue" fill-opacity="0.0"/>
    <path d="M -58.90699548192017 -173.5243076483994 C -58.34980585783943 -170.91797878558938, -57.830566476286734 -168.8387157470372, -57.29997279857007 -166.8894944839903" stroke="blue" fill-opacity="0.0"/>
    <path d="M -57.29997279857007 -166.8894944839903 C -56.7693791208534 -164.94027322094337, -56.28708753239428 -163.37199417378753, -55.76544734996015 -161.8217423703076" stroke="blue" fill-opacity="0.0"/>
    <path d="M -55.76544734996015 -161.8217423703076 C -55.243807167526015 -160.27149056682765, -55.49755993801536 -160.62534497572517, -54.20243385356487 -157.6014810149331" stroke="blue" fill-opacity="0.0"/>
    <path d="M -54.20243385356487 -157.6014810149331 C -52.90730776911438 -154.57761705414106, -50.24717124818786 -149.07515470686963, -47.51222053197002 -143.9091447776255" stroke="blue" fill-opacity="0.0"/>
    <path d="M -47.51222053197002 -143.9091447776255 C -44.777269815752184 -138.74313484838137, -41.11266553584234 -133.2697218477053, -37.68018855932014 -126.7038469014205" stroke="blue" fill-opacity="0.0"/>
    <path d="M -37.68018855932014 -126.7038469014205 C -34.24771158279795 -120.1379719551357, -29.63565180558524 -112.99009510106323, -27.1656425864602 -104.5868633305504" stroke="blue" fill-opacity="0.0"/>
    <path d="M -27.1656425864602 -104.5868633305504 C -24.695633367335162 -96.18363156003757, -24.175686007995612 -84.947928923416, -23.66898066729149 -76.90717320148816" stroke="blue" fill-opacity="0.0"/>
    <path d="M -23.66898066729149 -76.90717320148816 C -23.162275326587366 -68.86641747956033, -24.00654834337665 -62.00033278441563, -23.66150455445965 -56.53120916434525" stroke="blue" fill-opacity="0.0"/>
    <path d="M -23.66150455445965 -56.53120916434525 C -23.31646076554265 -51.062085544274865, -23.237570362089276 -49.2443856184065, -22.10592704592882 -44.18526235117189" stroke="blue" fill-opacity="0.0"/>
    <path d="M -22.10592704592882 -44.18526235117189 C -20.974283729768363 -39.12613908393729, -19.662988722522083 -32.72791308255542, -16.38282822805274 -26.57333832537684" stroke="blue" fill-opacity="0.0"/>
    <path d="M -16.38282822805274 -26.57333832537684 C -13.102667733583399 -20.418763568198262, -7.4548766979954 -14.002596307359493, -2.677721568309413 -9.416455186625116" stroke="blue" fill-opacity="0.0"/>
    <path d="M -2.677721568309413 -9.416455186625116 C 2.099433561376574 -4.8303140658907395, 7.039653237559443 -3.6386950639270053, 11.17743621351351 -0.04100470489893882" stroke="blue" fill-opacity="0.0"/>
    <path d="M 11.17743621351351 -0.04100470489893882 C 15.315219189467577 3.5566856541291276, 18.80927991407805 6.836527115926681, 21.99345894982134 11.67015296920657" stroke="blue" fill-opacity="0.0"/>
    <path d="M 21.99345894982134 11.67015296920657 C 25.177637985564626 16.50377882248646, 27.629622696993827 22.63586649297, 29.82579030336403 28.16608505082906" stroke="blue" fill-opacity="0.0"/>
    <path d="M 29.82579030336403 28.16608505082906 C 32.02195790973423 33.696303608688126, 33.358304618997835 38.01810445611587, 35.01693734813467 44.03473718918477" stroke="blue" fill-opacity="0.0"/>
    <path d="M 35.01693734813467 44.03473718918477 C 36.6755700772715 50.05136992225366, 38.23233744848883 57.979276034448375, 39.40948576505079 63.69161832467879" stroke="blue" fill-opacity="0.0"/>
    <path d="M 39.40948576505079 63.69161832467879 C 40.58663408161275 69.40396061490921, 40.69636189863903 73.4784295849358, 42.15587689960709 78.28149943558894" stroke="blue" fill-opacity="0.0"/>
    <path d="M 42.15587689960709 78.28149943558894 C 43.61539190057514 83.08456928624209, 45.91217533579922 87.52927654903795, 48.04142366132913 92.24895164482786" stroke="blue" fill-opacity="0.0"/>
    <path d="M 48.04142366132913 92.24895164482786 C 50.170671986859034 96.96862674061776, 53.31761461659397 102.02323101138016, 54.92232255987787 106.546155956428" stroke="blue" fill-opacity="0.0"/>
    <path d="M 54.92232255987787 106.546155956428 C 56.52703050316177 111.06908090147583, 57.56375972378117 115.13479134908266, 57.84259292637057 119.0589199730022" stroke="blue" fill-opacity="0.0"/>
    <path d="M 57.84259292637057 119.0589199730022 C 58.121426128959975 122.98304859692175, 57.36261400746428 126.23550452162358, 56.79474072902764 129.7023560605953" stroke="blue" fill-opacity="0.0"/>
    <path d="M 56.79474072902764 129.7023560605953 C 56.226867450590994 133.16920759956702, 55.587674246667035 136.07801238774564, 54.53745523436532 139.6736021570024" stroke="blue" fill-opacity="0.0"/>
    <path d="M 54.53745523436532 139.6736021570024 C 53.4872362220636 143.26919192625914, 51.89452992140075 147.3249173018942, 50.57380037348249 150.771728084198" stroke="blue" fill-opacity="0.0"/>
    <path d="M 50.57380037348249 150.771728084198 C 49.25307082556423 154.2185388665018, 48.03078966341933 156.8894131106905, 47.03369325456278 159.2800386806214" stroke="blue" fill-opacity="0.0"/>
    <path d="M 47.03369325456278 159.2800386806214 C 46.03659684570623 161.6706642505523, 45.355297489382025 162.95612884820986, 44.5898054775676 165.1243079317414" stroke="blue" fill-opacity="0.0"/>
    <path d="M 44.5898054775676 165.1243079317414 C 43.82431346575318 167.29248701527297, 43.11464595958683 169.651054209331, 42.48404292007548 172.1088926297768" stroke="blue" fill-opacity="0.0"/>
    <path d="M 42.48404292007548 172.1088926297768 C 41.06261541984103 177.25228071696384, 39.27870312923152 185.1994310283673, 39.12237212197809 188.7155853059302" stroke="blue" fill-opacity="0.0"/>
    <path d="M 39.12237212197809 188.7155853059302 C 38.96604111472465 192.23173958349312, 37.2698486321739 199.4025787173217, 36.0938746379065 204.1148555860648" stroke="blue" fill-opacity="0.0"/>
  </g>
  <circle cx="-54.48574672523452" cy="-217.4468373477697" r="3" fill="orange">
    <title id="title6">.id(marker_1)</title>
  </circle>
  <circle cx="-60.31772030640948" cy="-206.450704388271" r="3" fill="orange">
    <title id="title7">.id(marker_2)</title>
  </circle>
  <circle cx="-60.60067819563896" cy="-182.351939939007" r="3" fill="orange">
    <title id="title8">.id(marker_3)</title>
  </circle>
  <circle cx="-57.26641991666243" cy="-166.8948697874121" r="3" fill="orange">
    <title id="title9">.id(marker_4)</title>
  </circle>
  <circle cx="-55.95010857528311" cy="-162.1880128628004" r="3" fill="orange">
    <title id="title10">.id(marker_5)</title>
  </circle>
  <circle cx="-54.299444946338" cy="-157.7966435169104" r="3" fill="orange">
    <title id="title11">.id(marker_6)</title>
  </circle>
  <circle cx="-38.87576039800445" cy="-128.7008274767139" r="3" fill="orange">
    <title id="title12">.id(marker_7)</title>
  </circle>
  <circle cx="-23.43106638766022" cy="-55.30858794901977" r="3" fill="orange">
    <title id="title13">.id(marker_8)</title>
  </circle>
  <circle cx="-22.13899313081064" cy="-44.55676287499519" r="3" fill="orange">
    <title id="title14">.id(marker_9)</title>
  </circle>
  <circle cx="-2.563170211794949" cy="-9.039475083815987" r="3" fill="orange">
    <title id="title15">.id(marker_10)</title>
  </circle>
  <circle cx="10.96420480065844" cy="-0.2245544668334079" r="3" fill="orange">
    <title id="title16">.id(marker_11)</title>
  </circle>
  <circle cx="57.82605306519208" cy="122.7746018311782" r="3" fill="orange">
    <title id="title17">.id(marker_12)</title>
  </circle>
  <circle cx="42.39272491634625" cy="172.2986832771489" r="3" fill="orange">
    <title id="title18">.id(marker_13)</title>
  </circle>
</svg>