<?xml version="1.0" ?>
<svg xmlns="http://www.w3.org/2000/svg" width="1000" height="1000" viewBox="-289 -60 461 169">
	<circle style="fill: rgb(216, 216, 216);" cx="48.646495761524264" cy="-21.87149678581937" r="0.9054">
		<title>.id(point_01)</title>
	</circle>
	<circle style="fill: rgb(216, 216, 216);" cx="50.91328190302707" cy="-29.986659035605765" r="0.9054">
		<title>.id(point_02)</title>
	</circle>
	<circle style="fill: rgb(216, 216, 216);" cx="62.90709469713359" cy="-22.26750683470393" r="0.9054">
		<title>.id(point_03)</title>
	</circle>
	<circle style="fill: rgb(216, 216, 216);" cx="150.73144137853996" cy="-20.86298429990918" r="0.9054">
		<title>.id(point_04)</title>
	</circle>
	<circle style="fill: rgb(216, 216, 216);" cx="160.9012721371414" cy="-26.138432278962515" r="0.9054">
		<title>.id(point_05)</title>
	</circle>
	<circle style="fill: rgb(216, 216, 216);" cx="158.2474150945062" cy="-30.648218211767595" r="0.9054">
		<title>.id(point_06)</title>
	</circle>
	<circle style="fill: rgb(216, 216, 216);" cx="151.85883167810638" cy="-22.54925561654781" r="0.9054">
		<title>.id(point_07)</title>
	</circle>
	<circle style="fill: rgb(216, 216, 216);" cx="157.3193341046635" cy="-24.57488320462329" r="0.9054">
		<title>.id(point_08)</title>
	</circle>
	<circle style="fill: rgb(216, 216, 216);" cx="-256.92941443140205" cy="61.576974326313284" r="0.9054">
		<title>.id(point_09)</title>
	</circle>
	<circle style="fill: rgb(216, 216, 216);" cx="-96.9623290319182" cy="41.200789783863655" r="0.9054">
		<title>.id(point_10)</title>
	</circle>
	<circle style="fill: rgb(216, 216, 216);" cx="-229.59091915113265" cy="40.40529626659729" r="0.9054">
		<title>.id(point_11)</title>
	</circle>
	<circle style="fill: rgb(216, 216, 216);" cx="147.87939227237752" cy="-20.555575445800244" r="0.9054">
		<title>.id(point_12)</title>
	</circle>
	<circle style="fill: rgb(216, 216, 216);" cx="-233.8286791465933" cy="47.92682178925153" r="0.9054">
		<title>.id(point_13)</title>
	</circle>
	<circle style="fill: rgb(216, 216, 216);" cx="-34.989566093712746" cy="-12.964510181729029" r="0.9054">
		<title>.id(point_14)</title>
	</circle>
	<circle style="fill: rgb(216, 216, 216);" cx="-58.69507266770458" cy="-0.9100116675155795" r="0.9054">
		<title>.id(point_15)</title>
	</circle>
	<circle style="fill: rgb(216, 216, 216);" cx="140.0323062877015" cy="-18.56450988515144" r="0.9054">
		<title>.id(point_16)</title>
	</circle>
	<circle style="fill: rgb(216, 216, 216);" cx="151.51877711824244" cy="-20.779167069347928" r="0.9054">
		<title>.id(point_17)</title>
	</circle>
	<circle style="fill: rgb(216, 216, 216);" cx="-58.921384024750544" cy="-0.63022952940091" r="0.9054">
		<title>.id(point_18)</title>
	</circle>
	<circle style="fill: rgb(216, 216, 216);" cx="-68.67246117688613" cy="17.385591759095725" r="0.9054">
		<title>.id(point_19)</title>
	</circle>
	<circle style="fill: rgb(216, 216, 216);" cx="-22.043555976713126" cy="-13.45475274740786" r="0.9054">
		<title>.id(point_20)</title>
	</circle>
	<circle style="fill: rgb(216, 216, 216);" cx="44.29776061147729" cy="-20.430916148142508" r="0.9054">
		<title>.id(point_21)</title>
	</circle>
	<circle style="fill: rgb(216, 216, 216);" cx="51.55824629274282" cy="-20.164304848360786" r="0.9054">
		<title>.id(point_22)</title>
	</circle>
	<circle style="fill: rgb(216, 216, 216);" cx="50.92546177321461" cy="-22.07444073952226" r="0.9054">
		<title>.id(point_23)</title>
	</circle>
	<circle style="fill: rgb(216, 216, 216);" cx="144.81149770213761" cy="-19.705451639389565" r="0.9054">
		<title>.id(point_24)</title>
	</circle>
	<circle style="fill: rgb(216, 216, 216);" cx="66.11462805872901" cy="-19.54579905119132" r="0.9054">
		<title>.id(point_25)</title>
	</circle>
	<circle style="fill: rgb(216, 216, 216);" cx="136.30688665343644" cy="-16.87458528410599" r="0.9054">
		<title>.id(point_26)</title>
	</circle>
	<circle style="fill: rgb(216, 216, 216);" cx="95.24196576799005" cy="-30.49726985171583" r="0.9054">
		<title>.id(point_27)</title>
	</circle>
	<circle style="fill: rgb(216, 216, 216);" cx="-65.09243699485852" cy="25.7996311808195" r="0.9054">
		<title>.id(point_28)</title>
	</circle>
	<circle style="fill: rgb(216, 216, 216);" cx="-40.55816341218553" cy="-11.859749857807468" r="0.9054">
		<title>.id(point_29)</title>
	</circle>
	<circle style="fill: rgb(216, 216, 216);" cx="-101.71305003375768" cy="-33.170563739341105" r="0.9054">
		<title>.id(point_30)</title>
	</circle>
	<circle style="fill: rgb(216, 216, 216);" cx="-48.01395234852761" cy="6.35439556433478" r="0.9054">
		<title>.id(point_31)</title>
	</circle>
	<circle style="fill: rgb(216, 216, 216);" cx="-262.8313356050989" cy="20.09957484745092" r="0.9054">
		<title>.id(point_32)</title>
	</circle>
	<circle style="fill: rgb(216, 216, 216);" cx="151.11171057703953" cy="-16.73108848495139" r="0.9054">
		<title>.id(point_33)</title>
	</circle>
	<circle style="fill: rgb(216, 216, 216);" cx="148.97358898739608" cy="-19.588927718344888" r="0.9054">
		<title>.id(point_34)</title>
	</circle>
	<circle style="fill: rgb(216, 216, 216);" cx="67.0359355892393" cy="-17.40690716808864" r="0.9054">
		<title>.id(point_35)</title>
	</circle>
	<circle style="fill: rgb(216, 216, 216);" cx="56.94549900568038" cy="-14.31099159246412" r="0.9054">
		<title>.id(point_36)</title>
	</circle>
	<circle style="fill: rgb(216, 216, 216);" cx="78.92360605732298" cy="-19.488553136362032" r="0.9054">
		<title>.id(point_37)</title>
	</circle>
	<circle style="fill: rgb(216, 216, 216);" cx="52.251532381043994" cy="-29.72208277284239" r="0.9054">
		<title>.id(point_38)</title>
	</circle>
	<circle style="fill: rgb(216, 216, 216);" cx="55.98612554155902" cy="-30.755453893551923" r="0.9054">
		<title>.id(point_39)</title>
	</circle>
	<circle style="fill: rgb(216, 216, 216);" cx="55.03554888009552" cy="-17.559237088287585" r="0.9054">
		<title>.id(point_40)</title>
	</circle>
	<circle style="fill: rgb(216, 216, 216);" cx="53.99642499205865" cy="-23.402463410598116" r="0.9054">
		<title>.id(point_41)</title>
	</circle>
	<circle style="fill: rgb(216, 216, 216);" cx="59.94258306642106" cy="-45.37664628043571" r="0.9054">
		<title>.id(point_42)</title>
	</circle>
	<circle style="fill: rgb(216, 216, 216);" cx="93.91942248529219" cy="-24.26542143049994" r="0.9054">
		<title>.id(point_43)</title>
	</circle>
	<circle style="fill: rgb(216, 216, 216);" cx="147.2545135225123" cy="-18.106380731452823" r="0.9054">
		<title>.id(point_44)</title>
	</circle>
	<circle style="fill: rgb(216, 216, 216);" cx="106.0808921992773" cy="-31.860734488495527" r="0.9054">
		<title>.id(point_45)</title>
	</circle>
	<circle style="fill: rgb(216, 216, 216);" cx="94.78001075841718" cy="-24.963059987165476" r="0.9054">
		<title>.id(point_46)</title>
	</circle>
	<circle style="fill: rgb(216, 216, 216);" cx="92.95271182637872" cy="-33.218691357688435" r="0.9054">
		<title>.id(point_47)</title>
	</circle>
	<circle style="fill: rgb(216, 216, 216);" cx="94.62981041593702" cy="-24.984178357185712" r="0.9054">
		<title>.id(point_48)</title>
	</circle>
	<circle style="fill: rgb(216, 216, 216);" cx="48.30047938880462" cy="-21.756916188937822" r="0.9054">
		<title>.id(point_49)</title>
	</circle>
	<circle style="fill: rgb(216, 216, 216);" cx="54.025909586941644" cy="-24.357223432045828" r="0.9054">
		<title>.id(point_50)</title>
	</circle>
	<circle style="fill: rgb(216, 216, 216);" cx="48.649332234141" cy="-21.87243603067476" r="0.9054">
		<title>.id(point_51)</title>
	</circle>
	<circle style="fill: rgb(216, 216, 216);" cx="-265.1813061515116" cy="40.8268317071236" r="0.9054">
		<title>.id(point_52)</title>
	</circle>
	<circle style="fill: rgb(216, 216, 216);" cx="-265.16639694576855" cy="40.84373206772009" r="0.9054">
		<title>.id(point_53)</title>
	</circle>
	<circle style="fill: rgb(216, 216, 216);" cx="-47.16510686131231" cy="4.719190935060433" r="0.9054">
		<title>.id(point_54)</title>
	</circle>
	<circle style="fill: rgb(216, 216, 216);" cx="-54.83475077037189" cy="5.315820271122875" r="0.9054">
		<title>.id(point_55)</title>
	</circle>
	<circle style="fill: rgb(216, 216, 216);" cx="44.320679194660705" cy="-20.439043079784632" r="0.9054">
		<title>.id(point_56)</title>
	</circle>
	<circle style="fill: rgb(216, 216, 216);" cx="33.98170617360313" cy="-17.242992769342507" r="0.9054">
		<title>.id(point_57)</title>
	</circle>
	<circle style="fill: rgb(216, 216, 216);" cx="44.160202854913614" cy="-20.38229423064598" r="0.9054">
		<title>.id(point_58)</title>
	</circle>
	<circle style="fill: rgb(216, 216, 216);" cx="-54.8415211573988" cy="5.316563982626091" r="0.9054">
		<title>.id(point_59)</title>
	</circle>
	<circle style="fill: rgb(216, 216, 216);" cx="80.09556445508542" cy="-19.496610710788683" r="0.9054">
		<title>.id(point_60)</title>
	</circle>
	<circle style="fill: rgb(216, 216, 216);" cx="52.26270831914829" cy="-23.861456049666067" r="0.9054">
		<title>.id(point_61)</title>
	</circle>
	<circle style="fill: rgb(216, 216, 216);" cx="52.27661409192046" cy="-23.857451905247476" r="0.9054">
		<title>.id(point_62)</title>
	</circle>
	<circle style="fill: rgb(216, 216, 216);" cx="52.92881711869446" cy="-23.67600447102176" r="0.9054">
		<title>.id(point_63)</title>
	</circle>
	<circle style="fill: rgb(216, 216, 216);" cx="-80.42439012957259" cy="31.72339868539266" r="0.9054">
		<title>.id(point_64)</title>
	</circle>
	<circle style="fill: rgb(216, 216, 216);" cx="-54.023273478492264" cy="4.977993865015922" r="0.9054">
		<title>.id(point_65)</title>
	</circle>
	<circle style="fill: rgb(216, 216, 216);" cx="-54.73166112196164" cy="5.164207875362325" r="0.9054">
		<title>.id(point_66)</title>
	</circle>
	<circle style="fill: rgb(216, 216, 216);" cx="78.90477231554394" cy="-19.4884062434032" r="0.9054">
		<title>.id(point_67)</title>
	</circle>
	<circle style="fill: rgb(216, 216, 216);" cx="154.75571490687042" cy="14.49436573210183" r="0.9054">
		<title>.id(point_68)</title>
	</circle>
	<circle style="fill: rgb(216, 216, 216);" cx="70.05733448967132" cy="-47.66603977490152" r="0.9054">
		<title>.id(point_69)</title>
	</circle>
	<circle style="fill: rgb(216, 216, 216);" cx="36.57752963453797" cy="-17.23777497719144" r="0.9054">
		<title>.id(point_70)</title>
	</circle>
	<circle style="fill: rgb(216, 216, 216);" cx="-11.575899203270271" cy="52.11744160001864" r="0.9054">
		<title>.id(point_71)</title>
	</circle>
	<circle style="fill: rgb(216, 216, 216);" cx="-40.42943248992167" cy="88.7719244148439" r="0.9054">
		<title>.id(point_72)</title>
	</circle>
	<circle style="fill: rgb(216, 216, 216);" cx="-22.05059656012431" cy="52.06276719039505" r="0.9054">
		<title>.id(point_73)</title>
	</circle>
	<circle style="fill: rgb(216, 216, 216);" cx="-116.96772447435997" cy="97.61968612205824" r="0.9054">
		<title>.id(point_74)</title>
	</circle>
	<circle style="fill: rgb(216, 216, 216);" cx="-278.7039219713999" cy="2.0417097219383757" r="0.9054">
		<title>.id(point_75)</title>
	</circle>
	<circle style="fill: rgb(216, 216, 216);" cx="154.28303879823156" cy="11.843231374168028" r="0.9054">
		<title>.id(point_76)</title>
	</circle>
	<circle style="fill: rgb(216, 216, 216);" cx="-58.316358479410226" cy="-6.580699162666876" r="0.9054">
		<title>.id(point_77)</title>
	</circle>
	<circle style="fill: rgb(216, 216, 216);" cx="80.62888090518064" cy="-49.93159228526926" r="0.9054">
		<title>.id(point_78)</title>
	</circle>
	<circle style="fill: rgb(216, 216, 216);" cx="41.168204142724846" cy="-20.968521465870793" r="0.9054">
		<title>.id(point_79)</title>
	</circle>
	<path d="M 48.646495761524264 -21.87149678581937 C 48.898360894373575 -22.77318150177631, 49.15022597308465 -23.67486602391757, 49.40209110593348 -24.576550739873543 C 49.6539562387823 -25.478235455829513, 49.90582137163173 -26.379920171784715, 50.15768650448067 -27.281604887740002 C 50.409551637329606 -28.183289603695282, 50.66141677017815 -29.084974319650442, 50.91328190302707 -29.986659035605765" stroke="#01136e" fill="none">
		<title>.id(nerve_feature_01)</title>
	</path>
	<path d="M 150.73144137853996 -20.86298429990918 C 149.10597659081495 -14.897296156062033, 149.98566493586938 -19.490405807540956, 151.84791417263995 -22.531419583401608 C 153.71016340941046 -25.572433359262252, 156.08775103804248 -30.154438601423916, 157.8027507006244 -30.605153971358124 C 159.5177503632063 -31.055869341292343, 160.09825046951565 -28.17211178981206, 160.9012721371414 -26.138432278962515" stroke="#01136e" fill="none">
		<title>.id(nerve_feature_02)</title>
	</path>
	<path d="M 44.29776061147729 -20.430916148142508 C 45.10451511274958 -20.401291426652623, 45.91096476486637 -20.371677899486787, 46.71771926763534 -20.342053177941988 C 47.524473770404335 -20.31242845639719, 48.331228274974464 -20.282803734786235, 49.13798277935403 -20.253179013182184 C 49.944737283733616 -20.223554291578147, 50.75149178825043 -20.193929569968983, 51.55824629274282 -20.164304848360786" stroke="#01136e" fill="none">
		<title>.id(nerve_feature_03)</title>
	</path>
	<path d="M 144.81149770213761 -19.705451639389565 C 142.072573664354 -18.654035086426852, 139.17892318615358 -17.56213606866507, 136.32361767600946 -16.878587140797524 C 133.46831216586537 -16.195038212929976, 130.55033256631867 -15.801050561559247, 127.62302193620266 -15.567991889545809 C 124.69571130608672 -15.33493321753237, 121.75599267351777 -15.2641635199099, 118.81833898189973 -15.281426229564367 C 115.88068529028165 -15.298688939218838, 112.94347542087273 -15.405131000988503, 110.00926706501798 -15.55954148141234 C 107.07505870916324 -15.71395196183618, 104.14332090224411 -15.91706658044361, 101.2137436092692 -16.146243674458564 C 98.28416631629429 -16.37542076847351, 95.35660217687705 -16.631078366071783, 92.43034835472059 -16.90071700638455 C 89.50409453256414 -17.170355646697317, 86.57911740573233 -17.45420836366378, 83.65485090778691 -17.745212307805158 C 80.7305844098415 -18.03621625194654, 77.80702511743822 -18.334506237158994, 74.8837717229495 -18.63579532579283 C 71.96051832846076 -18.93708441442667, 69.03757440804839 -19.241459979003437, 66.11462805872901 -19.54579905119132" stroke="#01136e" fill="none">
		<title>.id(nerve_feature_04)</title>
	</path>
	<path d="M -96.96232903191823 41.20078978386367 C -93.42324423487419 39.49052336044698, -89.8660351992911 37.771498379832416, -86.32695007764313 36.06123179955058 C -82.78786495599519 34.35096521926874, -79.24877908799223 32.640698278310026, -75.7096936007735 30.930431521365694 C -72.17060811355476 29.220164764421376, -68.63152252339077 27.50989795772864, -65.09243699485852 25.7996311808195" stroke="#01136e" fill="none">
		<title>.id(nerve_feature_05)</title>
	</path>
	<path d="M -40.55816341218553 -11.859749857807468 C -43.10634237005292 -12.747720885273761, -45.653041469905986 -13.635176222491149, -48.20122193280386 -14.523147774419684 C -50.74940239570174 -15.411119326348212, -53.29758604248507 -16.29909198777418, -55.84576817239416 -17.1870641206111 C -58.39395030230327 -18.075036253448022, -60.94213277443072 -18.963008505538806, -63.49031508351782 -19.850980700814212 C -66.03849739260494 -20.738952896089604, -68.58667973847488 -21.626925104182597, -71.13486206682066 -22.514897306169267 C -73.68304439516642 -23.40286950815594, -76.2312267274664 -24.290841711520326, -78.77940905788236 -25.178813914228215 C -81.32759138829832 -26.0667861169361, -83.87577371913862 -26.954758319792145, -86.42395604977706 -27.84273052257745 C -88.97213838041552 -28.730702725362757, -91.52032071110041 -29.618674928164005, -94.06850304176285 -30.50664713095768 C -96.61668537242532 -31.394619333751372, -99.16486770309271 -32.282591536546825, -101.71305003375768 -33.170563739341105" stroke="#01136e" fill="none">
		<title>.id(nerve_feature_06)</title>
	</path>
	<path d="M -40.558163412185536 -11.859749857807468 C -41.38702969627666 -9.834868096421246, -42.21188678183165 -7.8197806204927005, -43.04075317752767 -5.794898586460849 C -43.8696195732237 -3.770016552428993, -44.69848621918281 -1.7451339070177765, -45.52735274005071 0.27974843280321604 C -46.35621926091863 2.3046307726242103, -47.18508581420666 4.329513191648076, -48.01395234852761 6.35439556433478" stroke="#01136e" fill="none">
		<title>.id(nerve_feature_07)</title>
	</path>
	<path d="M -229.59091915113265 40.405296266597276 C -233.26086494388557 38.16342011579145, -237.14004948813803 35.79372535585578, -240.8101120931002 33.55177784745456 C -244.4801746980624 31.309830339053345, -248.1505080292285 29.067717450928388, -251.82070137708374 26.825690075033226 C -255.49089472493893 24.583662699138067, -259.1611269910784 22.34161154905702, -262.8313356050989 20.09957484745092" stroke="#01136e" fill="none">
		<title>.id(nerve_feature_08)</title>
	</path>
	<path d="M 158.2474150945062 -30.6482182117676 C 159.64609963764474 -28.01196918507234, 160.08312909160156 -25.38274628208103, 159.36674321474413 -23.562054336972217 C 158.65035733788667 -21.74136239186339, 157.2832616504331 -20.526746570328804, 155.81186995337782 -19.48729202512844 C 154.3404782563225 -18.447837479928072, 152.72045595171684 -17.592761403991876, 151.11171057703953 -16.73108848495139" stroke="#01136e" fill="none">
		<title>.id(nerve_feature_09)</title>
	</path>
	<path d="M 151.85883167806523 -22.549255616480544 C 151.40859079327447 -22.425936776246314, 150.9572239522622 -22.302247056324276, 150.5473506190145 -22.099268454801873 C 150.13747728576683 -21.896289853279466, 149.7688691513668 -21.61189405185322, 149.50479012918316 -21.185937986551377 C 149.24071110699958 -20.75998192124954, 149.10461216093609 -20.17482571271807, 148.97358898739608 -19.588927718344888" stroke="#01136e" fill="none">
		<title>.id(nerve_feature_10)</title>
	</path>
	<path d="M 67.0359355892393 -17.40690716808864 C 65.91577567042754 -17.06322327382679, 64.78665568314288 -16.71679027992845, 63.66649282197308 -16.373105482901682 C 62.54632996080325 -16.029420685874907, 61.42616305196714 -15.685734646956133, 60.30599712058158 -15.342048907935578 C 59.185831189196 -14.998363168915024, 58.06566507090311 -14.654677372548154, 56.94549900568038 -14.31099159246412" stroke="#01136e" fill="none">
		<title>.id(nerve_feature_11)</title>
	</path>
	<path d="M 55.98612554155902 -30.755453893551923 C 55.88050591250792 -29.289207581864723, 55.774886283449845 -27.82296127008417, 55.66926665439916 -26.356714958399095 C 55.563647025348494 -24.890468646714023, 55.45802739629883 -23.424222335029043, 55.35240776724838 -21.95797602334386 C 55.24678813819794 -20.491729711658678, 55.14116850914638 -19.02548339997302, 55.03554888009552 -17.559237088287585" stroke="#01136e" fill="none">
		<title>.id(nerve_feature_12)</title>
	</path>
	<path d="M 44.29776061147728 -20.4309161481425 C 47.605883719477134 -20.686550785381566, 50.91382201600473 -20.942171141346282, 54.2219451263732 -21.197805778768416 C 57.530068236741656 -21.45344041619054, 60.838191352266236 -21.70907505401111, 64.14631446527538 -21.96470969163732 C 67.45443757828453 -22.22034432926353, 70.76256069188634 -22.4759789669355, 74.0706838051991 -22.731613604585185 C 77.37880691851186 -22.987248242234877, 80.68693003189158 -23.242882879889812, 83.9950531452386 -23.49851751754211 C 87.30317625858564 -23.754152155194394, 90.61129937194143 -24.009786792847336, 93.91942248529219 -24.26542143049994" stroke="#01136e" fill="none">
		<title>.id(nerve_feature_13)</title>
	</path>
	<path d="M 147.87939227235393 -20.555575445793576 C 147.80996146196412 -20.28344333398426, 147.74052919524203 -20.011305514121442, 147.67109838485212 -19.73917340231195 C 147.6016675744622 -19.467041290502458, 147.53223676407282 -19.19490917869376, 147.4628059536829 -18.922777066883476 C 147.39337514329299 -18.650644955073197, 147.3239443329023 -18.378512843262236, 147.2545135225123 -18.106380731452823" stroke="#01136e" fill="none">
		<title>.id(nerve_feature_14)</title>
	</path>
	<path d="M 106.0808921992773 -31.860734488495527 C 104.82434049039891 -31.09377797034328, 103.5759861824597 -30.331824867520243, 102.31942568059378 -29.564862982426934 C 101.06286517872788 -28.797901097333618, 99.80629088512367 -28.030930794231452, 98.54972113767452 -27.263963265947773 C 97.29315139022535 -26.496995737664108, 96.03658094389434 -25.730027782806488, 94.78001075841718 -24.963059987165476" stroke="#01136e" fill="none">
		<title>.id(nerve_feature_15)</title>
	</path>
	<path d="M 136.3068866534354 -16.87458528410574 C 132.83379694589598 -17.55038471096433, 129.36070749130837 -18.226184088603283, 125.88761778376988 -18.901983515461787 C 122.4145280762314 -19.57778294232029, 118.94143836869583 -20.253582369178176, 115.4683486611588 -20.9293817960364 C 111.99525895362177 -21.605181222894625, 108.52216924608499 -22.280980649752877, 105.0490795385479 -22.956780076611107 C 101.57598983101082 -23.632579503469337, 98.1029001234738 -24.308378930327457, 94.62981041593702 -24.984178357185712" stroke="#01136e" fill="none">
		<title>.id(nerve_feature_16)</title>
	</path>
	<path d="M 48.30047938880462 -21.756916188937822 C 48.936640249524665 -22.04584010149381, 49.57278356189099 -22.33475604414886, 50.208944422611914 -22.623679956705264 C 50.84510528333285 -22.912603869261662, 51.48126614405441 -23.201527781818402, 52.11742700477606 -23.4904516943752 C 52.75358786549771 -23.779375606931996, 53.389748726219544 -24.068299519488892, 54.025909586941644 -24.357223432045828" stroke="#01136e" fill="none">
		<title>.id(nerve_feature_17)</title>
	</path>
	<path d="M 44.29776061147727 -20.4309161481425 C 45.03418010943531 -20.61353203937383, 45.77052526744422 -20.796129495927506, 46.50694476697879 -20.978745387549793 C 47.24336426651335 -21.161361279172073, 47.97978376789783 -21.34397717125309, 48.71620326915028 -21.52659306330134 C 49.45262277040271 -21.709208955349602, 50.189042271822174 -21.891824847439278, 50.92546177321461 -22.07444073952226" stroke="#01136e" fill="none">
		<title>.id(nerve_feature_18)</title>
	</path>
	<path d="M -233.82867914659326 47.92682178925155 C -237.56127585230166 48.44834481536953, -241.08126433558039 48.968792989183314, -244.8550506931254 49.271927814118854 C -248.62883705067043 49.57506263905439, -252.5874618839877 49.76918833185928, -256.29660429356505 48.32132103687865 C -260.0057467031425 46.873453741898025, -262.63697267676133 43.71061743042831, -265.1813061515116 40.8268317071236" stroke="#01136e" fill="none">
		<title>.id(nerve_feature_19)</title>
	</path>
	<path d="M -47.16510686131231 4.719190935060433 C -48.01777206935964 4.785520621678564, -48.86607534649199 4.851510989290856, -49.718741977984465 4.917840786640239 C -50.57140860947695 4.984170583989625, -51.424077832444 5.05050058293251, -52.27674599243306 5.116830499185227 C -53.1294141524221 5.183160415437944, -53.98208250700496 5.249490346828297, -54.83475077037189 5.315820271122875" stroke="#01136e" fill="none">
		<title>.id(nerve_feature_20)</title>
	</path>
	<path d="M -34.98956609371274 -12.964510181729038 C -37.19410779478161 -10.934413387414983, -39.40969451407878 -8.894145564770024, -41.61423862890227 -6.8640465477014345 C -43.81878274372576 -4.83394753063285, -46.02333257822675 -2.803843246483565, -48.227879430524446 -0.7737417085564431 C -50.43242628282215 1.256359829370679, -52.63697397890229 3.2864621443119058, -54.8415211573988 5.316563982626091" stroke="#01136e" fill="none">
		<title>.id(nerve_feature_21)</title>
	</path>
	<path d="M 53.99642499205865 -23.402463410598116 C 54.65647416648829 -25.841692418742475, 55.32220650586341 -28.301923711761983, 55.98225805197703 -30.741161484527655 C 56.642309598090634 -33.18039925729332, 57.302365865130696 -35.6196544763657, 57.96241999666653 -38.05890180362682 C 58.62247412820236 -40.49814913088792, 59.28252871675421 -42.937398147065615, 59.94258306642106 -45.37664628043571" stroke="#01136e" fill="none">
		<title>.id(nerve_feature_22)</title>
	</path>
	<path d="M -80.42439012957259 31.72339868539266 C -77.4909898989174 28.75174495930458, -74.5570751020241 25.77956995669149, -71.62367487074341 22.807916229970175 C -68.69027463946271 19.836262503248854, -65.75687440672738 16.864608775054293, -62.82347417474033 13.892955047617347 C -59.890073942753254 10.921301320180406, -56.956673710560544 7.949647592535218, -54.023273478492264 4.977993865015922" stroke="#01136e" fill="none">
		<title>.id(nerve_feature_23)</title>
	</path>
	<path d="M 78.92360605732298 -19.488553136362032 C 75.51389968609539 -18.418226762280042, 72.05150666719051 -17.18700311662372, 68.52027040540935 -17.262654492512613 C 64.98903414362817 -17.3383058684015, 61.887415703240706 -19.328342512023706, 59.17947583468813 -21.55739810587596 C 56.471535966135555 -23.786453699728213, 53.963041259459025 -26.447787055643882, 52.251532381043994 -29.72208277284239" stroke="#01136e" fill="none">
		<title>.id(nerve_feature_24)</title>
	</path>
	<path d="M 44.29776061147729 -20.430916148142508 C 44.78095804671117 -20.591018374461285, 45.264050418668226 -20.75108579008337, 45.74735607926148 -20.911211719021875 C 46.23066173985474 -21.071337647960384, 46.71407564118414 -21.231487283727287, 47.197705595814604 -21.391684190451244 C 47.681335550445056 -21.551881097175198, 48.16524054279334 -21.712138162304637, 48.649332234141 -21.87243603067476" stroke="#01136e" fill="none">
		<title>.id(nerve_feature_25)</title>
	</path>
	<path d="M 80.09556445508542 -19.496610710788683 C 76.77852704994605 -19.903526994810417, 73.46147448746412 -20.309580085410236, 70.18720852249098 -20.735083200275852 C 66.91294255751781 -21.16058631514146, 63.67336607021174 -21.604011109087043, 60.598828503368104 -22.10523275146114 C 57.52429093652444 -22.606454393835243, 54.634950670701876 -23.17786301211967, 52.26270831914829 -23.861456049666067" stroke="#01136e" fill="none">
		<title>.id(nerve_feature_26)</title>
	</path>
	<path d="M -58.695072667704586 -0.9100116675155799 C -55.36707670511384 1.0890285943535623, -52.06016324852462 3.2873671974471526, -48.51121167933989 4.388348742139371 C -44.96226011015514 5.4893302868315885, -41.53057684196992 4.678886489764305, -38.15584521763706 3.8840475855655257 C -34.7811135933042 3.0892086813667468, -31.20236933534015 2.0565042539418297, -27.21930286996318 0.8978595211286237 C -23.236236404586208 -0.260785211684583, -19.24598811592025 -1.4473239560693643, -15.270301945301075 -2.62744782947513 C -11.294615774681906 -3.807571702880896, -7.321136191703491 -4.9892298026187945, -3.349017977629997 -6.170293559745532 C 0.623100236443495 -7.351357316872268, 4.595210775644684 -8.532614600529024, 8.567171381925824 -9.713677355959108 C 12.539131988206965 -10.894740111389188, 16.511296591843674 -12.075961163050549, 20.48430299023007 -13.255999205905301 C 24.45730938861648 -14.436037248760051, 28.43146040164386 -15.617301900893729, 32.416388497900826 -16.786855754431542 C 36.401316594157805 -17.956409607969352, 40.409430033415546 -19.051475922133175, 44.320679194660705 -20.439043079784632" stroke="#01136e" fill="none">
		<title>.id(nerve_feature_27)</title>
	</path>
	<path d="M 140.0323062877015 -18.564509885151438 C 136.64723736453467 -18.641178942600447, 132.83561260272128 -18.727470528179577, 129.4490175761751 -18.802805534861058 C 126.0624225496289 -18.87814054154254, 122.67410018252195 -18.95221077784029, 119.2836864338935 -19.0233143097018 C 115.89327268526503 -19.09441784156331, 112.50023452643265 -19.162607518089107, 109.10560833871189 -19.22521329479783 C 105.71098215099116 -19.287819071506554, 102.3137795618013 -19.34492009466665, 98.92193263459153 -19.39198806536238 C 95.53008570738177 -19.43905603605811, 92.1415665195436 -19.476203313112322, 88.78611855629822 -19.495622820170436 C 85.43067059305288 -19.515042327228556, 82.11887350224312 -19.513522056710798, 78.90477231554394 -19.4884062434032" stroke="#01136e" fill="none">
		<title>.id(nerve_feature_28)</title>
	</path>
	<path d="M 106.08089219927729 -31.860734488495524 C 104.6210970023752 -32.01173324528744, 103.17137826715226 -32.161689709852844, 101.71157555283115 -32.31268924423403 C 100.25177283850998 -32.4636887786152, 98.79195650308822 -32.614689721939975, 97.33214572056305 -32.765690090882494 C 95.8723349380379 -32.916690459825006, 94.41252314753825 -33.06769093303062, 92.95271182637872 -33.218691357688435" stroke="#01136e" fill="none">
		<title>.id(nerve_feature_29)</title>
	</path>
	<path d="M 151.51877711824244 -20.779167069347928 C 151.86633952980503 -16.991712714223034, 152.32256616679166 -12.020123423509725, 152.67014378728314 -8.232503333767422 C 153.01772140777456 -4.444883244025123, 153.36533274156065 -0.6568957740391261, 153.71292657990531 3.130901044766034 C 154.06052041824995 6.918697863571195, 154.40811915802044 10.706548094156046, 154.75571490687042 14.49436573210183" stroke="#01136e" fill="none">
		<title>.id(nerve_feature_30)</title>
	</path>
	<path d="M 52.27661409192006 -23.857451905247576 C 54.31860062830571 -26.408300109555608, 56.33205197749024 -29.00957076935316, 58.32070811925302 -31.641824097778173 C 60.30936426101578 -34.27407742620319, 62.27441059622283 -36.93644615404396, 64.22652688923571 -39.6120931137418 C 66.1786431822486 -42.28774007343963, 68.11804472619764 -44.97697526281969, 70.05733448967132 -47.66603977490152" stroke="#01136e" fill="none">
		<title>.id(nerve_feature_31)</title>
	</path>
	<path d="M 33.98170617360313 -17.242992769342507 C 34.270378304585826 -17.242412517564187, 34.556824529340275 -17.2418367400179, 34.845496673769354 -17.24125648821267 C 35.13416881819845 -17.24067623640744, 35.422840976400224 -17.240095984574516, 35.71151313870256 -17.23951573273335 C 36.00018530100489 -17.23893548089218, 36.28885746784212 -17.23835522904158, 36.57752963453797 -17.23777497719144" stroke="#01136e" fill="none">
		<title>.id(nerve_feature_32)</title>
	</path>
	<path d="M 144.8114977021376 -19.705451639389562 C 141.7240700931205 -20.733037998302198, 138.54473686533157 -21.791258650837783, 135.4573466781936 -22.818557463473915 C 132.36995649105563 -23.845856276110055, 129.28205654610113 -24.873484019975066, 126.19568055182259 -25.897391531778496 C 123.10930455754408 -26.92129904358193, 120.01969832133132 -27.947817472039233, 116.94430639057641 -28.937217313546803 C 113.86891445982148 -29.926617155054366, 110.76027540073346 -30.94119675762584, 107.84733928750099 -31.567250752899756 C 104.93440317426851 -32.19330474817367, 102.74647696196018 -31.986078958992472, 100.8053287369075 -31.664779943622776 C 98.8641805118548 -31.3434809282531, 97.05964314745047 -30.911810708281152, 95.24196576799005 -30.49726985171583" stroke="#01136e" fill="none">
		<title>.id(nerve_feature_33)</title>
	</path>
	<path d="M 48.64649576152426 -21.871496785819367 C 50.23092321323435 -21.915558971227913, 51.81539194974061 -21.959590827587668, 53.39988902220528 -22.003602146816178 C 54.98438609466994 -22.04761346604469, 56.56891107835378 -22.091604382009848, 58.15345000905091 -22.1355850961049 C 59.737988939748035 -22.179565810199954, 61.32254181878206 -22.22353632246136, 62.90709469713359 -22.26750683470393" stroke="#01136e" fill="none">
		<title>.id(nerve_feature_34)</title>
	</path>
	<path d="M -58.92138402475054 -0.6302295294009124 C -56.94832641396237 1.567956725649157, -54.983185582475095 3.75732288576147, -53.01012757447779 5.955509583342291 C -51.037069566480504 8.15369628092311, -49.064010707379005 10.351883926721204, -47.090952257874314 12.550071116186249 C -45.117893808369644 14.748258305651298, -43.14483526475732 16.946445599960906, -41.1717767664348 19.144632843813817 C -39.198718268112266 21.342820087666716, -37.225659759384605 23.541007343112486, -35.252601255664395 25.73919459297915 C -33.27954275194419 27.937381842845816, -31.306484247073314 30.135569093994153, -29.33342574275666 32.33375634452584 C -27.36036723844002 34.53194359505755, -25.387308733996946 36.73013084573115, -23.414250229614044 38.92831809633634 C -21.441191725231153 41.12650534694153, -19.468133220833707 43.32469259756234, -17.495074716443547 45.522879848175755 C -15.522016212053373 47.72106709878918, -13.54895770766172 49.919254349404135, -11.575899203270271 52.11744160001864" stroke="#01136e" fill="none">
		<title>.id(nerve_feature_35)</title>
	</path>
	<path d="M -58.92138402475055 -0.6302295294009127 C -58.23641535040937 2.6813557705645756, -57.553657225139304 5.982253834625901, -56.868688407453384 9.293839827613297 C -56.183719589767485 12.605425820600693, -55.49875045512588 15.917013345960916, -54.813781476948535 19.22860011486833 C -54.12881249877118 22.540186883775743, -53.44384348292113 25.851773834813457, -52.758874485668535 29.163360695943002 C -52.073905488415946 32.47494755707256, -51.38893648668624 35.786534439849405, -50.70396748716684 39.098121311940154 C -50.018998487647444 42.40970818403092, -49.33402948759642 45.72129505869467, -48.649060487807695 49.03288193208822 C -47.96409148801898 52.344468805481775, -47.27912248816731 55.65605567918123, -46.59415348834683 58.9676425527297 C -45.909184488526336 62.27922942627815, -45.22421548869745 65.59081629986271, -44.53924648887262 68.90240317342945 C -43.854277489047746 72.21399004699616, -43.16930848922213 75.52557692056723, -42.4843394893968 78.83716379413613 C -41.79937048957147 82.14875066770504, -41.114401489746754 85.4603375412747, -40.42943248992167 88.7719244148439" stroke="#01136e" fill="none">
		<title>.id(nerve_feature_36)</title>
	</path>
	<path d="M -68.67246117688615 17.385591759095725 C -66.08146109618934 19.312768311972896, -63.506615170976 21.227929462029167, -60.915614585859664 23.155106390091525 C -58.324614000743345 25.082283318153877, -55.73361231958801 27.009461061445958, -53.14261117176188 28.93663840805023 C -50.55161002393573 30.863815754654517, -47.960608751076784 32.79099319425792, -45.369607539058286 34.718170588608125 C -42.7786063270398 36.645347982958306, -40.187605100757544 38.57252538791765, -37.59660388141626 40.49970278771429 C -35.00560266207494 42.42688018751091, -32.414601441106285 44.35405758851822, -29.823600220931116 46.281234988935225 C -27.23259900075596 48.20841238935226, -24.641597780383947 50.13558978991516, -22.05059656012431 52.06276719039505" stroke="#01136e" fill="none">
		<title>.id(nerve_feature_37)</title>
	</path>
	<path d="M -68.67246117688615 17.38559175909573 C -70.46110841461666 20.357114874523983, -72.25148383420803 23.331509060466665, -74.0401321570002 26.303033978533893 C -75.82878047979234 29.274558896601114, -77.61743121313987 32.246087819383014, -79.4060807513355 35.21761475662949 C -81.1947302895311 38.18914169387596, -82.9833801178311 41.16066911308025, -84.77202980229764 44.13219629333014 C -86.56067948676419 47.103723473580025, -88.34932920614436 50.075250711833135, -90.13797890821436 53.04677792132804 C -91.9266286102844 56.018305130822945, -93.7152783165562 58.989832347298176, -95.50392802074468 61.96135956031259 C -97.29257772493315 64.93288677332701, -99.08122742962755 67.90441398718157, -100.86987713407102 70.87594120061948 C -102.65852683851446 73.84746841405746, -104.44717654301878 76.81899562759662, -106.235826247493 79.79052284108566 C -108.0244759519672 82.76205005457471, -109.81312565644929 85.73357726807585, -111.6017753609268 88.70510448157088 C -113.3904250654043 91.67663169506591, -115.17907476988206 94.6481589085626, -116.96772447435997 97.61968612205824" stroke="#01136e" fill="none">
		<title>.id(nerve_feature_38)</title>
	</path>
	<path d="M -265.16639694576855 40.843732067720055 C -267.26474790670034 38.27293603558095, -269.06692269748726 35.58809643482302, -270.39660949565 32.90170180828603 C -271.72629629381277 30.21530718174904, -272.71151907706843 27.558698842081405, -273.53814861244297 24.94519240757261 C -274.36477814781773 22.331685973063816, -275.0301771388944 19.755769129096603, -275.6271870965823 17.202594808913524 C -276.22419705427 14.64942048873044, -276.7506712653468 12.117400749507787, -277.2520788534645 9.594161299206576 C -277.7534864415823 7.070921848905362, -278.2284320666251 4.556349827932544, -278.7039219713999 2.0417097219383757" stroke="#01136e" fill="none">
		<title>.id(nerve_feature_39)</title>
	</path>
	<path d="M 151.51877711824244 -20.779167069347928 C 151.81384461483745 -17.296931826811825, 152.2170461532728 -12.538554088884254, 152.5121516805533 -9.055870027704389 C 152.8072572078338 -5.57318596652452, 153.10244272827475 -2.089557867102716, 153.39758802214942 1.3935954990253792 C 153.69273331602406 4.876748865153477, 153.98788916654016 8.360026815353065, 154.28303879823156 11.843231374168028" stroke="#01136e" fill="none">
		<title>.id(nerve_feature_40)</title>
	</path>
	<path d="M -22.043555976713122 -13.45475274740786 C -25.062871048249647 -12.88256278250467, -28.123189801898985 -12.302602215702269, -31.142505725806927 -11.730412089266299 C -34.161821649714874 -11.15822196283033, -37.181139515764 -10.586031468339582, -40.20045639833002 -10.013841160228468 C -43.21977328089606 -9.441650852117355, -46.23909041214509 -8.869460496878357, -49.25840741708275 -8.297270165576622 C -52.27772442202042 -7.725079834274885, -55.29704146079301 -7.1528894965610395, -58.316358479410226 -6.580699162666876" stroke="#01136e" fill="none">
		<title>.id(nerve_feature_41)</title>
	</path>
	<path d="M 52.928817118694454 -23.67600447102176 C 56.00486152029663 -26.591642302375252, 59.09655835731774 -29.522116341176694, 62.17260357918457 -32.4377549500207 C 65.24864880105139 -35.35339355886469, 68.32469593324642 -38.26903397841923, 71.40074208164408 -41.18467346547826 C 74.47678823004172 -44.100312952537294, 77.55283464965306 -47.0159526966667, 80.62888090518064 -49.93159228526926" stroke="#01136e" fill="none">
		<title>.id(nerve_feature_42)</title>
	</path>
	<path d="M -80.42439012957257 31.72339868539267 C -77.56969939873134 28.772436341081757, -74.71449624646093 25.82094429443723, -71.85980551501703 22.86998194950351 C -69.00511478357316 19.919019604569783, -66.15042405073227 16.96805725819205, -63.295733318607915 14.017094912555216 C -60.44104258648353 11.06613256691837, -57.58635185416384 8.115170221079525, -54.73166112196164 5.164207875362325" stroke="#01136e" fill="none">
		<title>.id(nerve_feature_43)</title>
	</path>
	<path d="M 44.160202854913415 -20.38229423064591 C 43.82788909239218 -20.44740501342679, 43.49440077636851 -20.512745928409828, 43.16208699212643 -20.57785671544659 C 42.8297732078844 -20.642967502483355, 42.497459401125944 -20.708078293931756, 42.165145589461396 -20.773189086341286 C 41.83283177779686 -20.83829987875082, 41.50051796011397 -20.90341067233952, 41.168204142724846 -20.968521465870793" stroke="#01136e" fill="none">
		<title>.id(nerve_feature_44)</title>
	</path>
	<path d="M 157.3193341046635 -24.57488320462329 C 156.10064808301098 -21.88691018950027, 156.46290690031992 -19.41156219547025, 156.2929418391428 -19.069586557792753 C 156.12297677796568 -18.72761092011525, 152.49904994992073 -21.860913574203593, 147.9062774805035 -20.563171432668824 C 143.31350501108622 -19.26542929113405, 140.9569024215575 -18.664590323381738, 137.7635593424387 -18.164917941653123 C 134.5702162633199 -17.665245559924518, 131.40391853985744 -17.516280652989714, 128.10558255221096 -17.48474365735002 C 124.80724656456454 -17.453206661710325, 121.43026696525493 -17.474801343607126, 118.02002024895344 -17.447221082115735 C 114.60977353265189 -17.419640820624334, 111.18835640055597 -17.396239373006395, 107.7558055366468 -17.390600062389037 C 104.32325467273763 -17.384960751771683, 100.9365059067562 -17.31064076152196, 97.52847446751835 -17.08082721539256 C 94.12044302828056 -16.85101366926316, 90.68759013095834 -16.558401903475847, 87.32653418012328 -16.14079767975582 C 83.96547822928821 -15.723193456035792, 80.6350327713369 -15.205578251084821, 77.29810374744102 -14.658507482266021 C 73.96117472354511 -14.11143671344722, 70.62474411560656 -13.539765965535977, 67.2670209999628 -13.031718348796362 C 63.90929788431905 -12.523670732056747, 60.52257672197966 -12.10103818166213, 57.1170944045561 -11.818945894979478 C 53.71161208713254 -11.53685360829683, 50.28078389861257 -11.371723098279652, 46.82462803138028 -11.291430492423764 C 43.36847216414802 -11.21113788656787, 39.892351486628286 -11.21511233379405, 36.41053967540761 -11.273343265367393 C 32.92872786418694 -11.331574196940734, 29.442419917267813 -11.44604932228748, 25.983500882223723 -11.597747059057475 C 22.524581847179626 -11.749444795827479, 19.09268474128794 -11.938274320458666, 15.693707210108517 -12.14562819937088 C 12.2947296789291 -12.352982078283091, 8.93250407984427 -12.584487435588187, 5.575648709120536 -12.800154289425183 C 2.2187933383968024 -13.015821143262173, -1.1389920903638457 -13.21005624441521, -4.535784031700446 -13.320108908563508 C -7.9325759730370455 -13.43016157271181, -11.359849765211955 -13.411827321421162, -14.719814686760081 -13.418004723910359 C -18.079779608308208 -13.42418212639956, -21.44544349387234 -13.460700020635581, -25.173388832395617 -13.464843268050224 C -28.9013341709189 -13.468986515464861, -32.67696911434159 -13.36439312114842, -36.286358255900126 -12.773327161505831 C -39.89574739745868 -12.182261201863238, -43.389757689826475 -11.16455431799907, -46.64061542344134 -9.744857938500743 C -49.891473157056225 -8.325161559002419, -52.88502802839192 -6.492808681891309, -55.43277298176477 -4.280227862217327 C -57.98051793513761 -2.067647042543351, -60.08045855376225 0.6170051907409935, -61.85527754304726 3.715436589068561 C -63.63009653233227 6.813867987396126, -65.04929246180416 10.128490781970731, -66.61529888267594 13.396920017353521 C -68.18130530354772 16.665349252736306, -69.95703146744766 19.84549370419821, -72.14553136396673 22.834511371519636 C -74.33403126048579 25.82352903884107, -76.89333585621588 28.638287531175997, -79.76291956030555 31.15352421511632 C -82.63250326439518 33.66876089905666, -85.83333472816363 35.90479535342474, -89.27491627706321 37.77906571080791 C -92.71649782596276 39.65333606819109, -96.37075904195417 41.144509848835554, -100.12595345905308 42.20320501439132 C -103.881147876152 43.261900179947105, -107.7750896192385 43.9066476687514, -111.66596056812485 44.137972977470255 C -115.5568315170111 44.369298286189114, -119.44020235144498 44.17720798507471, -123.30625457117868 43.7222906382025 C -127.17230679091242 43.26737329133027, -131.0168840443277 42.549212205135454, -134.7917184936845 41.73746173653549 C -138.5665529430413 40.92571126793552, -142.3095980167442 40.02163183973217, -146.0851592166437 39.34255056997413 C -149.86072041654322 38.66346930021607, -153.6240334909565 38.28711345487225, -157.402068625624 38.16131563012252 C -161.18010376029153 38.0355178053728, -164.93758319159087 38.13303488923458, -168.66367777021986 38.26744193223076 C -172.3897723488489 38.40184897522694, -176.12627019177862 38.562704419848096, -179.8654359066774 38.51275942359839 C -183.60460162157617 38.46281442734869, -187.35590235520726 38.19304067784692, -190.99112853216363 37.57368082342071 C -194.62635470911994 36.95432096899449, -198.0275236602094 35.94033937767536, -202.15324091202714 34.398570364753965 C -206.27895816384498 32.856801351832566, -210.50560028906418 31.7152460215887, -214.47934396405796 31.430887008774476 C -218.45308763905177 31.14652799596026, -222.15967683814526 31.65768914268232, -224.94292306968316 33.95931308768988 C -227.7261693012211 36.260937032697456, -229.56230111865366 40.25564854361719, -231.32485123388037 43.98377088991083 C -233.08740134910698 47.71189323620447, -236.1858674918236 50.44078634223112, -238.44331476691212 53.636018095949986 C -240.7007620420008 56.831249849668865, -241.7880008697124 60.44389086893534, -243.525734392933 62.65942588579293 C -245.26346791615364 64.8749609026505, -247.32893450858847 65.89218050028151, -249.62115578361733 65.49154716353942 C -251.91337705864612 65.09091382679733, -254.4550364033383 63.343973657216345, -256.92941443140205 61.576974326313284" stroke="#01136e" fill="none">
		<title>.id(nerve_feature_48)</title>
	</path>
</svg>
