<?xml version="1.0" ?>
<svg xmlns="http://www.w3.org/2000/svg" width="1000" height="1000" viewBox="-233 -96 421 167">
	<g>
		<title>.centreline id(group_1_name)</title>
		<path d="M -45.567713854440086 9.37650096209191 C -44.320425226704764 9.81171142200673, -43.08648075624746 10.242471286022559, -41.85895265850563 10.618557459408388 C -40.63142456076382 10.994643632794219, -39.42850331955765 11.300246424128295, -38.26492885101115 11.511198638564071 C -37.10135438246466 11.722150852999846, -35.97014012489911 11.858436724584886, -34.83953951494509 11.994656462103803" stroke="white" fill="transparent"/>
	</g>
	<g>
		<title>.centreline id(group_6_name)</title>
		<path d="M 155.38493666982356 13.279987115675068 C 152.9831337525414 10.789880961354225, 150.29868448663726 8.013553716666365, 148.4933005026018 6.14327536322378 C 146.68791651856637 4.272997009781194, 145.62206871031407 3.051633089363839, 145.6522666085179 1.0630919970068076 C 145.68246450672171 -0.9254490953502228, 146.41870803706132 -3.1731835818978245, 147.4004033479267 -5.185384231295869 C 148.38209865879207 -7.197584880693915, 149.60349397752992 -9.16681531249698, 150.06636017695158 -10.0745530200434 C 150.5292263763733 -10.98229072758982, 150.46621442619346 -11.091271757181001, 150.4621002807615 -11.287998664378854" stroke="white" fill="transparent"/>
	</g>
	<g>
		<title>.centreline id(group_7_name)</title>
		<path d="M 145.77368762165713 2.222220949082973 C 143.86093785731398 1.5105614975377115, 142.0276467035443 0.7877673331377987, 140.36027688331527 0.10121467454479172 C 138.6929070630863 -0.585337984048214, 137.39115689846085 -1.1673438811615764, 136.5810382627539 -1.5871987878176 C 135.77091962704696 -2.007053694473622, 135.27925622645944 -2.322548393875735, 134.7747995803755 -2.6419035904330164" stroke="white" fill="transparent"/>
	</g>
	<g>
		<title>.centreline id(group_8_name)</title>
		<path d="M 165.11202351430848 -1.951374739732005 C 163.9241654419648 -2.94972530669722, 162.74479092482494 -3.937286501451289, 161.7677707028055 -4.872121654479842 C 160.79075048078607 -5.806956807508393, 160.13735262596964 -6.6368231160647575, 159.83785062400386 -7.327543032694008 C 159.53834862203811 -8.018262949323262, 159.48723994183885 -8.607929033301414, 159.4297039732222 -9.198753115267207" stroke="white" fill="transparent"/>
	</g>
	<g>
		<title>.centreline id(group_9_name)</title>
		<path d="M -34.8461641351532 11.993858298266616 C -34.932025770471405 12.550570861083422, -35.01822326276552 13.107826239793383, -35.10465396216485 13.66546746137398 C -35.191084661564204 14.22310868295458, -35.27774426786795 14.78112340231446, -35.364518320503635 15.339324824751225 C -35.4512923731393 15.897526247187981, -35.538180873171726 16.455914379576885, -35.62506937265068 17.014302508406644" stroke="white" fill="transparent"/>
	</g>
	<g>
		<title>.centreline id(group_10_name)</title>
		<path d="M -34.84616413515322 11.993858298266616 C -33.09871758523995 12.835121861133857, -31.351200047546296 13.676928858562459, -29.603770827870484 14.51903763171046 C -27.85634160819467 15.361146404858461, -26.10891955402633 16.203593972833076, -24.361501213828824 17.046210874926036 C -22.61408287363131 17.88882777701899, -20.866668225844148 18.731614023622438, -19.119253589207545 19.574400264845575" stroke="white" fill="transparent"/>
	</g>
	<g>
		<title>.centreline id(group_11_name)</title>
		<path d="M -221.4579558069646 -87.34683305931875 C -223.57687703494872 -80.7613343806323, -225.8004330010317 -80.4343143571912, -222.3608826671805 -79.98131326913837 C -218.9213323333293 -79.52831218108547, -216.36324149211117 -76.52709447115866, -213.6929429473101 -74.79180701546777 C -211.02264440250897 -73.0565195597769, -208.09368317745967 -71.80950163158563, -205.0104600189694 -70.60019247493277 C -201.92723686047916 -69.39088331827989, -198.87997695492675 -68.16608356543647, -195.91590512120544 -66.86953487514909 C -192.95183328748408 -65.57298618486169, -189.92735184604962 -64.4829785538705, -186.82985632893465 -63.566345658329546 C -183.7323608118196 -62.64971276278858, -180.63894305711844 -61.759496460894525, -177.5296540879462 -60.83934825671173 C -174.42036511877396 -59.919200052528936, -171.30257489946533 -59.03272722536718, -168.13466072900746 -58.054507591329354 C -164.96674655854966 -57.07628795729152, -161.78743862639783 -56.032027655505765, -158.62692183016262 -54.98919859981743 C -155.46640503392737 -53.94636954412904, -152.32353225912755 -52.88092649813809, -149.2355530747194 -51.74591706785164 C -146.14757389031124 -50.61090763756521, -143.14102166164628 -49.41889747141896, -140.12766811389005 -47.959360215257064 C -137.1143145661339 -46.49982295909514, -134.04395983963803 -44.938809600240695, -131.07942599767642 -43.24680102912506 C -128.11489215571478 -41.55479245800944, -125.21492749835264 -39.71780654269167, -122.22561371907238 -38.0613523680363 C -119.23629993979216 -36.40489819338094, -116.13886847310395 -34.99501442153839, -112.95416549357587 -33.87712662443478 C -109.76946251404783 -32.75923882733115, -106.53842497541326 -31.927499213449863, -103.30205173005757 -31.158314861164644 C -100.06567848470192 -30.389130508879447, -96.81823328789133 -29.66466423947478, -93.59126626944109 -28.76196703256568 C -90.36429925099092 -27.859269825656575, -87.14644446581946 -26.771497156631547, -84.14064422048492 -25.36396955308956 C -81.13484397515036 -23.956441949547575, -78.4524212501444 -22.26815929105348, -76.00793837246313 -20.170504823294937 C -73.56345549478188 -18.072850355536417, -70.87532989823004 -14.800392841285747, -68.1300195877367 -11.539059778025976 C -65.38470927724339 -8.277726714766196, -62.18688575432329 -5.524301699063061, -59.48476615916825 -3.028090311524989 C -56.78264656401321 -0.5318789239869206, -54.01989328593972 2.015955124748872, -51.215502492308644 4.509787358783441 C -48.41111169867759 7.00361959281801, -45.5385942901862 9.431079238599425, -42.64015191992233 11.793666670310266 C -39.74170954965847 14.15625410202111, -36.82363141702847 16.522582472603702, -34.178255293973926 19.01250282873417 C -31.532879170919397 21.50242318486464, -29.133553749014364 23.98361065434776, -26.49368717243275 26.303429238739074 C -23.85382059585112 28.623247823130384, -21.110183268303516 30.82391186490195, -18.272020632989225 32.91912794231756 C -15.43385799767494 35.01434401973318, -12.503020379406182 37.00239798780104, -9.49308462739555 38.88865525699667 C -6.4831488753849165 40.7749125261923, -3.393590936526766 42.559584626689876, -0.24069117211129898 44.24328130865891 C 2.91220859230417 45.92697799062794, 6.120520007280588 47.50722637584014, 9.386683261030512 48.986606224528266 C 12.652846514780439 50.465986073216406, 15.974806806886159 51.84089948102725, 19.321404124734272 53.08637522592076 C 22.66800144258238 54.33185097081427, 26.041290122992805 55.44841541994332, 29.388979059149204 56.40365299481792 C 32.736667995305616 57.358890569692534, 36.03884487238508 58.151178518053555, 39.27696139802016 58.74603865978517 C 42.51507792365525 59.340898801516765, 45.68660896742701 59.732399855711506, 48.756783893482044 59.86285802464219 C 51.82695881953707 59.993316193572895, 54.76350342506961 59.84414463460417, 57.6598027964703 59.431865804689544 C 60.55610216787103 59.0195869747749, 63.460079273013925 58.37209721184422, 66.5513198940259 57.66720850329124 C 69.64256051503786 56.96231979473828, 72.88155780961176 56.23985588986955, 76.38116384262666 55.55084676892197 C 79.88076987564158 54.8618376479744, 83.1153422848225 54.27546561725873, 87.36815198276098 53.52231388624838 C 91.62096168069945 52.76916215523804, 96.58618929735484 51.935472662238794, 101.1685090125852 51.007482754716065 C 105.75082872781556 50.07949284719331, 110.30050220629393 48.96753408510902, 114.70895184600398 47.43753064269973" stroke="white" fill="transparent"/>
		<path d="M 114.708951846004 47.43753064269973 C 119.11740148571405 45.90752720029043, 123.45160665712011 43.93066616445358, 127.48587618062473 41.435608264935226 C 131.52014570412928 38.94055036541685, 135.20542343828328 35.882288000420765, 138.67749612288364 32.59503885528887 C 142.14956880748397 29.30778971015699, 145.5123781132018 25.971409471129174, 148.5292012524454 22.28895105689561 C 151.546024391689 18.606492642662047, 153.98804408432335 15.083004136561666, 157.211989065689 10.852071261435803 C 160.43593404705467 6.621138386309933, 162.3837347723874 2.973178860255052, 164.18301654584698 -0.18984630468846087" stroke="white" fill="transparent"/>
		<path d="M 164.183016545847 -0.18984630468845864 C 165.98229831930658 -3.3528714696319697, 166.96710378585038 -6.600729271956925, 168.9494620014315 -8.696458973832835 C 170.9318202170126 -10.792188675708744, 173.59786009392474 -11.978263287166135, 176.68231067475304 -12.122331854719656" stroke="white" fill="transparent"/>
	</g>
</svg>
