<?xml version="1.0" ?>
<svg xmlns="http://www.w3.org/2000/svg" width="1000" height="1000" viewBox="-61 -279 184 427">
	<g>
		<title>.centreline id(group_1_name)</title>
		<path d="M -38.76407990290047 136.95711038948954 C -38.73175498580808 136.43328315844516, -38.696565548566944 135.86253410421259, -38.66539406842078 135.33885440116572 C -38.634222588274625 134.8151746981188, -38.604172648797494 134.29163710983565, -38.57638526850839 133.76842178271903 C -38.548597888219284 133.24520645560239, -38.523069829648875 132.72231045679024, -38.50103491179091 132.19996302635846 C -38.47899999393294 131.6776155959267, -38.46045479284252 131.15581356664288, -38.44677567267809 130.63487777125823 C -38.43309655251369 130.11394197587353, -38.424279847540376 129.59386807534187, -38.42189758669979 129.075121758818 C -38.41951532585921 128.5563754422941, -38.4235636723383 128.0389504919287, -38.43586677548029 127.52353257304395 C -38.44816987862229 127.0081146541593, -38.46872400374873 126.49469485366214, -38.499662876851446 125.98428663317458 C -38.53060174995417 125.47387841268706, -38.57192235863825 124.96646939610332, -38.62612016558079 124.46355316588479 C -38.680317972523305 123.96063693566627, -38.74739164385303 123.46219840303965, -38.830233480756746 122.97041113882464 C -38.91307531766045 122.47862387460957, -39.01168473593717 121.99348070006701, -39.12936330078578 121.51801746634558 C -39.247041865634394 121.04255423262418, -39.38496047386645 120.57746617311108, -39.54076609030291 120.12307505521218 C -39.696571706739384 119.66868393731332, -39.869716628871075 119.22472303126807, -40.056684178744305 118.79035285213395 C -40.24365172861751 118.35598267299976, -40.44444782785586 117.93119449496483, -40.6562419875534 117.51495204086126 C -40.868036147250926 117.09870958675776, -41.090836344828766 116.69100416953523, -41.32239171485355 116.29073458476161 C -41.55394708487834 115.89046499998796, -41.79426493943354 115.4976260752936, -42.041561134162855 115.11114842486522 C -42.288857328892185 114.72467077443682, -42.543137930353 114.34455187814822, -42.80298746726646 113.96980595103648 C -43.062837004179926 113.59506002392477, -43.3282603227653 113.22568617400977, -43.59813075495833 112.86080382181271 C -43.868001187151364 112.49592146961564, -44.14232254270103 112.13553064740783, -44.420193570747664 111.77885985434611 C -44.69806459879428 111.42218906128437, -44.979488278199874 111.0692388189688, -45.263739000527394 110.71934090749701 C -45.547989722854965 110.36944299602521, -45.835069820367266 110.0225981691551, -46.12439032172572 109.6782308781497 C -46.41371082308416 109.33386358714431, -46.7052735661941 108.99197467156074, -46.99859553478651 108.6520686425376 C -47.29191750337892 108.31216261351446, -47.587000162201704 107.97424031765793, -47.88344210421887 107.63787326307558 C -48.17988404623605 107.30150620849328, -48.47768645809693 106.96669521079878, -48.77650995942234 106.63306604792959 C -49.0753334607477 106.29943688506043, -49.375179034643324 105.96699032780857, -49.675753272487455 105.63539436474402 C -49.976327510331615 105.30379840167943, -50.27763125092575 104.97305375912661, -50.579403553592996 104.64285930933998 C -50.88117585626025 104.31266485955337, -51.1834174638347 103.9830212928684, -51.48588816389646 103.6536476801233 C -51.78835886395823 103.3242740673782, -52.09105934448842 102.99517107586274, -52.3937594899486 102.66606775465252" stroke="white" fill="transparent"/>
	</g>
	<g>
		<title>.centreline id(group_2_name)</title>
		<path d="M -5.141917583150236 49.14599500143397 C -5.610779221147647 48.87290478704564, -6.079604710772702 48.59985032934483, -6.547403060436356 48.32491840989841 C -7.015201410100013 48.04998649045201, -7.481948968514394 47.77322686283736, -7.946502483442197 47.49233970456153 C -8.411055998369998 47.211452546285706, -8.873452836241071 46.9264625402709, -9.332105725820297 46.634231994102635 C -9.790758615399517 46.342001447934365, -10.245725672723433 46.04255080428928, -10.694277639467977 45.73155584613693 C -11.142829606212526 45.42056088798454, -11.58506094259697 45.09802917317117, -12.016025372479323 44.75819255552939 C -12.44698980236167 44.41835593788761, -12.866852817727576 44.06116985227971, -13.266596914663532 43.679610626757785 C -13.666341011599487 43.29805140123592, -14.045915557900504 42.891820533649025, -14.390022602587951 42.45441690661235 C -14.734129647275397 42.01701327957566, -15.044850295208343 41.550703515538885, -15.330401319204817 41.067687441701516 C -15.615952343201293 40.58467136786416, -15.876288319268175 40.08486555975388, -16.11694380050375 39.57515898523956 C -16.357599281739326 39.065452410725214, -16.5785826244658 38.54570939792316, -16.782877440297742 38.019371519120234 C -16.987172256129696 37.49303364031732, -17.174785549113423 36.960015525927204, -17.34608159503047 36.4218935547003 C -17.517377640947497 35.88377158347339, -17.67237787540654 35.34048386247818, -17.808643383603002 34.79275745130011 C -17.944908891799475 34.24503104012204, -18.062479516454392 33.69279006126943, -18.155667204512778 33.13686679759437 C -18.24885489257115 32.58094353391932, -18.317753876179776 32.02117161815167, -18.352503126823663 31.46007962304866 C -18.387252377467565 30.89898762794569, -18.383673214031262 30.337317660336552, -18.350399073481935 29.77729384365543 C -18.3171249329326 29.217270026974305, -18.255618123335882 28.65882926982505, -18.17535441664997 28.10289795562393 C -18.095090709964058 27.546966641422813, -17.995995062420217 26.993501109054694, -17.88441588451431 26.442458714071456 C -17.772836706608402 25.891416319088226, -17.64871687487482 25.34276305889164, -17.51626679252229 24.796076899797807 C -17.38381671016976 24.249390740703962, -17.242997156971825 23.70465719117017, -17.096593105924228 23.16140426305549 C -16.95018905487665 22.618151334940816, -16.798174644575212 22.07637457443337, -16.642388620262903 21.535673564090395 C -16.486602595950586 20.994972553747413, -16.327028141290434 20.455346855911337, -16.16487187643142 19.916494623114026 C -16.002715611572405 19.37764239031672, -15.83796671669659 18.839564441837474, -15.67140325827561 18.302050415890605 C -15.504839799854633 17.76453638994373, -15.33645498252508 17.227587239959956, -15.166728205536012 16.691069021695164 C -14.997001428546943 16.154550803430368, -14.825928698943658 15.618464179163006, -14.653770352281011 15.082738750877338 C -14.481612005618361 14.547013322591674, -14.308366136065285 14.011649283915746, -14.134117532409068 13.47663295687502 C -13.959868928752854 12.941616629834297, -13.784617406002045 12.406947574695817, -13.608287538931416 11.872670217237472 C -13.43195767186078 11.338392859779123, -13.254550848760758 10.80450571137064, -13.075822200356646 10.27112462867815 C -12.897093551952544 9.737743545985662, -12.71704578947608 9.204864342390982, -12.535232973695837 8.672712466136959 C -12.353420157915584 8.140560589882934, -12.169844243732822 7.609120465935171, -11.983817059387789 7.078852075299423 C -11.79778987504276 6.548583684663675, -11.609295484911334 6.019406865468365, -11.41745821129529 5.492601045776311 C -11.225620937679249 4.965795226084258, -11.030317835112694 4.4416876358006325, -10.832419654426158 3.9189691080621003 C -10.634521473739625 3.396250580323567, -10.434063175410474 2.8749862334672978, -10.231834036659905 2.3546652353103648 C -10.029604897909326 1.8343442371534304, -9.825603329579808 1.3149827200883824, -9.620391892532304 0.796284116538061 C -9.4151804554848 0.2775855129877397, -9.208755193247692 -0.2404466551282114, -9.001502584304928 -0.7580151072929198 C -8.794249975362169 -1.2755835594576281, -8.586166924034012 -1.7926868416312578, -8.37751734403373 -2.30946752471381 C -8.168867764033449 -2.826248207796362, -7.959649508059615 -3.342705345238977, -7.750042851978467 -3.8589390060913056 C -7.540436195897319 -4.375172666943634, -7.330439680622385 -4.891182163233644, -7.120176622373773 -5.407037318996556 C -6.90991356412516 -5.922892474759471, -6.699382972596769 -6.438592790014324, -6.488669321334132 -6.954186748773382 C -6.277955670071495 -7.469780707532439, -6.067058285332101 -7.985267951988754, -5.856035111988714 -8.500682036433076 C -5.6450119386453235 -9.016096120877398, -5.433862517115863 -9.531436792512975, -5.222626654138 -10.046727227300078 C -5.011390791160138 -10.562017662087184, -4.800068172447501 -11.077257682938562, -4.588686197963954 -11.592463286034361 C -4.377304223480406 -12.107668889130156, -4.165862677685895 -12.622839951005746, -3.954380478737278 -13.13798752159515 C -3.7428982797886583 -13.653135092184554, -3.53137527924811 -14.168259085493881, -3.31982461031955 -14.683367160518024 C -3.10827394139099 -15.198475235542162, -2.896695501092203 -15.713567332157783, -2.6850985008033694 -16.228648802781994 C -2.4735015005145367 -16.743730273406214, -2.261885867774957 -17.25880107551455, -2.050258192394274 -17.773865016414863 C -1.8386305170135917 -18.288928957315168, -1.6269907465996167 -18.803986006158702, -1.4153437747946822 -19.31903896931813 C -1.2036968029897472 -19.834091932477556, -0.992042589953903 -20.34914078644764, -0.7803850168416839 -20.864187739719718 C -0.5687274437294657 -21.379234692991798, -0.3570664775679546 -21.894279726092783, -0.14540552680148988 -22.409324768288073" stroke="white" fill="transparent"/>
	</g>
	<g>
		<title>.centreline id(group_3_name)</title>
		<path d="M -26.061698418431412 27.86199856438759 C -26.49773213925739 28.23851192641174, -26.93376587103083 28.615025297888796, -27.369799591857465 28.991538659913456 C -27.805833312684126 29.368052021938105, -28.241867033510726 29.74456538396341, -28.677900754337024 30.121078745987862 C -29.113934475163298 30.497592108012327, -29.549968195989287 30.874105470036138, -29.98600191681547 31.250618832060255 C -30.422035637641685 31.627132194084368, -30.858069358468168 32.003645556108886, -31.294103079294498 32.380158918133425 C -31.7301368001208 32.75667228015795, -32.166170520946714 33.13318564218194, -32.6022042417728 33.50969900420607 C -33.03823796259892 33.8862123662302, -33.47427168342503 34.262725728254004, -33.910305404251304 34.63923909027843 C -34.34633912507757 35.01575245230287, -34.782372845904234 35.392265814328475, -35.218406566730515 35.76877917635296 C -35.6544402875568 36.14529253837744, -36.09047400838297 36.521805900401745, -36.5265077292092 36.89831926242621" stroke="white" fill="transparent"/>
	</g>
	<g>
		<title>.centreline id(group_4_name)</title>
		<path d="M -2.9167226707842175 -17.178421698412144 C -2.547180068264684 -17.3076655102157, -2.177501791302238 -17.436907318250586, -1.8202802692813045 -17.571145959979923 C -1.4630587472603716 -17.70538460170925, -1.118019399997922 -17.844625878740878, -0.801065871226925 -17.9941533212192 C -0.48411234245592755 -18.143680763697525, -0.19494534107375353 -18.30357361730869, 0.043197731526532834 -18.47898854859693 C 0.28134080412681917 -18.654403479885172, 0.46861475008049636 -18.845646791806768, 0.5708234511002281 -19.055250954563654 C 0.6730321521199599 -19.264855117320536, 0.689322463965736 -19.493415106300795, 0.5785152814768679 -19.73420961331897 C 0.46770809898799987 -19.975004120337147, 0.21669750629738277 -20.22696446401855, -0.15778787127044308 -20.472697078591114 C -0.5322732488382692 -20.71842969316369, -1.0111451510651315 -20.956898340562198, -1.5271799296016009 -21.1855515141051 C -2.0432147081380707 -21.414204687647985, -2.597824490589174 -21.63393059607395, -3.1513205609254804 -21.853296402931548" stroke="white" fill="transparent"/>
	</g>
	<g>
		<title>.centreline id(group_5_name)</title>
		<path d="M -26.061698418431412 27.86199856438759 C -26.35413467040718 28.34413334187076, -26.646570926233288 28.82626812570193, -26.93900717821025 29.30840290318706 C -27.231443430187213 29.790537680672188, -27.52387968216415 30.27267245815734, -27.816315934141084 30.754807235642282 C -28.108752186118014 31.23694201312722, -28.40118843809501 31.719076790612082, -28.693624690072035 32.2012115680972 C -28.986060942049086 32.68334634558233, -29.27849719402606 33.1654811230674, -29.570933446003018 33.64761590055239 C -29.863369697979966 34.12975067803736, -30.155805949956964 34.611885455522426, -30.44824220193395 35.09402023300755 C -30.740678453910938 35.5761550104927, -31.033114705887805 36.05828978797759, -31.325550957864717 36.540424565462565 C -31.617987209841633 37.022559342947524, -31.91042346181865 37.50469412043273, -32.202859713795604 37.98682889791777 C -32.49529596577255 38.46896367540279, -32.787732217749266 38.95109845288709, -33.08016846972616 39.433233230371876 C -33.37260472170306 39.91536800785665, -33.665040973680405 40.397502785342716, -33.957477225657456 40.87963756282791 C -34.24991347763449 41.36177234031309, -34.5423497296114 41.84390711779791, -34.834785981588375 42.32604189528308 C -35.127222233565355 42.808176672768255, -35.41965848554227 43.29031145025344, -35.71209473751901 43.772446227738115" stroke="white" fill="transparent"/>
	</g>
	<g>
		<title>.centreline id(group_6_name)</title>
		<path d="M 21.255482726671847 -70.37347498255235 C 21.565455787028927 -70.55896712734241, 21.88513702578759 -70.75026922255864, 22.19517512932137 -70.93576313523947 C 22.505213232855166 -71.12125704792025, 22.815313953873122 -71.30675299966387, 23.12558164134944 -71.49224841474219 C 23.435849328825757 -71.67774382982054, 23.746277497993162 -71.86323906101526, 24.057093824538164 -72.04873288036428 C 24.367910151083162 -72.2342266997133, 24.679099535133517 -72.41971932704105, 24.991167830630193 -72.60520760468522 C 25.30323612612688 -72.79069588232939, 25.6161500645631 -72.97618063193642, 25.931039446567258 -73.16165038683255 C 26.245928828571422 -73.34712014172865, 26.56272204577012 -73.53257862223109, 26.883926818131496 -73.71797831471494 C 27.20513159049286 -73.90337800719882, 27.53060222439069 -74.08873561539167, 27.86580757976768 -74.27384239046977 C 28.201012935144668 -74.45894916554782, 28.545692060412495 -74.64387334960722, 28.91132315672446 -74.82771247005361 C 29.276954253036443 -75.0115515905, 29.66311836476542 -75.19450086137924, 30.092436162317377 -75.37316028435103 C 30.521753959869322 -75.55181970732284, 31.00564948689339 -75.72449276642426, 31.51973093207003 -75.89217474598216 C 32.03381237724667 -76.05985672554006, 32.574137437236836 -76.22307449045688, 33.12430280811627 -76.38403216285172 C 33.67446817899569 -76.54498983524654, 34.23516235678227 -76.70368730726673, 34.80057497712485 -76.8616630820313 C 35.36598759746744 -77.01963885679591, 35.936352412446894 -77.17685939316411, 36.510179737255825 -77.33454693805632 C 37.084007062064764 -77.49223448294856, 37.66136061677188 -77.6503464476845, 38.24314017675013 -77.81038499453717 C 38.82491973672838 -77.97042354138982, 39.41119202552339 -78.13234540852041, 40.0045698771651 -78.2986151915711 C 40.59794772880683 -78.4648849746218, 41.198662671632114 -78.63546916421042, 41.80916398112826 -78.81442476583845 C 42.41966529062443 -78.99338036746646, 43.041413540031314 -79.18282436630501, 43.665481394302546 -79.37677292244405 C 44.289549248573785 -79.57072147858305, 44.91541257234083 -79.76851979664391, 45.540357714137855 -79.96619881653706 C 46.165302855934904 -80.16387783643023, 46.78966061760446 -80.36166691392528, 47.41345222663715 -80.55662558732517 C 48.037243835669805 -80.75158426072507, 48.660607851771616 -80.94391804468165, 49.28342410583761 -81.1287590067885 C 49.906240359903606 -81.31359996889537, 50.52883390375451 -81.49134393417663, 51.14817221237311 -81.65104776305667 C 51.76751052099169 -81.81075159193671, 52.38458303766142 -81.95324451919598, 52.9846339063862 -82.05273984749681 C 53.58468477511101 -82.15223517579761, 54.16012610456649 -82.19487596512022, 54.705498004813776 -82.19032181661855 C 55.25086990506108 -82.18576766811684, 55.770591826772716 -82.1433610256512, 56.27614173824435 -82.08556331037812 C 56.78169164971595 -82.02776559510511, 57.27324154084757 -81.95386895810688, 57.75919307974319 -81.87424361595963 C 58.245144618638825 -81.79461827381238, 58.7253700483419 -81.7088860198692, 59.205688449032394 -81.62326536989939" stroke="white" fill="transparent"/>
	</g>
	<g>
		<title>.centreline id(group_7_name)</title>
		<path d="M 42.214930159912825 -78.93438128396508 C 42.59641660592487 -79.35170269393855, 42.9775994694438 -79.76869340907288, 43.36044043224706 -80.18480103066858 C 43.74328139505032 -80.60090865226431, 44.12747782591704 -81.01580343288549, 44.51436928948014 -81.42823208971923 C 44.90126075304325 -81.84066074655297, 45.29084856727852 -82.2506258257009, 45.684441096704845 -82.65680125073338 C 46.07803362613115 -83.06297667576587, 46.47563253047439 -83.46536499484736, 46.87849445248522 -83.86253076372957 C 47.281356374496056 -84.25969653261177, 47.68948343332337 -84.65164223551177, 48.104054177210436 -85.036786910205 C 48.51862492109749 -85.42193158489825, 48.93964185074893 -85.80027737729286, 49.36817252326139 -86.17006425182456 C 49.79670319577384 -86.53985112635623, 50.232749066624265 -86.9010795647113, 50.6772356368016 -87.25178928217585 C 51.12172220697895 -87.60249899964043, 51.57487638520655 -87.94236896878775, 52.03665782138054 -88.27041640763854 C 52.49843925755451 -88.59846384648928, 52.96846087532885 -88.91516926799716, 53.4451117490071 -89.22181136853186 C 53.921762622685364 -89.52845346906662, 54.40504214416808 -89.82503263684224, 54.89356113259663 -90.11290007159009 C 55.382080121025176 -90.40076750633794, 55.8758407895767 -90.67992486365188, 56.37365957935356 -90.95177790739274 C 56.87147836913041 -91.22363095113369, 57.37335786623923 -91.48818100047666, 57.87828516049851 -91.74686704890927 C 58.3832124547578 -92.00555309734187, 58.89119008239474 -92.25837601995666, 59.40133912495839 -92.50679284239457 C 59.911488167522016 -92.75520966483249, 60.42381104790301 -92.99922091326712, 60.93752743283318 -93.24029225177922 C 61.45124381776335 -93.48136359029132, 61.9663560289254 -93.71949530604599, 62.48214844815166 -93.95615656506764 C 62.99794086737793 -94.1928178240893, 63.51441574979471 -94.42800877542729, 64.03088951616462 -94.66319967479164" stroke="white" fill="transparent"/>
	</g>
	<g>
		<title>.centreline id(group_8_name)</title>
		<path d="M -32.37983897920838 137.64512279897903 C -32.371669201284895 137.1323631653307, -32.359670387994015 136.36364002502688, -32.353471604436166 135.8507523124964 C -32.347272820878295 135.33786459996594, -32.34286139804869 134.8248474971828, -32.34181714162533 134.31189770396455 C -32.340772885201964 133.79894791074642, -32.34309330538558 133.2860490318142, -32.35043161063858 132.77333892526596 C -32.35776991589158 132.2606288187176, -32.37012389299292 131.74810231428984, -32.389255152181384 131.23597273181514 C -32.40838641136986 130.72384314934038, -32.43429295038927 130.21210647164895, -32.46887666468749 129.70111357008935 C -32.50346037898572 129.19012066852983, -32.54671966434739 128.67986678568977, -32.600724355939086 128.17090229281783 C -32.654729047530786 127.66193779994583, -32.71947824997834 127.15425692151796, -32.797229473170276 126.64868507617184 C -32.87498069636223 126.14311323082566, -32.965733861696634 125.6396452548266, -33.0719421570072 125.1394635211907 C -33.17815045231778 124.63928178755481, -33.299907160314554 124.1424182379794, -33.439569493472355 123.650344729537 C -33.579231826630135 123.1582712210946, -33.73620679630848 122.67086825685051, -33.90782412694032 122.1882563346414 C -34.07944145757219 121.70564441243228, -34.26570087881198 121.22782553953631, -34.46428955275635 120.75472814235164 C -34.662878226700705 120.28163074516705, -34.87379863435947 119.81325056503515, -35.09507486612432 119.3493535020413 C -35.316351097889175 118.88545643904745, -35.54798616147144 118.42603863494264, -35.78829982725901 117.97076290127154 C -36.02861349304658 117.51548716760037, -36.27760866575531 117.06435075614573, -36.53385721989778 116.61696008933238 C -36.790105774040256 116.16956942251906, -37.05361032816658 115.72592268079731, -37.3231543038177 115.28560177025908 C -37.59269827946884 114.84528085972089, -37.8682839679918 114.4082846393791, -38.148870299580544 113.97419091028628 C -38.42945663116927 113.54009718119349, -38.71504558294028 113.10890528027599, -39.00474024554017 112.68020111791041 C -39.29443490814005 112.25149695554482, -39.58823697940249 111.82528019965923, -39.885366694185855 111.4011513721683 C -40.18249640896921 110.97702254467737, -40.482955228482 110.55498153987152, -40.786057279550946 110.13464607170523 C -41.08915933061988 109.7143106035389, -41.394905881369695 109.29568071906424, -41.702684833709085 108.87839124776411 C -42.01046378604848 108.46110177646398, -42.320276256383 108.04515286674754, -42.63156632138184 107.63019461408221 C -42.942856386380676 107.21523636141686, -43.25562504888271 106.80126897969632, -43.56935689692391 106.387954822405 C -43.88308874496505 105.9746406651137, -44.19778470281896 105.56197998630186, -44.512955609806596 105.14964365958456 C -44.82812651679425 104.73730733286732, -45.14377325111401 104.32529563389176, -45.45941955392354 103.91328379369453" stroke="white" fill="transparent"/>
	</g>
	<g>
		<title>.centreline id(group_9_name)</title>
		<path d="M -12.869996506025702 109.23085466325345 C -12.991784660412543 108.71859364352684, -13.11266651964249 108.21013967232206, -13.234805411108198 107.697987579568 C -13.356944302573908 107.18583548681393, -13.47943458719505 106.67379245776576, -13.602635783050424 106.1619719920731 C -13.725836978905805 105.65015152638045, -13.84974863545912 105.13855334404677, -13.97474363379927 104.62729840470202 C -14.099738632139418 104.11604346535724, -14.2258165063018 103.6051314601936, -14.353370395211067 103.09469509311742 C -14.480924284120338 102.58425872604118, -14.609953702781269 102.07429763838543, -14.740879206645552 101.56496113681999 C -14.871804710509831 101.05562463525457, -15.004625792390199 100.54691229064866, -15.13979790352696 100.03899573831079 C -15.27497001466372 99.53107918597294, -15.412492624497773 99.02395790188758, -15.552863918449326 98.51783276579603 C -15.693235212400884 98.01170762970445, -15.836454638697607 97.5065779925578, -15.983071315243626 97.00268247596699 C -16.129687991789638 96.49878695937619, -16.279701352989974 95.99612475168797, -16.43371994741509 95.49498278145803 C -16.587738541840203 94.99384081122814, -16.745761805504987 94.49421805739094, -16.908466361242084 93.9964629934421 C -17.07117091697917 93.49870792949321, -17.238556230060627 93.00281926707021, -17.411375487622916 92.50922368616581 C -17.58419474518521 92.01562810526147, -17.762447487719424 91.5243239797424, -17.946971285897312 91.03583720146177 C -18.131495084075194 90.54735042318114, -18.32228962648283 90.06167894510904, -18.520283174006643 89.5794743222301 C -18.718276721530447 89.09726969935116, -18.923469221160396 88.61852937367689, -19.136883110809457 88.14406371046796 C -19.35029700045852 87.66959804725906, -19.571932636114624 87.19940391298368, -19.802905407386334 86.73449148917369 C -20.033878178658036 86.26957906536369, -20.274188966420702 85.80994477671838, -20.5250380658518 85.35684731404928 C -20.775887165282896 84.90374985138013, -21.037275441296032 84.45718648342934, -21.310474935781883 84.01871249324269 C -21.583674430267727 83.58023850305608, -21.86879270082295 83.1499435075886, -22.166826670420054 82.72940376299714 C -22.464860640017154 82.30886401840567, -22.775305185238423 81.89773386703915, -23.09578084360359 81.49495088497628 C -23.416256501968743 81.09216790291335, -23.74676371007618 80.69773287156785, -24.085254512152673 80.31051035520788 C -24.423745314229176 79.92328783884794, -24.770223474930415 79.54327533601132, -25.122935788506076 79.16928414104697 C -25.475648102081724 78.79529294608264, -25.83459856682556 78.42732115413398, -26.19827130117315 78.06415818705493 C -26.561944035520742 77.70099521997588, -26.930342719534956 77.34264003202038, -27.302132879171136 76.98788000055833 C -27.673923038807306 76.63311996909623, -28.04910799624578 76.2819546893503, -28.426483790327612 75.93317845674319 C -28.803859584409455 75.58440222413608, -29.183429255154923 75.2380150472868, -29.564073090344458 74.89281958045031 C -29.944716925533996 74.54762411361386, -30.326437789782258 74.20362059330817, -30.708157251321964 73.85961691846346" stroke="white" fill="transparent"/>
	</g>
	<g>
		<title>.centreline id(group_10_name)</title>
		<path d="M -14.706798889475342 96.97271664445934 C -14.64430144764854 96.73627906639437, -14.581790534039996 96.49981080331341, -14.523141375977552 96.26201707368763 C -14.464492217915106 96.02422334406184, -14.409685616441543 95.78507213918347, -14.362750976969014 95.54323052335889 C -14.31581633749648 95.3013889075343, -14.276743133449434 95.05685273712488, -14.249894331742627 94.80835067492242 C -14.223045530035824 94.55984861271997, -14.208412859999095 94.30737272983168, -14.21083566396494 94.04979418593014 C -14.213258467930785 93.79221564202852, -14.232733934442008 93.52952056172016, -14.274666717680105 93.26087307621991 C -14.316599500918194 92.9922255907197, -14.380997542558966 92.71760545185234, -14.473803261347069 92.43671325541553 C -14.566608980135175 92.15582105897882, -14.687839351324449 91.86864739452066, -14.843781072907621 91.57567932593992 C -14.99972279449079 91.28271125735914, -15.192433786660258 90.98373008525944, -15.415594880203686 90.68147403538869 C -15.63875597374712 90.37921798551788, -15.891670409440756 90.07382073243598, -16.16708115134858 89.7674122617889 C -16.442491893256403 89.46100379114192, -16.740406541786054 89.1535659207438, -17.05496834569254 88.84628971921444 C -17.369530149599026 88.539013517685, -17.700758081864866 88.23187956693933, -18.04398891077477 87.92542192460769 C -18.387219739684678 87.61896428227607, -18.74247309417332 87.31316880634759, -19.1059970807594 87.00815097458941 C -19.46952106734548 86.70313314283128, -19.84133322136858 86.39888338985176, -20.21832390182348 86.09526476556127 C -20.595314582278384 85.79164614127068, -20.97749907416007 85.48865213212314, -21.36217275168639 85.18600513747757 C -21.74684642921271 84.88335814283204, -22.13402304300645 84.58105334112751, -22.521193048050304 84.27875068106441" stroke="white" fill="transparent"/>
	</g>
	<g>
		<title>.centreline id(group_11_name)</title>
		<path d="M -26.43944778767825 89.75753331394517 C -26.276823093989215 89.17624047225296, -26.114207727656645 88.59498894421954, -25.96156859515708 88.01102055228746 C -25.808929462657513 87.42705216035539, -25.666272043609293 86.8403712844333, -25.54390422539712 86.24939983388353 C -25.42153640718495 85.65842838333374, -25.31946676521378 85.06310923284498, -25.248366304654233 84.4638469488178 C -25.1772658440947 83.86458466479067, -25.13858253075028 83.26140216154913, -25.138143267024144 82.65695999236725 C -25.137704003298 82.05251782318534, -25.17222819164663 81.44724459690394, -25.229900729917983 80.8434839334205 C -25.287573268189327 80.23972326993712, -25.368371512433026 79.63743118751975, -25.460611911683575 79.03659785777883 C -25.55285231093413 78.43576452803788, -25.656543677784978 77.83629904228918, -25.760225163446805 77.23688064977667" stroke="white" fill="transparent"/>
	</g>
	<g>
		<title>.centreline id(group_12_name)</title>
		<path d="M -14.706798889475342 96.97271664445934 C -15.340856912994578 96.89770787165263, -15.974911944761708 96.82272835194883, -16.606789357662755 96.73658001931844 C -17.23866677056381 96.65043168668802, -17.86844544425195 96.55315127292793, -18.49197679355458 96.43297657829899 C -19.115508142857212 96.31280188367013, -19.73298943177974 96.16970977877207, -20.336053113819332 95.99122725647192 C -20.939116795858908 95.81274473417169, -21.52798891423672 95.59873265217173, -22.087019121869787 95.3370767929718 C -22.646049329502862 95.07542093377182, -23.173227616778913 94.76563256982408, -23.65112976607586 94.3997839575753 C -24.12903191537282 94.03393534532655, -24.560221078402737 93.61202132415346, -24.931628927428314 93.13401246348074 C -25.303036776453883 92.65600360280804, -25.610499412799903 92.12025608581646, -25.848295389818364 91.54436495978399 C -26.086091366836836 90.96847383375147, -26.263546393998272 90.36039086054012, -26.440484540994262 89.75398010705172" stroke="white" fill="transparent"/>
	</g>
	<g>
		<title>.centreline id(group_13_name)</title>
		<path d="M -26.43944778767825 89.75753331394517 C -26.566704414980045 89.14795987839962, -26.694079245516303 88.53771679384559, -26.87624678618682 87.94174141137069 C -27.058414326857335 87.34576602889581, -27.30112702658767 86.76610402423488, -27.59822033516398 86.20945003800661 C -27.895313643740288 85.65279605177834, -28.24587744807596 85.1191884752569, -28.640524830881894 84.61503293582756 C -29.03517221368784 84.11087739639822, -29.473885801852223 83.63617014130173, -29.947286523905763 83.19658118228993 C -30.420687245959314 82.75699222327808, -30.929471106175452 82.3538665379361, -31.4619123356115 81.98701199694852 C -31.994353565047533 81.62015745596095, -32.54911991998401 81.28804220034374, -33.11461137273391 80.98066726782287 C -33.680102825483786 80.673292335302, -34.25646409072546 80.39053590369642, -34.836902257769786 80.12045315708664 C -35.41734042481413 79.8503704104769, -36.002033577882656 79.5928967571338, -36.58664016732658 79.33544259056913" stroke="white" fill="transparent"/>
	</g>
	<g>
		<title>.centreline id(group_14_name)</title>
		<path d="M -22.787215455467503 128.90734004551035 C -22.82894460166859 128.474883194095, -22.872449830423587 128.02445104731487, -22.918761441586458 127.58617424092789 C -22.965073052749336 127.14789743454094, -23.015903797054374 126.70383187513755, -23.076034330489787 126.24902515821648 C -23.13616486392517 125.79421844129544, -23.20560318549592 125.32853504276028, -23.289515643654006 124.84903485146069 C -23.373428101812113 124.36953466016112, -23.47186494227747 123.87601918631282, -23.58997810963605 123.37002271393924 C -23.70809127699461 122.86402624156561, -23.847027868010866 122.34527154775657, -24.006996629812143 121.8226455636505 C -24.166965391613413 121.30001957954443, -24.346206042590882 120.77476702359286, -24.53968657931523 120.25586647093239 C -24.733167116039596 119.73696591827193, -24.94089601940186 119.22428830270628, -25.160499565424626 118.72198047756561 C -25.380103111447383 118.21967265242492, -25.61162300915693 117.72757365764376, -25.85491006702073 117.24729842474217 C -26.09819712488453 116.76702319184064, -26.353282237612717 116.29846620198404, -26.62172398579388 115.84260565154392 C -26.890165733975056 115.38674510110378, -27.171982920177943 114.94351189594107, -27.47010493172592 114.5144683748204 C -27.7682269432739 114.08542485369972, -28.083751439410143 113.67126936290879, -28.416692772692098 113.27220916589575 C -28.74963410597404 112.87314896888263, -29.0985199046901 112.48828875801193, -29.458615795457792 112.11462610957216 C -29.818711686225495 111.74096346113245, -30.19004345697007 111.37850275773258, -30.56928271454893 111.02472612517992 C -30.94852197212779 110.67094949262723, -31.33569427022744 110.32585743966207, -31.728483073317687 109.98738950987834 C -32.121271876407924 109.64892158009471, -32.519695457615704 109.3170810153362, -32.92212864612533 108.99022813242162 C -33.32456183463497 108.66337524950703, -33.731016938124014 108.34151455551833, -34.140338213155495 108.0233629577658 C -34.54965948818695 107.70521136001325, -34.96185520430884 107.39077341613427, -35.376089574618284 107.07905146803722 C -35.79032394492775 106.76732951994016, -36.2066026229703 106.4583276590754, -36.62430832069676 106.15126730156253 C -37.042014018423224 105.84420694404962, -37.46115071577193 105.53909159367437, -37.8812491608133 105.23530414523286 C -38.30134760585467 104.9315166967914, -38.72241072191376 104.62906012516997, -39.144066612698474 104.32743000593322 C -39.56572250348317 104.02579988669643, -39.98797345081018 103.72499879678679, -40.41050657297443 103.42459334776301 C -40.83303969513867 103.12418789873921, -41.25585692952022 102.82418042495185, -41.678673249472766 102.5241718245589" stroke="white" fill="transparent"/>
	</g>
	<g>
		<title>.centreline id(group_15_name)</title>
		<path d="M 20.49546763757069 -65.43990773586205 C 19.964931383211855 -65.36824113364906, 19.431212231976588 -65.29615041183372, 18.900969249407144 -65.22377448842158 C 18.370726266837693 -65.15139856500946, 17.84077150989632 -65.07832438754356, 17.31148974219616 -65.00360953427445 C 16.782207974495996 -64.92889468100533, 16.25358586889804 -64.85256435630075, 15.726240454670057 -64.77314832112478 C 15.19889504044208 -64.69373228594878, 14.672798654481861 -64.61127153738512, 14.14908932110248 -64.52328141055887 C 13.625379987723099 -64.43529128373258, 13.103996108684079 -64.34183793839945, 12.587217634164297 -64.2386301528873 C 12.070439159644522 -64.13542236737514, 11.558123873141717 -64.02255963824376, 11.055103474955425 -63.89270295877575 C 10.552083076769124 -63.762846279307745, 10.058054418899026 -63.616124026335505, 9.583534534234577 -63.44041231312245 C 9.109014649570133 -63.26470059990935, 8.658704731284429 -63.05465324965218, 8.232938870316568 -62.81463942477741 C 7.807173009348703 -62.57462559990269, 7.402570891094292 -62.308906957396395, 7.011017725119341 -62.029214115454856 C 6.619464559144391 -61.74952127351331, 6.24101928687482 -61.455631502083925, 5.870623093582337 -61.15337333871546 C 5.500226900289855 -60.851115175346955, 5.137922285703058 -60.540369180622214, 4.780929718614976 -60.22356913744922 C 4.423937151526891 -59.90676909427622, 4.0722831228349845 -59.583869382176246, 3.7249109186941345 -59.25508110384556 C 3.3775387145532854 -58.926292825514935, 3.0344472524150152 -58.5916156264604, 2.6960902395935094 -58.2493487527953 C 2.357733226772003 -57.90708187913018, 2.0240667843733613 -57.55725262921332, 1.6973522095876925 -57.19601264923651 C 1.370637634802023 -56.834772669259664, 1.0507526703534777 -56.46213772604501, 0.7429206315136265 -56.071679754574824 C 0.435088592673776 -55.68122178310466, 0.1390435617967174 -55.27281632256763, -0.134301757559804 -54.83799027484448 C -0.4076470769163254 -54.403164227121366, -0.658856751514794 -53.941340322730106, -0.8654458661371365 -53.44638903953457 C -1.072034980759479 -52.95143775633904, -1.225496115801366 -52.421197980394844, -1.340356656902223 -51.87432998775937 C -1.4552171980030797 -51.3274619951239, -1.5335816665731972 -50.76506044988326, -1.5899519671720412 -50.19803789470784 C -1.646322267770885 -49.63101533953237, -1.6805752806406362 -49.058976118087905, -1.7018736961581031 -48.4858267705102 C -1.7231721116755696 -47.9126774229325, -1.7314054879627572 -47.33821747026229, -1.732201388823562 -46.76360462563345 C -1.7329972896843666 -46.18899178100465, -1.7262769320827982 -45.61414287928553, -1.7155506465141668 -45.03937120760701 C -1.7048243609455356 -44.464599535928464, -1.690036861988237 -43.88983630639365, -1.6735672544076927 -43.31552409109942 C -1.6570976468271488 -42.741211875805234, -1.6389642436414733 -42.16736526971685, -1.6209540125922892 -41.59568671361279 C -1.6029437815431047 -41.02400815750871, -1.5848064264514252 -40.45382152531067, -1.5666714437426992 -39.88426170366423 C -1.5485364610339727 -39.31470188201777, -1.5304040268513535 -38.74585356124732, -1.5124276911230232 -38.17752548990982 C -1.4944513553946923 -37.609197418572336, -1.4766286750982476 -37.041397923278, -1.4591584594398976 -36.474089972442734 C -1.4416882437815484 -35.906782021607455, -1.424566647182339 -35.33996352710317, -1.40808453356075 -34.77372281701792 C -1.3916024199391608 -34.207482106932645, -1.3757538337975972 -33.64181226524826, -1.3609937255126 -33.076989556930606 C -1.3462336172276026 -32.512166848612935, -1.3325524907587416 -31.948174015909025, -1.320682867496259 -31.38563989647965 C -1.3088132442337763 -30.823105777050294, -1.2987399342190635 -30.261984965835634, -1.2916543955714197 -29.703680249218646 C -1.2845688569237763 -29.145375532601648, -1.28044632181497 -28.589741149621116, -1.281228912065096 -28.040183322492783 C -1.2820115023152219 -27.490625495364462, -1.2877803557835092 -26.94736775156429, -1.301303704917554 -26.41783261751803 C -1.3148270540515987 -25.888297483471753, -1.335588551558273 -25.37053399769544, -1.364037487696592 -24.859304465532688 C -1.3924864238349108 -24.34807493336994, -1.4286024285402368 -23.843472608587707, -1.4745618144702815 -23.341305448652875 C -1.5205212004003255 -22.839138288718047, -1.5762900707777519 -22.33938271213363, -1.6461804732881187 -21.838527081179375 C -1.7160708757984857 -21.337671450225127, -1.8000480493379336 -20.83560498338571, -1.905103889890238 -20.330323416841487 C -2.0101597304425423 -19.82504185029727, -2.1363076627967654 -19.316133219241486, -2.293538067805553 -18.80644395733276 C -2.4507684728143406 -18.29675469542402, -2.6425049274288033 -17.787936856848464, -2.8674914690932325 -17.286931415664668 C -3.0924780107576626 -16.78592597448089, -3.3467820805709607 -16.291705173193137, -3.61849557823969 -15.805334372231943 C -3.8902090759084196 -15.318963571270743, -4.179443320418873 -14.84036761915265, -4.478993543499997 -14.368659322240322 C -4.7785437665811195 -13.896951025327992, -5.088519865330834 -13.432050931761284, -5.4046916778879925 -12.972380870380384 C -5.720863490445148 -12.51271080899948, -6.043298327352872 -12.058240210771059, -6.369458139085798 -11.607442757727405 C -6.695617950818727 -11.15664530468376, -7.025540776638422 -10.709515250515585, -7.357628554139495 -10.264799029036034 C -7.689716331640568 -9.820082807556478, -8.02399116028682 -9.3777838760354, -8.359364942713913 -8.93691566806659 C -8.694738725141004 -8.49604746009778, -9.031225629394449 -8.056616158288735, -9.367986393621095 -7.617820876995209 C -9.704747157847748 -7.179025595701687, -10.041792607742295 -6.74087316416045, -10.378350854104042 -6.302647664098514 C -10.714909100465787 -5.864422164036579, -11.050990616249987 -5.426130773540784, -11.38573524080941 -4.98703659266924 C -11.720479865368832 -4.547942411797697, -12.05390030985534 -4.108053220273421, -12.384878363860441 -3.6664983752308613 C -12.715856417865538 -3.2249435301882983, -13.044410251464098 -2.7817313168170297, -13.368938122363993 -2.335734541772125 C -13.693465993263882 -1.8897377667272215, -14.013997311871757 -1.4409626836770602, -14.328103075835676 -0.9879066022258631 C -14.6422088397996 -0.5348505207746654, -14.949947239238615 -0.07750239133947523, -15.247450268237076 0.3860263824520589 C -15.544953297235542 0.8495551562435927, -15.832354253349024 1.3193695049118648, -16.102959263064086 1.7970490613461285 C -16.373564272779152 2.2747286177803927, -16.6271268368285 2.760247766629858, -16.86931900424274 3.251309747364588 C -17.111511171656982 3.7423717280993167, -17.34223295333458 4.238890025416465, -17.56514009177748 4.73890798581354 C -17.78804723022038 5.238925946210616, -18.003107028942747 5.742453384024126, -18.21282432933884 6.248213874375636 C -18.42254162973493 6.753974364727147, -18.626897538161657 7.261982545107381, -18.82761631203307 7.771435359238865 C -19.02833508590448 8.280888173370348, -19.22540360357069 8.791795332826512, -19.420003546054897 9.303647981395388 C -19.61460348853909 9.81550062996426, -19.806725580534287 10.328304609973635, -19.997176059973274 10.841732758129714 C -20.18762653941227 11.355160906285802, -20.37639891729785 11.86921673371919, -20.56404142583325 12.383687092096858 C -20.75168393436865 12.898157450474528, -20.9381920805989 13.413044494178166, -21.123937751025515 13.928207925415443 C -21.309683421452128 14.443371356652715, -21.49466352729461 14.95881252835228, -21.679129911696013 15.474438394291278 C -21.863596296097427 15.99006426023028, -22.047546845045588 16.505875687426116, -22.231151960612987 17.02181061517156 C -22.414757076180376 17.537745542917005, -22.598015314874672 18.053804536084183, -22.781042017282672 18.569945995524655 C -22.964068719690683 19.086087454965135, -23.14686290028995 19.602311753811186, -23.329502842592028 20.118590844619057 C -23.512142784894092 20.634869935426913, -23.69462781385836 21.151204067988918, -23.87701146083201 21.667574150144834 C -24.059395107805646 22.183944232300743, -24.24167690588663 22.700350434144198, -24.42389409420395 23.216779516945316 C -24.606111282521265 23.73320859974644, -24.78826353065705 24.249660682623727, -24.97037769114918 24.766126242088234 C -25.152491851641326 25.282591801552734, -25.334567679190148 25.799070925439306, -25.51662590312479 26.31555627472491 C -25.698684127059416 26.83204162401051, -25.880724548539234 27.34853326961341, -26.062765062064425 27.86502488243178" stroke="white" fill="transparent"/>
	</g>
	<g>
		<title>.centreline id(group_16_name)</title>
		<path d="M -10.350922208324064 100.56102186812886 C -10.686123169476097 100.18184606028804, -11.023082908573558 99.80086186068796, -11.435962112738986 99.40733421185244 C -11.84884131690442 99.01380656301691, -12.355583600183007 98.60634667887736, -12.920482550837612 98.19724237489957 C -13.485381501492215 97.78813807092175, -14.098494224473324 97.37880249343542, -14.710384195901632 96.97032320131576" stroke="white" fill="transparent"/>
	</g>
	<g>
		<title>.centreline id(group_17_name)</title>
		<path d="M -25.658569867176897 91.96523063504533 C -26.290126204382894 91.84554108126271, -26.919509356024466 91.71763324904204, -27.543146520896652 91.56509455563449 C -28.16678368576883 91.41255586222691, -28.783995951807636 91.23878749743967, -29.389871211470375 91.03891198083471 C -29.995746471133135 90.83903646422971, -30.590285823792648 90.61304109412201, -31.168071521771445 90.35649692992874 C -31.745857219750246 90.09995276573551, -32.306657967395 89.81261625102653, -32.845369272156276 89.49138646053717 C -33.38408057691757 89.17015667004782, -33.901658337142734 88.81720030120172, -34.407389693769744 88.4492854878778 C -34.91312105039674 88.08137067455387, -35.40714787649114 87.69842306580809, -35.901086266533014 87.31554714205816" stroke="white" fill="transparent"/>
	</g>
	<g>
		<title>.centreline id(group_18_name)</title>
		<path d="M -43.28413119367944 136.3995855945692 C -40.98240324270319 136.62946671198094, -38.650710495845864 136.9553385462718, -36.419264122626885 137.3165499258276 C -34.1878177494079 137.67776130538337, -32.15476165368424 138.08996044861183, -29.90838522043552 136.8746466790509 C -27.662008787186778 135.65933290948996, -25.802670180035427 132.8938479597276, -24.303166358130063 130.92897456064912 C -22.803662536224696 128.9641011615706, -21.475641144158324 127.14382006845305, -20.176155926588166 125.14426889133084 C -18.876670709018015 123.14471771420872, -17.700676792167524 121.09504873816287, -16.67917651676629 118.98852315926443 C -15.657676241365074 116.88199758036595, -14.790021748557479 114.73749358434765, -14.008707028118774 112.56260666611479 C -13.227392307680063 110.38771974788196, -12.523711243880797 108.20530096163515, -11.864672984005587 106.01661461654366 C -11.205634724130384 103.82792827145225, -10.59587434629532 101.60950208957568, -10.056993305442946 99.36812633112237 C -9.518112264590563 97.12675057266902, -9.058223142090199 94.85728963014877, -8.7004340342858 92.55607592773546 C -8.342644926481405 90.25486222532217, -8.031169493939155 87.94069341698788, -7.7110957753517955 85.62595637138526 C -7.391022056764433 83.31121932578263, -7.11533598440829 80.92038578373754, -6.8909663639675705 78.54363883724685 C -6.666596743526852 76.16689189075616, -6.48488698828612 73.78337726852232, -6.323459527243274 71.40324033127769 C -6.162032066200426 69.02310339403307, -6.017880559503621 66.6455593426588, -5.882679725384303 64.27037928847196 C -5.7474788912649855 61.895199234285116, -5.622799385072569 59.5219094392267, -5.506061605200927 57.14592152091852 C -5.389323825329284 54.76993360261036, -5.279427097578754 52.39483731609766, -5.177574245549038 50.00160992326355 C -5.0757213935193235 47.60838253042945, -4.992479280498284 45.2096863215624, -4.901395448401652 42.81130517999831 C -4.810311616305022 40.4129240384342, -4.711053713354291 38.01390260572265, -4.572749324242401 35.62012908913475 C -4.4344449351305135 33.22635557254684, -4.2575632783735395 30.836984278813844, -4.002271474695382 28.46627418298559 C -3.7469796710172245 26.095564087157335, -3.402481376818884 23.750055422309476, -2.9564242826202727 21.442805518174936 C -2.5103671884216596 19.1355556140404, -1.9779087787569414 16.864984660484346, -1.3899456847526177 14.625983387695646 C -0.8019825907482946 12.38698211490695, -0.15803959033589843 10.178909654681696, 0.5266066949070409 7.995818272615538 C 1.2112529801499812 5.812726890549378, 1.9368349504966105 3.654342138815517, 2.6990764226496244 1.5179106866782481 C 3.4613178948026393 -0.618520765459019, 4.264575088385071 -2.730019745626693, 5.097167104742228 -4.825832011544719 C 5.929759121099384 -6.921644277462745, 6.786742918270887 -9.004363625543043, 7.640825586631806 -11.094448305291486 C 8.494908254992724 -13.184532985039935, 9.346255726594945 -15.28093400557131, 10.167392149953049 -17.407277376795424 C 10.988528573311154 -19.53362074801953, 11.771228565792585 -21.688227515822952, 12.5000942671359 -23.834905247322038 C 13.228959968479213 -25.981582978821113, 13.911068842475785 -28.159331274075598, 14.515099288730891 -30.394579151117032 C 15.119129734985993 -32.62982702815848, 15.679355929664267 -35.10891949885488, 16.181775351239146 -37.559731746364484 C 16.684194772814035 -40.01054399387407, 17.147053569722573 -42.48949696300364, 17.580428275276297 -44.97189695415889 C 18.01380298083003 -47.45429694531417, 18.41100457384518 -49.93847862212289, 18.7547746436296 -52.34916933753567 C 19.098544713414007 -54.75986005294844, 19.401881895670222 -57.10205496317951, 19.696611659449722 -59.38150158740972 C 19.991341423229233 -61.66094821163993, 20.276265231371646 -63.88488670262136, 20.57359199048817 -66.00011777731856 C 20.87091874960469 -68.11534885201576, 21.175035066959445 -70.07500629664631, 21.530884143088926 -71.81800936856763 C 21.886733219218396 -73.56101244048894, 22.259595415919083 -75.04330375141353, 22.64208163706381 -76.46738034926862 C 23.024567858208556 -77.89145694712371, 23.417889224967503 -79.25135647921896, 23.845216668084348 -80.67918226302088 C 24.272544111201178 -82.1070080468228, 24.74612182328021 -83.63170386593411, 25.285829718626292 -85.32471514967898 C 25.82553761397239 -87.01772643342382, 26.408821135962814 -88.81741384785698, 27.023210887814937 -90.69203814819403 C 27.63760063966705 -92.56666244853105, 28.284652122476604 -94.52189695897742, 28.99988595434827 -96.63577328736046 C 29.71511978621995 -98.74964961574355, 30.508441729702916 -101.04139251211757, 31.30757412012187 -103.37579862139692 C 32.1067065105408 -105.71020473067624, 32.91899677524227 -108.10075535909515, 33.70335453556318 -110.5471829021014 C 34.48771229588407 -112.99361044510765, 35.226094554219245 -115.51029602856089, 35.90821949696894 -118.07275362483868 C 36.59034443971865 -120.6352112211165, 37.23037426269258 -123.21960436978921, 37.82456000963181 -125.8048790600858 C 38.41874575657105 -128.39015375038238, 38.94683417288041 -130.9686554183708, 39.40217760097323 -133.520964996531 C 39.85752102906603 -136.07327457469123, 40.26201621420467 -138.5981209036776, 40.650471428530956 -141.10872939688392 C 41.03892664285727 -143.6193378900902, 41.40986431246279 -146.11673377312272, 41.76684805250848 -148.59593104270587 C 42.123831792554164 -151.07512831228905, 42.46471429115413 -153.5269965104996, 42.78652438333993 -155.98770062117146 C 43.10833447552573 -158.4484047318432, 43.41373723385731 -160.9193922278666, 43.66620110012519 -163.45096426365842 C 43.918664966393074 -165.98253629945037, 44.09685889642185 -168.5884345979135, 44.24569226340097 -171.20919900795892 C 44.394525630380116 -173.8299634180043, 44.51655436414624 -176.467704915996, 44.62877224608206 -179.11125004516444 C 44.74099012801787 -181.75479517433297, 44.83881395588057 -184.407171738899, 44.94988827647493 -187.05619245334466 C 45.060962597069256 -189.70521316779025, 45.18244273708866 -192.3567485587173, 45.36599764845843 -194.98012105557297 C 45.54955255982822 -197.6034935524287, 45.810157889139354 -200.18986267300266, 46.13405227790102 -202.71385621369777 C 46.457946666662686 -205.23784975439278, 46.84715923748005 -207.74603566005632, 47.366485288816044 -210.0341164638192 C 47.885811340152024 -212.32219726758208, 48.70491186440683 -214.66932957008018, 49.797499002339315 -216.98903195050005 C 50.89008614027181 -219.30873433092003, 52.227116160583044 -221.54038648029388, 53.77953063310778 -223.75600545016457 C 55.33194510563252 -225.97162442003514, 57.309848064869115 -228.0668231606593, 59.53422589861461 -230.0307474750701 C 61.7586037323601 -231.99467178948086, 64.27115470166501 -233.78271369394977, 66.96155034666478 -235.23419522994143 C 69.65194599166458 -236.6856767659332, 72.38926994722851 -237.96646230583045, 75.11217811436839 -239.12172672067518 C 77.83508628150827 -240.27699113551998, 80.54283213588383 -241.34342417662074, 83.22786438298607 -242.63050724206977 C 85.91289663008834 -243.9175903075187, 88.63072002563871 -245.60255474577832, 90.21286219867669 -247.17053768522854 C 91.79500437171468 -248.73852062467873, 93.00363772036175 -250.5465768206957, 93.98838011018063 -252.32392525613963 C 94.9731224999995 -254.10127369158351, 95.77034484144163 -255.89342958627054, 96.69342151374461 -257.68902617245186 C 97.61649818604755 -259.4846227586333, 98.730550601438 -261.28632836510576, 99.95703265171498 -263.0732511570782 C 101.18351470199204 -264.8601739490506, 102.50349145560293 -266.6330203032949, 103.82138974669044 -268.4044715515416" stroke="white" fill="transparent"/>
	</g>
	<g>
		<title>.centreline id(group_19_name)</title>
		<path d="M -36.41926412262688 137.3165499258276 C -34.1878177494079 137.67776130538337, -32.15476165368424 138.08996044861183, -29.90838522043552 136.8746466790509 C -27.662008787186778 135.65933290948996, -25.802670180035427 132.8938479597276, -24.303166358130063 130.92897456064912 C -22.803662536224696 128.9641011615706, -21.475641144158324 127.14382006845305, -20.176155926588166 125.14426889133084 C -18.876670709018015 123.14471771420872, -17.700676792167524 121.09504873816287, -16.67917651676629 118.98852315926443 C -15.657676241365074 116.88199758036595, -14.790021748557479 114.73749358434765, -14.008707028118774 112.56260666611479 C -13.227392307680063 110.38771974788196, -12.523711243880797 108.20530096163515, -11.864672984005587 106.01661461654366 C -11.205634724130384 103.82792827145225, -10.59587434629532 101.60950208957568, -10.056993305442946 99.36812633112237 C -9.518112264590563 97.12675057266902, -9.058223142090199 94.85728963014877, -8.7004340342858 92.55607592773546 C -8.342644926481405 90.25486222532217, -8.031169493939155 87.94069341698788, -7.7110957753517955 85.62595637138526 C -7.391022056764433 83.31121932578263, -7.11533598440829 80.92038578373754, -6.8909663639675705 78.54363883724685 C -6.666596743526852 76.16689189075616, -6.48488698828612 73.78337726852232, -6.323459527243274 71.40324033127769 C -6.162032066200426 69.02310339403307, -6.017880559503621 66.6455593426588, -5.882679725384303 64.27037928847196 C -5.7474788912649855 61.895199234285116, -5.622799385072569 59.5219094392267, -5.506061605200927 57.14592152091852 C -5.389323825329284 54.76993360261036, -5.279427097578754 52.39483731609766, -5.177574245549038 50.00160992326355 C -5.0757213935193235 47.60838253042945, -4.992479280498284 45.2096863215624, -4.901395448401652 42.81130517999831 C -4.810311616305022 40.4129240384342, -4.711053713354291 38.01390260572265, -4.572749324242401 35.62012908913475 C -4.4344449351305135 33.22635557254684, -4.2575632783735395 30.836984278813844, -4.002271474695382 28.46627418298559 C -3.7469796710172245 26.095564087157335, -3.402481376818884 23.750055422309476, -2.9564242826202727 21.442805518174936 C -2.5103671884216596 19.1355556140404, -1.9779087787569414 16.864984660484346, -1.3899456847526177 14.625983387695646 C -0.8019825907482946 12.38698211490695, -0.15803959033589843 10.178909654681696, 0.5266066949070409 7.995818272615538 C 1.2112529801499812 5.812726890549378, 1.9368349504966105 3.654342138815517, 2.6990764226496244 1.5179106866782481 C 3.4613178948026393 -0.618520765459019, 4.264575088385071 -2.730019745626693, 5.097167104742228 -4.825832011544719 C 5.929759121099384 -6.921644277462745, 6.786742918270887 -9.004363625543043, 7.640825586631806 -11.094448305291486 C 8.494908254992724 -13.184532985039935, 9.346255726594945 -15.28093400557131, 10.167392149953049 -17.407277376795424 C 10.988528573311154 -19.53362074801953, 11.771228565792585 -21.688227515822952, 12.5000942671359 -23.834905247322038 C 13.228959968479213 -25.981582978821113, 13.911068842475785 -28.159331274075598, 14.515099288730891 -30.394579151117032 C 15.119129734985993 -32.62982702815848, 15.679355929664267 -35.10891949885488, 16.181775351239146 -37.559731746364484 C 16.684194772814035 -40.01054399387407, 17.147053569722573 -42.48949696300364, 17.580428275276297 -44.97189695415889 C 18.01380298083003 -47.45429694531417, 18.41100457384518 -49.93847862212289, 18.7547746436296 -52.34916933753567 C 19.098544713414007 -54.75986005294844, 19.401881895670222 -57.10205496317951, 19.696611659449722 -59.38150158740972 C 19.991341423229233 -61.66094821163993, 20.276265231371646 -63.88488670262136, 20.57359199048817 -66.00011777731856 C 20.87091874960469 -68.11534885201576, 21.175035066959445 -70.07500629664631, 21.530884143088926 -71.81800936856763 C 21.886733219218396 -73.56101244048894, 22.259595415919083 -75.04330375141353, 22.64208163706381 -76.46738034926862 C 23.024567858208556 -77.89145694712371, 23.417889224967503 -79.25135647921896, 23.845216668084348 -80.67918226302088 C 24.272544111201178 -82.1070080468228, 24.74612182328021 -83.63170386593411, 25.285829718626292 -85.32471514967898 C 25.82553761397239 -87.01772643342382, 26.408821135962814 -88.81741384785698, 27.023210887814937 -90.69203814819403 C 27.63760063966705 -92.56666244853105, 28.284652122476604 -94.52189695897742, 28.99988595434827 -96.63577328736046 C 29.71511978621995 -98.74964961574355, 30.508441729702916 -101.04139251211757, 31.30757412012187 -103.37579862139692 C 32.1067065105408 -105.71020473067624, 32.91899677524227 -108.10075535909515, 33.70335453556318 -110.5471829021014 C 34.48771229588407 -112.99361044510765, 35.226094554219245 -115.51029602856089, 35.90821949696894 -118.07275362483868 C 36.59034443971865 -120.6352112211165, 37.23037426269258 -123.21960436978921, 37.82456000963181 -125.8048790600858 C 38.41874575657105 -128.39015375038238, 38.94683417288041 -130.9686554183708, 39.40217760097323 -133.520964996531 C 39.85752102906603 -136.07327457469123, 40.26201621420467 -138.5981209036776, 40.650471428530956 -141.10872939688392 C 41.03892664285727 -143.6193378900902, 41.40986431246279 -146.11673377312272, 41.76684805250848 -148.59593104270587 C 42.123831792554164 -151.07512831228905, 42.46471429115413 -153.5269965104996, 42.78652438333993 -155.98770062117146 C 43.10833447552573 -158.4484047318432, 43.41373723385731 -160.9193922278666, 43.66620110012519 -163.45096426365842 C 43.918664966393074 -165.98253629945037, 44.09685889642185 -168.5884345979135, 44.24569226340097 -171.20919900795892 C 44.394525630380116 -173.8299634180043, 44.51655436414624 -176.467704915996, 44.62877224608206 -179.11125004516444 C 44.74099012801787 -181.75479517433297, 44.83881395588057 -184.407171738899, 44.94988827647493 -187.05619245334466 C 45.060962597069256 -189.70521316779025, 45.18244273708866 -192.3567485587173, 45.36599764845843 -194.98012105557297 C 45.54955255982822 -197.6034935524287, 45.810157889139354 -200.18986267300266, 46.13405227790102 -202.71385621369777 C 46.457946666662686 -205.23784975439278, 46.84715923748005 -207.74603566005632, 47.366485288816044 -210.0341164638192 C 47.885811340152024 -212.32219726758208, 48.70491186440683 -214.66932957008018, 49.797499002339315 -216.98903195050005 C 50.89008614027181 -219.30873433092003, 52.227116160583044 -221.54038648029388, 53.77953063310778 -223.75600545016457 C 55.33194510563252 -225.97162442003514, 57.309848064869115 -228.0668231606593, 59.53422589861461 -230.0307474750701 C 61.7586037323601 -231.99467178948086, 64.27115470166501 -233.78271369394977, 66.96155034666478 -235.23419522994143 C 69.65194599166458 -236.6856767659332, 72.38926994722851 -237.96646230583045, 75.11217811436839 -239.12172672067518 C 77.83508628150827 -240.27699113551998, 80.54283213588383 -241.34342417662074, 83.22786438298607 -242.63050724206977 C 85.91289663008834 -243.9175903075187, 88.63072002563871 -245.60255474577832, 90.21286219867669 -247.17053768522854 C 91.79500437171468 -248.73852062467873, 93.00363772036175 -250.5465768206957, 93.98838011018063 -252.32392525613963 C 94.9731224999995 -254.10127369158351, 95.77034484144163 -255.89342958627054, 96.69342151374461 -257.68902617245186 C 97.61649818604755 -259.4846227586333, 98.730550601438 -261.28632836510576, 99.95703265171498 -263.0732511570782 C 101.18351470199204 -264.8601739490506, 102.50349145560293 -266.6330203032949, 103.82138974669044 -268.4044715515416" stroke="white" fill="transparent"/>
	</g>
	<g>
		<title>.centreline id(group_21_name)</title>
		<path d="M 97.39066184465385 -258.9838862891895 C 97.32599089631479 -259.4569255279495, 97.26550774293214 -259.933675308487, 97.20916936939919 -260.4081402543919 C 97.15283099586627 -260.88260520029695, 97.09965309010555 -261.355649250356, 97.04670629675768 -261.8222368585899 C 96.99375950340976 -262.2888244668238, 96.94104095086074 -262.748986610362, 96.8856901332014 -263.1970804779081 C 96.83033931554213 -263.64517434545434, 96.7723525746786 -264.08121136313076, 96.70898635937026 -264.49861317532867 C 96.64562014406184 -264.9160149875265, 96.5762763947984 -265.3131836080576, 96.50098115783594 -265.6896242384908 C 96.42568592087349 -266.06606486892423, 96.3448903881497 -266.42283593162307, 96.26017016008417 -266.7641253187668 C 96.1754499320187 -267.10541470591033, 96.08680496601323 -267.43123836552087, 95.99565511721808 -267.74642295491395 C 95.9045052684229 -268.06160754430715, 95.81084702646989 -268.3661702887205, 95.71597259872101 -268.66532585935363 C 95.62109817097213 -268.9644814299866, 95.52500288565615 -269.25824321740913, 95.42891008680016 -269.5519990925458" stroke="white" fill="transparent"/>
	</g>
	<g>
		<title>.centreline id(group_22_name)</title>
		<path d="M 88.52143391451925 -245.747265778192 C 89.04106093656955 -245.93199199374257, 89.41631666144475 -246.06535249625745, 89.9362047483881 -246.2505448115727 C 90.45609283533148 -246.4357371268878, 90.97627811730412 -246.62145934407047, 91.49712200292475 -246.8083509275769 C 92.01796588854532 -246.99524251108332, 92.5394686914028 -247.18330026275942, 93.06195398547804 -247.37323674913333 C 93.58443927955335 -247.56317323550738, 94.10791252742405 -247.7549865597856, 94.63262002860539 -247.94950179529377 C 95.15732752978667 -248.14401703080196, 95.68328190550949 -248.34123422618325, 96.21052996186458 -248.54210973321955 C 96.73777801821971 -248.74298524025576, 97.26634560648189 -248.94752353441828, 97.79581690562605 -249.15678847730817 C 98.32528820477026 -249.36605342019794, 98.8557131486873 -249.58005916727603, 99.38568995233483 -249.79985712213514 C 99.91566675598233 -250.01965507699435, 100.44528483734338 -250.24527844749431, 100.97118245823552 -250.47744600065286 C 101.49708007912763 -250.70961355381132, 102.01938877839052 -250.94838596169888, 102.53119565932849 -251.19348649928799 C 103.04300254026647 -251.43858703687727, 103.54435855415336 -251.69005476633023, 104.02323243083568 -251.9457811656981 C 104.50210630751803 -252.2015075650658, 104.95630968377574 -252.46143904689833, 105.38537625414888 -252.72116114082266 C 105.81444282452205 -252.9808832347469, 106.21866315772267 -253.24031989904736, 106.60113300560941 -253.49720455672653 C 106.98360285349614 -253.75408921440578, 107.34443627436323 -254.0084912153601, 107.68814703210333 -254.25988891621145 C 108.03185778984337 -254.51128661706272, 108.35850379021413 -254.75972844013228, 108.67279121488214 -255.00557823680182 C 108.98707863955008 -255.2514280334715, 109.28902356210666 -255.49471050112237, 109.58304283926314 -255.73616891550424 C 109.87706211641971 -255.97762732988605, 110.16315199376331 -256.21727263565543, 110.44538840204605 -256.45598797918984 C 110.72762481032872 -256.69470332272414, 111.00599605866708 -256.9324931541968, 111.28437418001846 -257.1702816968194" stroke="white" fill="transparent"/>
	</g>
	<g>
		<title>.centreline id(group_23_name)</title>
		<path d="M -1.6052011298025606 -41.09694226852372 C -2.1814649587350123 -41.28932551183915, -2.757718311526987 -41.48174753860721, -3.3378315425416885 -41.6688649137714 C -3.917944773556389 -41.85598228893559, -4.50190608610894 -42.03785233288233, -5.092517199225665 -42.20782874638668 C -5.683128312342388 -42.37780515989103, -6.280609476308546 -42.53600047186651, -6.884879483190881 -42.673060893919995 C -7.489149490073219 -42.81012131597351, -8.100708332299856 -42.92614905985386, -8.71169710138674 -43.00745973463215 C -9.322685870473624 -43.08877040941044, -9.93386151779854 -43.135261700722324, -10.520376678871367 -43.128635324465776 C -11.106891839944199 -43.122008948209185, -11.666261083155254 -43.05987323019331, -12.158360534029907 -42.93022404144015 C -12.650459984904549 -42.800574852687014, -13.079100844308137 -42.61063343244785, -13.450133717752376 -42.38712142182305 C -13.82116659119662 -42.16360941119824, -14.135433913074916 -41.90661902463534, -14.41049399631467 -41.63349173761659 C -14.685554079554427 -41.36036445059782, -14.921818318594797 -41.07081023498894, -15.138972700463658 -40.774884539843626 C -15.35612708233252 -40.478958844698326, -15.55420386827569 -40.17640556075496, -15.752312860201195 -39.87396220929809" stroke="white" fill="transparent"/>
	</g>
</svg>
