<?xml version="1.0" ?>
<svg xmlns="http://www.w3.org/2000/svg" width="1000" height="1000" viewBox="-19 -1518 94 460">
	<rect x="-19" y="-1518" width="94" height="53" fill="red">
		<title>.id(brain_region)</title>
	</rect>
	<rect x="-19" y="-1465" width="94" height="103" fill="green">
		<title>.id(cervical_region)</title>
	</rect>
	<rect x="-19" y="-1362" width="94" height="235" fill="grey">
		<title>.id(thoracic_region)</title>
	</rect>
	<rect x="-19" y="-1127" width="94" height="79" fill="blue">
		<title>.id(lumbar_region)</title>
	</rect>
	<circle style="fill: rgb(216, 216, 216);" cx="8.607445200558836" cy="-1393.4024955338596" r="0.9054">
		<title>.id(point_01)</title>
	</circle>
	<circle style="fill: rgb(216, 216, 216);" cx="11.143099999999992" cy="-1397.6797000000004" r="0.9054">
		<title>.id(point_02)</title>
	</circle>
	<circle style="fill: rgb(216, 216, 216);" cx="12.259848017171837" cy="-1407.3521932093363" r="0.9054">
		<title>.id(point_03)</title>
	</circle>
	<circle style="fill: rgb(216, 216, 216);" cx="27.06830414019548" cy="-1491.817670124759" r="0.9054">
		<title>.id(point_04)</title>
	</circle>
	<circle style="fill: rgb(216, 216, 216);" cx="60.603843217213395" cy="-1504.1840742515346" r="0.9054">
		<title>.id(point_05)</title>
	</circle>
	<circle style="fill: rgb(216, 216, 216);" cx="46.12235191333698" cy="-1501.9169967584048" r="0.9054">
		<title>.id(point_06)</title>
	</circle>
	<circle style="fill: rgb(216, 216, 216);" cx="37.74102151897288" cy="-1494.4707186306064" r="0.9054">
		<title>.id(point_07)</title>
	</circle>
	<circle style="fill: rgb(216, 216, 216);" cx="21.11238772069403" cy="-1508.391292311859" r="0.9054">
		<title>.id(point_08)</title>
	</circle>
	<circle style="fill: rgb(216, 216, 216);" cx="53.21606222333353" cy="-1078.2930385988232" r="0.9054">
		<title>.id(point_09)</title>
	</circle>
	<circle style="fill: rgb(216, 216, 216);" cx="11.36526657430324" cy="-1236.625446755843" r="0.9054">
		<title>.id(point_10)</title>
	</circle>
	<circle style="fill: rgb(216, 216, 216);" cx="28.164687936006125" cy="-1304.7814214924972" r="0.9054">
		<title>.id(point_11)</title>
	</circle>
	<circle style="fill: rgb(216, 216, 216);" cx="21.587576861755984" cy="-1108.610990786925" r="0.9054">
		<title>.id(point_12)</title>
	</circle>
	<circle style="fill: rgb(216, 216, 216);" cx="28.778195615643977" cy="-1489.7479045818516" r="0.9054">
		<title>.id(point_13)</title>
	</circle>
	<circle style="fill: rgb(216, 216, 216);" cx="27.81923096725604" cy="-1102.3238930903908" r="0.9054">
		<title>.id(point_14)</title>
	</circle>
	<circle style="fill: rgb(216, 216, 216);" cx="29.00028654939988" cy="-1310.4569581405776" r="0.9054">
		<title>.id(point_15)</title>
	</circle>
	<circle style="fill: rgb(216, 216, 216);" cx="22.44810845682915" cy="-1284.9641506854223" r="0.9054">
		<title>.id(point_16)</title>
	</circle>
	<circle style="fill: rgb(216, 216, 216);" cx="32.23498820248271" cy="-1481.40193576252" r="0.9054">
		<title>.id(point_17)</title>
	</circle>
	<circle style="fill: rgb(216, 216, 216);" cx="26.80932960308505" cy="-1492.0510298000236" r="0.9054">
		<title>.id(point_18)</title>
	</circle>
	<circle style="fill: rgb(216, 216, 216);" cx="29.40296887324417" cy="-1323.1040222184704" r="0.9054">
		<title>.id(point_19)</title>
	</circle>
	<circle style="fill: rgb(216, 216, 216);" cx="12.689313638155545" cy="-1254.9280214077442" r="0.9054">
		<title>.id(point_20)</title>
	</circle>
	<circle style="fill: rgb(216, 216, 216);" cx="11.00423078862422" cy="-1389.443832381396" r="0.9054">
		<title>.id(point_21)</title>
	</circle>
	<circle style="fill: rgb(216, 216, 216);" cx="10.005599998584993" cy="-1395.813000009025" r="0.9054">
		<title>.id(point_22)</title>
	</circle>
	<circle style="fill: rgb(216, 216, 216);" cx="11.38150000003415" cy="-1437.8576000043834" r="0.9054">
		<title>.id(point_23)</title>
	</circle>
	<circle style="fill: rgb(216, 216, 216);" cx="30.440288850197625" cy="-1486.3164909615407" r="0.9054">
		<title>.id(point_24)</title>
	</circle>
	<circle style="fill: rgb(216, 216, 216);" cx="29.9850347348408" cy="-1409.79205912617" r="0.9054">
		<title>.id(point_25)</title>
	</circle>
	<circle style="fill: rgb(216, 216, 216);" cx="31.05543332493438" cy="-1474.9914311326413" r="0.9054">
		<title>.id(point_26)</title>
	</circle>
	<circle style="fill: rgb(216, 216, 216);" cx="1.7265202279517422" cy="-1442.136786551328" r="0.9054">
		<title>.id(point_27)</title>
	</circle>
	<circle style="fill: rgb(216, 216, 216);" cx="13.340362163793072" cy="-1451.5330233515924" r="0.9054">
		<title>.id(point_28)</title>
	</circle>
	<circle style="fill: rgb(216, 216, 216);" cx="1.1928980365846447" cy="-1271.230306679242" r="0.9054">
		<title>.id(point_29)</title>
	</circle>
	<circle style="fill: rgb(216, 216, 216);" cx="52.45410000030466" cy="-1251.2587999993293" r="0.9054">
		<title>.id(point_30)</title>
	</circle>
	<circle style="fill: rgb(216, 216, 216);" cx="6.909399999992135" cy="-1292.728799999996" r="0.9054">
		<title>.id(point_31)</title>
	</circle>
	<circle style="fill: rgb(216, 216, 216);" cx="8.122062617221367" cy="-1081.391124432575" r="0.9054">
		<title>.id(point_32)</title>
	</circle>
	<circle style="fill: rgb(216, 216, 216);" cx="29.135948571361492" cy="-1491.0887651702458" r="0.9054">
		<title>.id(point_33)</title>
	</circle>
	<circle style="fill: rgb(216, 216, 216);" cx="31.788349149505404" cy="-1490.0025507524676" r="0.9054">
		<title>.id(point_34)</title>
	</circle>
	<circle style="fill: rgb(216, 216, 216);" cx="21.18966700193196" cy="-1407.3477642264743" r="0.9054">
		<title>.id(point_35)</title>
	</circle>
	<circle style="fill: rgb(216, 216, 216);" cx="23.4980000000005" cy="-1399.7057999999981" r="0.9054">
		<title>.id(point_36)</title>
	</circle>
	<circle style="fill: rgb(216, 216, 216);" cx="27.0567758619704" cy="-1422.2033099281489" r="0.9054">
		<title>.id(point_37)</title>
	</circle>
	<circle style="fill: rgb(216, 216, 216);" cx="13.154374593346791" cy="-1399.1603082095728" r="0.9054">
		<title>.id(point_38)</title>
	</circle>
	<circle style="fill: rgb(216, 216, 216);" cx="4.102711478242515" cy="-1404.5434480732433" r="0.9054">
		<title>.id(point_39)</title>
	</circle>
	<circle style="fill: rgb(216, 216, 216);" cx="12.78050000000001" cy="-1398.5529999999997" r="0.9054">
		<title>.id(point_40)</title>
	</circle>
	<circle style="fill: rgb(216, 216, 216);" cx="8.90532043928135" cy="-1398.9007882512792" r="0.9054">
		<title>.id(point_41)</title>
	</circle>
	<circle style="fill: rgb(216, 216, 216);" cx="-0.680400166118412" cy="-1410.1632001951762" r="0.9054">
		<title>.id(point_42)</title>
	</circle>
	<circle style="fill: rgb(216, 216, 216);" cx="11.00322431830165" cy="-1389.4679432506136" r="0.9054">
		<title>.id(point_43)</title>
	</circle>
	<circle style="fill: rgb(216, 216, 216);" cx="18.4050009983502" cy="-1294.4849577423088" r="0.9054">
		<title>.id(point_44)</title>
	</circle>
	<circle style="fill: rgb(216, 216, 216);" cx="11.239797339981035" cy="-1378.0947969517063" r="0.9054">
		<title>.id(point_45)</title>
	</circle>
	<circle style="fill: rgb(216, 216, 216);" cx="11.031821628757656" cy="-1388.7686319125617" r="0.9054">
		<title>.id(point_46)</title>
	</circle>
	<circle style="fill: rgb(216, 216, 216);" cx="30.87311431763925" cy="-1488.1406105879264" r="0.9054">
		<title>.id(point_47)</title>
	</circle>
	<circle style="fill: rgb(216, 216, 216);" cx="10.627048375078433" cy="-1438.857658831911" r="0.9054">
		<title>.id(point_48)</title>
	</circle>
	<circle style="fill: rgb(216, 216, 216);" cx="-0.42862539977558733" cy="-1439.044186259076" r="0.9054">
		<title>.id(point_49)</title>
	</circle>
	<circle style="fill: rgb(216, 216, 216);" cx="10.48330000000001" cy="-1438.7160000000003" r="0.9054">
		<title>.id(point_50)</title>
	</circle>
	<circle style="fill: rgb(216, 216, 216);" cx="8.818164423473169" cy="-1393.0541186749326" r="0.9054">
		<title>.id(point_51)</title>
	</circle>
	<circle style="fill: rgb(216, 216, 216);" cx="11.702200000000099" cy="-1399.2783000000004" r="0.9054">
		<title>.id(point_52)</title>
	</circle>
	<circle style="fill: rgb(216, 216, 216);" cx="8.60510406611516" cy="-1393.4063665108924" r="0.9054">
		<title>.id(point_53)</title>
	</circle>
	<circle style="fill: rgb(216, 216, 216);" cx="10.501599998945938" cy="-1395.6882000130947" r="0.9054">
		<title>.id(point_54)</title>
	</circle>
	<circle style="fill: rgb(216, 216, 216);" cx="28.54278365342654" cy="-1073.60565212985" r="0.9054">
		<title>.id(point_55)</title>
	</circle>
	<circle style="fill: rgb(216, 216, 216);" cx="28.55043505953543" cy="-1073.617813936473" r="0.9054">
		<title>.id(point_56)</title>
	</circle>
	<circle style="fill: rgb(216, 216, 216);" cx="1.9206935308845532" cy="-1286.332496800641" r="0.9054">
		<title>.id(point_57)</title>
	</circle>
	<circle style="fill: rgb(216, 216, 216);" cx="1.9147092220779727" cy="-1286.325619123274" r="0.9054">
		<title>.id(point_58)</title>
	</circle>
	<circle style="fill: rgb(216, 216, 216);" cx="27.342028661991506" cy="-1423.4453197859816" r="0.9054">
		<title>.id(point_59)</title>
	</circle>
	<circle style="fill: rgb(216, 216, 216);" cx="7.514521885247799" cy="-1397.3591089389222" r="0.9054">
		<title>.id(point_60)</title>
	</circle>
	<circle style="fill: rgb(216, 216, 216);" cx="7.528990204784367" cy="-1397.3748927440374" r="0.9054">
		<title>.id(point_61)</title>
	</circle>
	<circle style="fill: rgb(216, 216, 216);" cx="8.105486791159029" cy="-1398.0081390261644" r="0.9054">
		<title>.id(point_62)</title>
	</circle>
	<circle style="fill: rgb(216, 216, 216);" cx="1.9303997648000353" cy="-1287.203100705564" r="0.9054">
		<title>.id(point_63)</title>
	</circle>
	<circle style="fill: rgb(216, 216, 216);" cx="1.566799750919926" cy="-1286.466400706278" r="0.9054">
		<title>.id(point_64)</title>
	</circle>
	<circle style="fill: rgb(216, 216, 216);" cx="27.051399059308594" cy="-1422.1803239295452" r="0.9054">
		<title>.id(point_65)</title>
	</circle>
	<circle style="fill: rgb(216, 216, 216);" cx="14.689256046611296" cy="-1486.9891834448256" r="0.9054">
		<title>.id(point_66)</title>
	</circle>
	<circle style="fill: rgb(216, 216, 216);" cx="-0.6923824910894726" cy="-1420.5404475968605" r="0.9054">
		<title>.id(point_67)</title>
	</circle>
	<circle style="fill: rgb(216, 216, 216);" cx="10.718499953824848" cy="-1380.5857002206383" r="0.9054">
		<title>.id(point_68)</title>
	</circle>
	<circle style="fill: rgb(216, 216, 216);" cx="22.114033343643705" cy="-1284.1120050702662" r="0.9054">
		<title>.id(point_69)</title>
	</circle>
	<circle style="fill: rgb(216, 216, 216);" cx="63.02770940729052" cy="-1317.0952075838347" r="0.9054">
		<title>.id(point_70)</title>
	</circle>
	<circle style="fill: rgb(216, 216, 216);" cx="22.685300331971867" cy="-1279.4606972970548" r="0.9054">
		<title>.id(point_71)</title>
	</circle>
	<circle style="fill: rgb(216, 216, 216);" cx="16.052259715378554" cy="-1269.9044308964762" r="0.9054">
		<title>.id(point_72)</title>
	</circle>
	<circle style="fill: rgb(216, 216, 216);" cx="37.71521981133839" cy="-1306.6800336322422" r="0.9054">
		<title>.id(point_73)</title>
	</circle>
	<circle style="fill: rgb(216, 216, 216);" cx="53.66718957094884" cy="-1203.5180419167102" r="0.9054">
		<title>.id(point_74)</title>
	</circle>
	<circle style="fill: rgb(216, 216, 216);" cx="-9.337556697049243" cy="-1070.4008511917593" r="0.9054">
		<title>.id(point_75)</title>
	</circle>
	<circle style="fill: rgb(216, 216, 216);" cx="22.957628839803768" cy="-1487.2941485838314" r="0.9054">
		<title>.id(point_76)</title>
	</circle>
	<circle style="fill: rgb(216, 216, 216);" cx="0.47787975880437616" cy="-1285.947473998595" r="0.9054">
		<title>.id(point_77)</title>
	</circle>
	<circle style="fill: rgb(216, 216, 216);" cx="-0.6806000174722138" cy="-1431.3310000662668" r="0.9054">
		<title>.id(point_78)</title>
	</circle>
	<circle style="fill: rgb(216, 216, 216);" cx="9.259491425847498" cy="-1385.9524863760928" r="0.9054">
		<title>.id(point_79)</title>
	</circle>
	<path d="M 8.607445200558836 -1393.4024955338596 C 9.03005433315588 -1394.1153629437981, 9.452663469611256 -1394.8282303602446, 9.8752726022083 -1395.5410977701833 C 10.297881734805348 -1396.2539651801214, 10.720490867402736 -1396.9668325900614, 11.143099999999992 -1397.6797000000004" stroke="#01136e" fill="none">
		<title>.id(nerve_feature_01)</title>
	</path>
	<path d="M 27.06830414019548 -1491.817670124759 C 31.888774815659076 -1490.9016886071577, 35.28654538955618 -1491.998289479088, 37.726728918773276 -1494.4563055525089 C 40.166912447990384 -1496.91432162593, 42.137656932856196 -1500.3037161486488, 46.6100743933045 -1502.1262405509337 C 51.08249185375281 -1503.948764953219, 55.99798055021826 -1504.0349576176966, 60.603843217213395 -1504.1840742515346" stroke="#01136e" fill="none">
		<title>.id(nerve_feature_02)</title>
	</path>
	<path d="M 11.00423078862422 -1389.443832381396 C 10.837788606661851 -1390.505384025708, 10.67136872677365 -1391.5667934296139, 10.504926544758254 -1392.6283450742637 C 10.338484362742852 -1393.689896718914, 10.17204218065363 -1394.7514483640352, 10.005599998584993 -1395.813000009025" stroke="#01136e" fill="none">
		<title>.id(nerve_feature_03)</title>
	</path>
	<path d="M 30.440288850197625 -1486.3164909615407 C 30.69978020523916 -1482.537557978272, 30.939499947426306 -1478.795183405351, 31.054758977020896 -1475.0135883677058 C 31.170018006615475 -1471.231993330061, 31.198040660589037 -1467.4983173401627, 31.189566830594604 -1463.808429226819 C 31.181093000600168 -1460.1185411134754, 31.134689651452238 -1456.468819152762, 31.072647650531312 -1452.8416013363155 C 31.010605649610383 -1449.2143835198694, 30.93222835046183 -1445.6085687797968, 30.84716057290307 -1442.0128183846798 C 30.762092795344312 -1438.4170679895633, 30.670021359095156 -1434.831320191804, 30.575148956036475 -1431.249832820274 C 30.48027655297779 -1427.6683454487438, 30.38246472486706 -1424.0912120016435, 30.28364104179548 -1420.5156213325122 C 30.184817358723897 -1416.9400306633804, 30.084913847683726 -1413.3660612833473, 29.9850347348408 -1409.79205912617" stroke="#01136e" fill="none">
		<title>.id(nerve_feature_04)</title>
	</path>
	<path d="M 11.365266574303236 -1236.6254467558429 C 10.23563740213734 -1240.4682744240736, 9.10030497760353 -1244.3305036946513, 7.970675613415396 -1248.1733320161127 C 6.841046249227262 -1252.0161603375743, 5.711416443617373 -1255.8589901606867, 4.581786863180131 -1259.701819217795 C 3.4521572827428897 -1263.5446482749035, 2.3225276414506175 -1267.3874775390307, 1.1928980365846447 -1271.230306679242" stroke="#01136e" fill="none">
		<title>.id(nerve_feature_05)</title>
	</path>
	<path d="M 28.164687936006114 -1304.781421492497 C 29.514099201994195 -1301.8079436562734, 30.8635197436268 -1298.8344453808231, 32.212931009639554 -1295.860967544545 C 33.5623422756523 -1292.887489708267, 34.91175354172276 -1289.9140118718617, 36.261164807763805 -1286.9405340355213 C 37.610576073804864 -1283.9670561991804, 38.959987339853235 -1280.9935783628237, 40.30939860589787 -1278.020100526475 C 41.65880987194249 -1275.0466226901265, 43.00822113798795 -1272.0731448537765, 44.35763240403313 -1269.0996670174272 C 45.70704367007833 -1266.1261891810775, 47.05645493612367 -1263.1527113447275, 48.405866202168895 -1260.1792335083778 C 49.75527746821414 -1257.2057556720285, 51.10468873425944 -1254.2322778356788, 52.45410000030466 -1251.2587999993293" stroke="#01136e" fill="none">
		<title>.id(nerve_feature_06)</title>
	</path>
	<path d="M 28.164687936006118 -1304.7814214924972 C 24.622123882251312 -1302.7726421345615, 21.07965621502006 -1300.7639174317444, 17.537092161264223 -1298.755138073808 C 13.99452810750838 -1296.7463587158716, 10.451964053749261 -1294.737579357933, 6.909399999992135 -1292.728799999996" stroke="#01136e" fill="none">
		<title>.id(nerve_feature_07)</title>
	</path>
	<path d="M 21.587576861756055 -1108.6109907869245 C 20.094381582627182 -1105.5925709033072, 18.57448342850732 -1102.5201724879141, 17.081284388244015 -1099.5017450013509 C 15.588085347980712 -1096.483317514788, 14.094877515040007 -1093.4648722542654, 12.601674231223507 -1090.446436189571 C 11.108470947407014 -1087.4280001248765, 9.615266397266513 -1084.409561500371, 8.122062617221367 -1081.391124432575" stroke="#01136e" fill="none">
		<title>.id(nerve_feature_08)</title>
	</path>
	<path d="M 46.122351913335784 -1501.9169967584048 C 44.64840631562056 -1501.8412041399065, 42.00318717265092 -1500.5160683607262, 38.913163952175196 -1498.415074862631 C 35.82314073169949 -1496.314081364536, 32.455814235009534 -1493.6822330428936, 29.135948571361492 -1491.0887651702458" stroke="#01136e" fill="none">
		<title>.id(nerve_feature_09)</title>
	</path>
	<path d="M 37.74102151897279 -1494.4707186306064 C 36.69301792182383 -1493.6818641845348, 35.64384722963127 -1492.8921322073331, 34.63755241612674 -1492.1363466784567 C 33.631257602622206 -1491.3805611495804, 32.695573533744565 -1490.6804210079522, 31.788349149505404 -1490.0025507524676" stroke="#01136e" fill="none">
		<title>.id(nerve_feature_10)</title>
	</path>
	<path d="M 21.18966700193196 -1407.3477642264743 C 21.57438880457958 -1406.074104726117, 21.95911278940982 -1404.8004380014286, 22.343834592057497 -1403.5267785010708 C 22.72855639470517 -1402.2531190007135, 23.11327819735285 -1400.979459500356, 23.4980000000005 -1399.7057999999981" stroke="#01136e" fill="none">
		<title>.id(nerve_feature_11)</title>
	</path>
	<path d="M 4.102711478242515 -1404.5434480732433 C 5.549009565202115 -1403.5450400610364, 6.995307652161843 -1402.5466320488292, 8.441605739121377 -1401.548224036622 C 9.887903826080908 -1400.549816024415, 11.334201913040477 -1399.551408012207, 12.78050000000001 -1398.5529999999997" stroke="#01136e" fill="none">
		<title>.id(nerve_feature_12)</title>
	</path>
	<path d="M 11.00423078862422 -1389.443832381396 C 11.035669936790717 -1393.4783190756827, 11.067108518304448 -1397.512733053208, 11.098547666474 -1401.547219747887 C 11.129986814643553 -1405.5817064425662, 11.161425962820157 -1409.6161931381498, 11.19286511099317 -1413.6506798332732 C 11.22430425916618 -1417.685166528396, 11.255743407340109 -1421.7196532236367, 11.287182555513573 -1425.7541399188171 C 11.318621703687032 -1429.7886266139972, 11.350060851860636 -1433.8231133091952, 11.38150000003415 -1437.8576000043834" stroke="#01136e" fill="none">
		<title>.id(nerve_feature_13)</title>
	</path>
	<path d="M 28.778195615643764 -1489.7479045818523 C 29.12456822727732 -1489.4821555492963, 29.487471660983037 -1489.2037234990148, 29.833869388393918 -1488.9379551967672 C 30.180267115804803 -1488.6721868945192, 30.52669178196097 -1488.4063979239345, 30.87311431763925 -1488.1406105879264" stroke="#01136e" fill="none">
		<title>.id(nerve_feature_14)</title>
	</path>
	<path d="M 13.340362163793056 -1451.5330233515922 C 12.88700562513182 -1449.415148371996, 12.440505989582462 -1447.3293057164096, 11.987144949249194 -1445.2114097070548 C 11.533783908915918 -1443.0935136977005, 11.080413932725046 -1440.9755759440939, 10.627048375078433 -1438.857658831911" stroke="#01136e" fill="none">
		<title>.id(nerve_feature_15)</title>
	</path>
	<path d="M 31.05543332493437 -1474.9914311326413 C 29.341088868003677 -1471.9684785150027, 27.626744569304158 -1468.9455261763778, 25.912400112373106 -1465.9225735587393 C 24.19805565544204 -1462.8996209411, 22.483711198512246 -1459.8766683234628, 20.769366741581862 -1456.8537157058252 C 19.055022284651475 -1453.8307630881873, 17.340677827721308 -1450.8078104705507, 15.626333370790983 -1447.7848578529133 C 13.911988913860668 -1444.7619052352754, 12.197644456930368 -1441.7389526176376, 10.48330000000001 -1438.7160000000003" stroke="#01136e" fill="none">
		<title>.id(nerve_feature_16)</title>
	</path>
	<path d="M 8.818164423473169 -1393.0541186749326 C 9.298836945402883 -1394.091482069066, 9.779509912281613 -1395.1288464234663, 10.260182434211346 -1396.1662098175998 C 10.740854956141085 -1397.2035732117338, 11.221527478070543 -1398.240936605867, 11.702200000000099 -1399.2783000000004" stroke="#01136e" fill="none">
		<title>.id(nerve_feature_17)</title>
	</path>
	<path d="M 11.00423078862422 -1389.443832381396 C 10.920458246635356 -1390.4845695593856, 10.836690167113227 -1391.5252512985055, 10.752917625090822 -1392.565988476912 C 10.669145083068413 -1393.6067256553183, 10.58537254100169 -1394.6474628342744, 10.501599998945938 -1395.6882000130947" stroke="#01136e" fill="none">
		<title>.id(nerve_feature_18)</title>
	</path>
	<path d="M 27.819230967256082 -1102.3238930903908 C 28.750589506235507 -1098.664391372817, 29.71707086315102 -1094.9258887638478, 30.51353479950591 -1091.2927432511153 C 31.3099987358608 -1087.6595977383827, 32.080473485902615 -1083.8871598771977, 31.68784400361543 -1080.800673563834 C 31.29521452132823 -1077.71418725047, 29.848349173362877 -1075.6813494425699, 28.54278365342654 -1073.60565212985" stroke="#01136e" fill="none">
		<title>.id(nerve_feature_19)</title>
	</path>
	<path d="M 18.405000998363057 -1294.4849577422835 C 15.657210479508544 -1293.126013490305, 12.911860639069792 -1291.7682762975544, 10.164069428717825 -1290.4093317035897 C 7.41627821836585 -1289.0503871096253, 4.668485432865559 -1287.691441736657, 1.9206935308845532 -1286.332496800641" stroke="#01136e" fill="none">
		<title>.id(nerve_feature_20)</title>
	</path>
	<path d="M 29.00028654939989 -1310.4569581405776 C 25.99240191730661 -1307.7771450834357, 22.970034108947072 -1305.0844285377589, 19.962140269904996 -1302.4046072778751 C 16.954246430862923 -1299.7247860179912, 13.946330791792624 -1297.0449453358199, 10.93842651247969 -1294.365114774391 C 7.930522233166759 -1291.6852842129622, 4.922614743690431 -1289.005450791504, 1.9147092220779727 -1286.325619123274" stroke="#01136e" fill="none">
		<title>.id(nerve_feature_21)</title>
	</path>
	<path d="M 8.90532043928135 -1398.9007882512792 C 7.307829834198001 -1400.7777047619502, 5.709562399430536 -1402.6555339818754, 4.112071774871337 -1404.5324505154283 C 2.5145811503121394 -1406.4093670489822, 0.9170904779142812 -1408.2862836387424, -0.680400166118412 -1410.1632001951762" stroke="#01136e" fill="none">
		<title>.id(nerve_feature_22)</title>
	</path>
	<path d="M 12.689313638155543 -1254.928021407744 C 11.494030828824922 -1258.5136851567593, 10.297379762535908 -1262.103453465245, 9.102096929966397 -1265.6891172839732 C 7.906814097396879 -1269.2747811027011, 6.711531210774146 -1272.8604450835805, 5.516248351946479 -1276.4461089810789 C 4.320965493118816 -1280.0317728785776, 3.125682626652699 -1283.6174367989909, 1.9303997648000353 -1287.203100705564" stroke="#01136e" fill="none">
		<title>.id(nerve_feature_23)</title>
	</path>
	<path d="M 27.0567758619704 -1422.2033099281489 C 25.628931700817795 -1417.048779505923, 23.86893243843383 -1411.3907250837499, 21.205275772625292 -1407.371294624358 C 18.54161910681676 -1403.3518641649646, 15.754778881529063 -1401.164361296382, 13.154374593346791 -1399.1603082095728" stroke="#01136e" fill="none">
		<title>.id(nerve_feature_24)</title>
	</path>
	<path d="M 11.00423078862422 -1389.443832381396 C 10.60418451075748 -1390.1041603545798, 10.204215936522754 -1390.764360047782, 9.804304857128201 -1391.4247755408 C 9.404393777733645 -1392.0851910338197, 9.004657320025991 -1392.745719532577, 8.60510406611516 -1393.4063665108924" stroke="#01136e" fill="none">
		<title>.id(nerve_feature_25)</title>
	</path>
	<path d="M 27.342028661991506 -1423.4453197859816 C 25.275203781239835 -1420.450181907552, 23.209129912200993 -1417.4557749209162, 21.09758221149595 -1414.4901010919127 C 18.986034510790912 -1411.5244272629097, 16.82974602536895 -1408.5878962012137, 14.581811720336567 -1405.717900467648 C 12.333877415304185 -1402.8479047340825, 9.984015385577663 -1400.052679836511, 7.514521885247799 -1397.3591089389222" stroke="#01136e" fill="none">
		<title>.id(nerve_feature_26)</title>
	</path>
	<path d="M 22.448108456829225 -1284.9641506854223 C 21.381675715243958 -1287.6859908679658, 20.372284032394518 -1290.3839922447098, 18.87151761784222 -1293.5323730130858 C 17.370751203289934 -1296.680753781462, 15.235010831280754 -1300.2378867907332, 13.329679764298538 -1303.792020010868 C 11.424348697316324 -1307.3461532310032, 9.711283868994563 -1311.1779627726166, 9.317387318670061 -1315.295908410238 C 8.923490768345557 -1319.4138540478596, 9.095110778164234 -1323.544056593218, 9.227970914095227 -1327.66523535262 C 9.360831050026222 -1331.7864141120215, 9.54492779525971 -1335.9064689703969, 9.725437276061745 -1340.0257297846063 C 9.905946756863775 -1344.1449905988152, 10.091171209911638 -1348.2642150039114, 10.275040634195378 -1352.383355945859 C 10.45891005847912 -1356.5024968878067, 10.64397941239915 -1360.6217009839386, 10.81759309636052 -1364.741256719251 C 10.99120678032189 -1368.8608124545635, 11.17343108550349 -1372.9808325666022, 11.229480740167238 -1377.104190148022 C 11.285530394830989 -1381.227547729442, 11.17511545756043 -1385.3530422451463, 11.00322431830165 -1389.4679432506136" stroke="#01136e" fill="none">
		<title>.id(nerve_feature_27)</title>
	</path>
	<path d="M 32.23498820248274 -1481.4019357625202 C 32.17062702249501 -1477.4458416162825, 32.10908966547903 -1473.635780253946, 32.01313578931305 -1469.6773881041559 C 31.91718191314706 -1465.718995954366, 31.789261178250335 -1461.7579851612127, 31.595448539700236 -1457.7943664071156 C 31.401635901150122 -1453.8307476530192, 31.141988771085074 -1449.8640696017915, 30.779828789811244 -1445.8975074111027 C 30.417668808537407 -1441.930945220413, 29.95301330436625 -1437.9642788797498, 29.345402369342413 -1434.0066714863735 C 28.737791434318584 -1430.049064092998, 27.969332001838104 -1426.1032228963988, 27.051399059308594 -1422.1803239295452" stroke="#01136e" fill="none">
		<title>.id(nerve_feature_28)</title>
	</path>
	<path d="M 13.340362163793055 -1451.5330233515924 C 11.040205103198165 -1449.446719860915, 8.772099917628776 -1447.38948827141, 6.471929523696868 -1445.3031726870418 C 4.171759129764961 -1443.2168571026737, 1.8715583679411403 -1441.1305139738217, -0.42862539977558733 -1439.044186259076" stroke="#01136e" fill="none">
		<title>.id(nerve_feature_29)</title>
	</path>
	<path d="M 26.809329603084983 -1492.0510298000236 C 25.506221573309105 -1491.5067977373867, 23.820651498988223 -1490.8028336321056, 22.516853101278503 -1490.2583132431323 C 21.213054703568776 -1489.7137928541588, 19.907720186976043 -1489.168630918108, 18.603181393225206 -1488.623801308981 C 17.298642599474377 -1488.0789716998543, 15.993881678621301 -1487.5340493212182, 14.689256046611296 -1486.9891834448256" stroke="#01136e" fill="none">
		<title>.id(nerve_feature_30)</title>
	</path>
	<path d="M 7.528990204784664 -1397.3748927440372 C 6.060323006518326 -1401.2502298417019, 4.663389086408839 -1405.1157735531467, 3.305615610516374 -1408.9749621795438 C 1.947842134623908 -1412.8341508059411, 0.6277119854265959 -1416.6873510464065, -0.6923824910894726 -1420.5404475968605" stroke="#01136e" fill="none">
		<title>.id(nerve_feature_31)</title>
	</path>
	<path d="M 11.239797339981036 -1378.094796951706 C 11.152899708676106 -1378.5100178978073, 11.066090480197637 -1378.924816430723, 10.979192848702573 -1379.3400373777326 C 10.892295217207506 -1379.7552583247427, 10.805397585509617 -1380.1704792727219, 10.718499953824848 -1380.5857002206383" stroke="#01136e" fill="none">
		<title>.id(nerve_feature_32)</title>
	</path>
	<path d="M 30.440288850197618 -1486.3164909615402 C 29.292179215506295 -1483.1667783554287, 28.15990953586077 -1480.0558676260916, 26.958876915567043 -1476.900065291082 C 25.757844295273316 -1473.7442629560724, 24.505428742502474 -1470.5793525491154, 23.095753299187592 -1467.409031812318 C 21.686077855872703 -1464.2387110755205, 20.119174908680158 -1461.0470779553095, 18.172025033341722 -1457.9156142663883 C 16.224875158003297 -1454.7841505774666, 13.797407138039034 -1451.7208677106705, 10.899219868926238 -1449.1237567045596 C 8.001032599813444 -1446.5266456984496, 4.848169911064087 -1444.3281905971694, 1.7265202279517422 -1442.136786551328" stroke="#01136e" fill="none">
		<title>.id(nerve_feature_33)</title>
	</path>
	<path d="M 8.607445200558832 -1393.402495533859 C 9.216344789584733 -1395.7274217319534, 9.825120678934116 -1398.0523654175477, 10.43383369461076 -1400.37731796418 C 11.042546710287404 -1402.7022705108125, 11.651197363818717 -1405.0272318604143, 12.259848017171837 -1407.3521932093363" stroke="#01136e" fill="none">
		<title>.id(nerve_feature_34)</title>
	</path>
	<path d="M 22.114033343643705 -1284.1120050702662 C 24.38612247474118 -1285.9436854067699, 26.674255940054177 -1287.7883001352802, 28.946345853035204 -1289.6199811021113 C 31.218435766016242 -1291.4516620689421, 33.49052748985973 -1293.2833444956286, 35.762618286677515 -1295.115026174979 C 38.03470908349529 -1296.9467078543294, 40.3068001194372 -1298.778389726453, 42.57889103296537 -1300.610071499891 C 44.850981946493555 -1302.4417532733291, 47.123072891598916 -1304.2734350722237, 49.395163820538166 -1306.105116858086 C 51.66725474947738 -1307.9367986439481, 53.93934568259107 -1309.7684804331757, 56.211436613560615 -1311.6001622206752 C 58.48352754453021 -1313.4318440081743, 60.75561847608764 -1315.2635257961476, 63.02770940729052 -1317.0952075838347" stroke="#01136e" fill="none">
		<title>.id(nerve_feature_35)</title>
	</path>
	<path d="M 22.114033343643705 -1284.1120050702666 C 22.13783346245493 -1283.9182223383884, 22.161696460615147 -1283.723927637132, 22.185496605309602 -1283.5301446945102 C 22.20929675000404 -1283.3363617518883, 22.23309695370731 -1283.142578328811, 22.256897127567854 -1282.948795148716 C 22.280697301428404 -1282.7550119686211, 22.304497482809534 -1282.5612287272934, 22.328297660387246 -1282.3674455169332 C 22.35209783796497 -1282.1736623065726, 22.37589801650117 -1281.9798790884086, 22.399698194552634 -1281.786095874191 C 22.423498372604094 -1281.5923126599735, 22.447298550777713 -1281.3985294447612, 22.47109872888955 -1281.2047462300523 C 22.494898907001417 -1281.0109630153431, 22.518699085128826 -1280.8171798005076, 22.542499263248367 -1280.623396585736 C 22.566299441367892 -1280.4296133709643, 22.590099619489422 -1280.2358301561765, 22.61389979760994 -1280.042046941397 C 22.637699975730456 -1279.8482637266175, 22.661500153851243 -1279.6544805118356, 22.685300331971867 -1279.4606972970548" stroke="#01136e" fill="none">
		<title>.id(nerve_feature_36)</title>
	</path>
	<path d="M 16.052259715378554 -1269.9044308964762 C 17.49799422802195 -1272.3587472901197, 18.920624387750486 -1274.773841135206, 20.36636056756766 -1277.228160359087 C 21.812096747384835 -1279.6824795829682, 23.257836754555317 -1282.1368053042625, 24.703574821742812 -1284.5911277321918 C 26.1493128889303 -1287.0454501601214, 27.595051447119204 -1289.4997734215883, 29.04078975642002 -1291.954096260536 C 30.486528065720837 -1294.4084190994838, 31.932266438075978 -1296.8627420454734, 33.378004778371796 -1299.3170649370388 C 34.82374311866761 -1301.7713878286045, 36.26948146756915 -1304.2257107347798, 37.71521981133839 -1306.6800336322422" stroke="#01136e" fill="none">
		<title>.id(nerve_feature_37)</title>
	</path>
	<path d="M 16.05225971537856 -1269.9044308964762 C 17.619301736767 -1267.1387667950416, 19.191922613014142 -1264.3632566024369, 20.758971672514413 -1261.5975800794758 C 22.326020732014694 -1258.831903556515, 23.893085920121766 -1256.0661985682618, 25.460142919358802 -1253.300508032502 C 27.027199918595848 -1250.534817496742, 28.594258997017832 -1247.7691232914399, 30.161317019787806 -1245.003430949252 C 31.728375042557786 -1242.2377386070643, 33.29543333336208 -1239.472045791824, 34.86249148807888 -1236.706353216764 C 36.429549642795685 -1233.940660641704, 37.99660783206558 -1231.174968005661, 39.563666003792115 -1228.409275400581 C 41.13072417551867 -1225.6435827955008, 42.69778235169981 -1222.8778901825597, 44.264840525619114 -1220.11219757361 C 45.83189869953843 -1217.3465049646604, 47.39895687403252 -1214.5808123546956, 48.96601504823391 -1211.815119745248 C 50.53307322243532 -1209.0494271358004, 52.10013139671588 -1206.2837345262137, 53.66718957094884 -1203.5180419167102" stroke="#01136e" fill="none">
		<title>.id(nerve_feature_38)</title>
	</path>
	<path d="M 28.550435059535694 -1073.6178139364729 C 25.933186298736626 -1072.6479690230863, 23.112297289547534 -1071.8981779726137, 20.106454190182372 -1071.38790838722 C 17.100611090817203 -1070.8776388018264, 13.94177353145977 -1070.574614786185, 10.70297619025751 -1070.402532631008 C 7.464178849055251 -1070.230450475831, 4.1444037260837945 -1070.1892148042768, 0.7911556333232141 -1070.210692568946 C -2.5620924594373653 -1070.232170333615, -5.950142889309095 -1070.3166005896398, -9.337556697049243 -1070.4008511917593" stroke="#01136e" fill="none">
		<title>.id(nerve_feature_39)</title>
	</path>
	<path d="M 26.809329603084983 -1492.0510298000236 C 26.39670168392287 -1491.5414310231272, 25.851615978919995 -1490.8682458224332, 25.438581556930334 -1490.358145011297 C 25.025547134940663 -1489.848044200161, 24.611648591212525 -1489.336876191774, 24.198183668361906 -1488.826243708635 C 23.784718745511295 -1488.3156112254962, 23.371140480687682 -1487.804838764115, 22.957628839803768 -1487.2941485838314" stroke="#01136e" fill="none">
		<title>.id(nerve_feature_40)</title>
	</path>
	<path d="M 29.40296887324417 -1323.1040222184706 C 26.992887086369 -1320.0080829190763, 24.57873542745788 -1316.9069155494774, 22.168651849287574 -1313.8109739490237 C 19.758568271117266 -1310.7150323485705, 17.348480600495506 -1307.6190854910415, 14.938395002565253 -1304.5231412960477 C 12.528309404634998 -1301.4271971010542, 10.118223282455606 -1298.331252232621, 7.708137426593595 -1295.235307706294 C 5.298051570731593 -1292.1393631799672, 2.8879656435100616 -1289.0434185619738, 0.47787975880437616 -1285.947473998595" stroke="#01136e" fill="none">
		<title>.id(nerve_feature_41)</title>
	</path>
	<path d="M 8.105486791159322 -1398.0081390261641 C 7.129296978606546 -1401.7105196400798, 6.152728695303266 -1405.414335674394, 5.176538881010757 -1409.116716294908 C 4.20034906671825 -1412.819096915422, 3.22415924836985 -1416.5214775513195, 2.247969432110074 -1420.2238581792951 C 1.2717796158502983 -1423.9262388072702, 0.29558979901491533 -1427.6286194374288, -0.6806000174722138 -1431.3310000662668" stroke="#01136e" fill="none">
		<title>.id(nerve_feature_42)</title>
	</path>
	<path d="M 12.689313638155543 -1254.928021407744 C 11.453638369517568 -1258.4318331995048, 10.216526983063547 -1261.9397171667529, 8.980851689812651 -1265.4435290283047 C 7.745176396561758 -1268.947340889857, 6.509501046259501 -1272.4511529131805, 5.273825725219818 -1275.954964853529 C 4.038150404180133 -1279.4587767938774, 2.802475075141105 -1282.9625887569082, 1.566799750919926 -1286.466400706278" stroke="#01136e" fill="none">
		<title>.id(nerve_feature_43)</title>
	</path>
	<path d="M 11.031821628757651 -1388.768631912562 C 10.736390134017805 -1388.2992057955337, 10.441217834557136 -1387.8301915270577, 10.145786269496917 -1387.360765298294 C 9.8503547044367 -1386.8913390695302, 9.554923061248102 -1386.4219127166243, 9.259491425847498 -1385.9524863760928" stroke="#01136e" fill="none">
		<title>.id(nerve_feature_44)</title>
	</path>
	<path d="M 21.11238772069403 -1508.391292311859 C 21.479266329676065 -1504.785730149753, 21.846144938658096 -1501.1801679876469, 22.213023547640127 -1497.5746058255406 C 22.579902156622165 -1493.969043663435, 26.915248406548205 -1493.1355086606711, 28.859254976129222 -1489.6045799483522 C 30.803261545710235 -1486.073651236033, 32.286482868947544 -1481.6043186881857, 33.34530805038268 -1477.535445817806 C 34.40413323181779 -1473.4665729474264, 35.171331634021584 -1469.3095359483855, 35.643487272014966 -1465.172082805709 C 36.11564291000837 -1461.0346296630323, 36.285956037355895 -1456.8616510327186, 36.21070731027149 -1452.6781081883157 C 36.13545858318708 -1448.494565343913, 35.75298833790334 -1444.3537186298443, 35.20428142391016 -1440.1823971009508 C 34.655574509916974 -1436.0110755720561, 33.862575829202484 -1431.7963288705826, 32.89860593462863 -1427.6242736651225 C 31.934636040054766 -1423.452218459663, 30.86751483303816 -1419.2914363147675, 29.787364258569955 -1415.1370456825869 C 28.707213684101745 -1410.9826550504067, 27.606888977770964 -1406.8359540076433, 26.547756796583123 -1402.7053846745619 C 25.488624615395274 -1398.5748153414809, 24.475592795152853 -1394.4409505988904, 23.690094533517808 -1390.2984812211662 C 22.904596271882774 -1386.1560118434415, 22.372375028021793 -1382.006741423869, 22.25665492190636 -1377.887305472112 C 22.140934815790928 -1373.7678695203551, 22.367728780336925 -1369.695015306589, 22.794362904897305 -1365.6730102257268 C 23.220997029457678 -1361.651005144865, 23.849967553948662 -1357.6785396520645, 24.611426706315793 -1353.7391493361492 C 25.372885858682935 -1349.7997590202335, 26.260314537520927 -1345.8900453458502, 27.051761384462825 -1341.9337829986232 C 27.843208231404702 -1337.977520651396, 28.507650607804038 -1333.9578711156928, 28.923245786623415 -1329.888072739492 C 29.3388409654428 -1325.8182743632913, 29.537770771590964 -1321.7068028898123, 29.455876607211298 -1317.5696303019718 C 29.373982442831622 -1313.4324577141317, 28.97397116256265 -1309.2033817872946, 28.214079222756258 -1305.0490356005541 C 27.454187282949874 -1300.8946894138132, 26.393949768683306 -1296.844914286611, 25.237314500696066 -1293.0694026688388 C 24.08067923270881 -1289.293891051067, 22.818627333266978 -1285.7756136895882, 21.58503643149739 -1282.8110500774242 C 20.351445529727805 -1279.8464864652597, 19.154029239670713 -1277.383763671018, 18.052931742317003 -1274.9055779979017 C 16.9518342449633 -1272.4273923247858, 15.945711320878976 -1269.8751189470738, 15.092941063954079 -1266.8715125200733 C 14.240170807029187 -1263.8679060930724, 13.52116647850848 -1260.5573131759072, 12.969720534937684 -1256.9349780964387 C 12.418274591366881 -1253.3126430169705, 12.077596853743707 -1249.3436798342989, 11.818574157391119 -1245.2353607319337 C 11.559551461038533 -1241.1270416295688, 11.373863152597334 -1236.879710619173, 11.187059694916593 -1232.6032972509747 C 11.000256237235845 -1228.3268838827769, 10.82597136406178 -1224.039388103151, 10.663881709617288 -1219.8709542547388 C 10.501792055172796 -1215.7025204063268, 10.352059892534495 -1211.658153558559, 10.22002016905189 -1207.7022885718027 C 10.087980445569286 -1203.7464235850466, 9.997670513107948 -1199.8825160344904, 9.879376457266577 -1196.028083868315 C 9.761082401425199 -1192.1736517021395, 9.574484896819627 -1188.29439111499, 9.032632784333957 -1184.2764237827 C 8.490780671848292 -1180.25845645041, 7.667200935066375 -1176.1564395502194, 6.75793523777389 -1172.0486318742328 C 5.848669540481403 -1167.9408241982464, 4.825651636497637 -1163.8114213065667, 4.018230192766473 -1159.697252158614 C 3.2108087490353068 -1155.5830830106613, 2.674960413537643 -1151.4841986947442, 2.582701279378199 -1147.561476380019 C 2.4904421452187546 -1143.6387540652938, 2.8962547338863964 -1139.9673072110857, 3.760005939336355 -1136.641405918134 C 4.623757144786314 -1133.3155046251827, 5.899326395255151 -1130.042390806444, 7.6570576713793415 -1126.668042554449 C 9.414788947503531 -1123.2936943024538, 11.74405425293551 -1119.830303932391, 14.333066823735152 -1116.5895465368203 C 16.92207939453479 -1113.3487891412492, 19.68001050729718 -1110.503735628405, 22.35858308875632 -1107.841402687522 C 25.037155670215476 -1105.1790697466395, 27.663517252145382 -1102.5739968035903, 30.22195963949877 -1099.7439283918718 C 32.78040202685215 -1096.9138599801536, 34.9762649397776 -1094.4939301379827, 37.48670153135632 -1092.1013736972557 C 39.99713812293504 -1089.7088172565288, 43.00598958633148 -1087.2077057974723, 45.814032618727886 -1084.819826135712 C 48.6220756511243 -1082.4319464739517, 50.95582044825029 -1080.3317214176818, 53.21606222333353 -1078.2930385988232" stroke="#01136e" fill="none">
		<title>.id(nerve_feature_48)</title>
	</path>
	<circle cx="32.89654483537752" cy="-1096.8064755126559" r="1" fill="orange">
		<title>.id(marker_189)</title>
	</circle>
	<circle cx="3.180290805546237" cy="-1139.3015828620173" r="1" fill="orange">
		<title>.id(marker_190)</title>
	</circle>
	<circle cx="22.0518531419448" cy="-1283.956012117795" r="1" fill="orange">
		<title>.id(marker_191)</title>
	</circle>
	<circle cx="29.404102787124874" cy="-1323.0741143938455" r="1" fill="orange">
		<title>.id(marker_192)</title>
	</circle>
	<circle cx="28.437986635859513" cy="-1333.8782206586247" r="1" fill="orange">
		<title>.id(marker_193)</title>
	</circle>
	<circle cx="27.86177567395428" cy="-1407.7734203959965" r="1" fill="orange">
		<title>.id(marker_194)</title>
	</circle>
	<circle cx="35.659334731580685" cy="-1444.0251398848711" r="1" fill="orange">
		<title>.id(marker_195)</title>
	</circle>
	<circle cx="35.14561832610292" cy="-1439.743114375057" r="1" fill="orange">
		<title>.id(marker_196)</title>
	</circle>
	<circle cx="36.083830555252554" cy="-1449.2701417493327" r="1" fill="orange">
		<title>.id(marker_197)</title>
	</circle>
	<circle cx="35.65432626660681" cy="-1465.0766264636618" r="1" fill="orange">
		<title>.id(marker_198)</title>
	</circle>
	<circle cx="29.356162232562276" cy="-1488.66265867177" r="1" fill="orange">
		<title>.id(marker_199)</title>
	</circle>
	<circle cx="22.367005642921068" cy="-1496.7832515736056" r="1" fill="orange">
		<title>.id(marker_200)</title>
	</circle>
	<circle cx="15.998463943708895" cy="-1269.749630471106" r="1" fill="orange">
		<title>.id(marker_201)</title>
	</circle>
	<circle cx="30.45128442785951" cy="-1486.2905083635737" r="1" fill="orange">
		<title>.id(marker_202)</title>
	</circle>
</svg>
