<?xml version="1.0" ?>
<svg xmlns="http://www.w3.org/2000/svg" width="1000" height="1000" viewBox="-19 -1513 94 455">
	<circle style="fill: rgb(216, 216, 216);" cx="8.745960920004407" cy="-1393.2367076109026" r="0.9054">
		<title>.id(point_01)</title>
	</circle>
	<circle style="fill: rgb(216, 216, 216);" cx="11.281076687783441" cy="-1397.5021550121048" r="0.9054">
		<title>.id(point_02)</title>
	</circle>
	<circle style="fill: rgb(216, 216, 216);" cx="12.384127544590193" cy="-1407.175927500302" r="0.9054">
		<title>.id(point_03)</title>
	</circle>
	<circle style="fill: rgb(216, 216, 216);" cx="27.72944530586744" cy="-1491.970582534606" r="0.9054">
		<title>.id(point_04)</title>
	</circle>
	<circle style="fill: rgb(216, 216, 216);" cx="59.21281228622012" cy="-1503.508004244492" r="0.9054">
		<title>.id(point_05)</title>
	</circle>
	<circle style="fill: rgb(216, 216, 216);" cx="46.34266593014634" cy="-1501.924074997515" r="0.9054">
		<title>.id(point_06)</title>
	</circle>
	<circle style="fill: rgb(216, 216, 216);" cx="36.990832789653616" cy="-1493.5947445211914" r="0.9054">
		<title>.id(point_07)</title>
	</circle>
	<circle style="fill: rgb(216, 216, 216);" cx="11.01529428418843" cy="-1499.081708231075" r="0.9054">
		<title>.id(point_08)</title>
	</circle>
	<circle style="fill: rgb(216, 216, 216);" cx="54.65301401744222" cy="-1077.1374799076104" r="0.9054">
		<title>.id(point_09)</title>
	</circle>
	<circle style="fill: rgb(216, 216, 216);" cx="11.54572303906169" cy="-1236.5222417676873" r="0.9054">
		<title>.id(point_10)</title>
	</circle>
	<circle style="fill: rgb(216, 216, 216);" cx="28.392365346976728" cy="-1304.6450960905584" r="0.9054">
		<title>.id(point_11)</title>
	</circle>
	<circle style="fill: rgb(216, 216, 216);" cx="21.82719235082169" cy="-1108.5291287500538" r="0.9054">
		<title>.id(point_12)</title>
	</circle>
	<circle style="fill: rgb(216, 216, 216);" cx="29.144661188107712" cy="-1489.1505916654648" r="0.9054">
		<title>.id(point_13)</title>
	</circle>
	<circle style="fill: rgb(216, 216, 216);" cx="28.102604358979512" cy="-1102.609945724173" r="0.9054">
		<title>.id(point_14)</title>
	</circle>
	<circle style="fill: rgb(216, 216, 216);" cx="29.286762469834553" cy="-1310.3211463716978" r="0.9054">
		<title>.id(point_15)</title>
	</circle>
	<circle style="fill: rgb(216, 216, 216);" cx="22.42575022088162" cy="-1284.2719150990947" r="0.9054">
		<title>.id(point_16)</title>
	</circle>
	<circle style="fill: rgb(216, 216, 216);" cx="32.09920859523178" cy="-1481.0923952351013" r="0.9054">
		<title>.id(point_17)</title>
	</circle>
	<circle style="fill: rgb(216, 216, 216);" cx="27.217690080710742" cy="-1492.7051869279194" r="0.9054">
		<title>.id(point_18)</title>
	</circle>
	<circle style="fill: rgb(216, 216, 216);" cx="22.31142399454284" cy="-1283.9811994975075" r="0.9054">
		<title>.id(point_19)</title>
	</circle>
	<circle style="fill: rgb(216, 216, 216);" cx="16.36546673984569" cy="-1269.942807263589" r="0.9054">
		<title>.id(point_20)</title>
	</circle>
	<circle style="fill: rgb(216, 216, 216);" cx="29.568995327607738" cy="-1322.972754450469" r="0.9054">
		<title>.id(point_21)</title>
	</circle>
	<circle style="fill: rgb(216, 216, 216);" cx="11.229664976689417" cy="-1388.6960780133202" r="0.9054">
		<title>.id(point_22)</title>
	</circle>
	<circle style="fill: rgb(216, 216, 216);" cx="10.134941822990406" cy="-1395.640398713187" r="0.9054">
		<title>.id(point_23)</title>
	</circle>
	<circle style="fill: rgb(216, 216, 216);" cx="11.489877828227831" cy="-1437.6718070447475" r="0.9054">
		<title>.id(point_24)</title>
	</circle>
	<circle style="fill: rgb(216, 216, 216);" cx="30.328762021816416" cy="-1485.9824567196656" r="0.9054">
		<title>.id(point_25)</title>
	</circle>
	<circle style="fill: rgb(216, 216, 216);" cx="30.111377513449767" cy="-1409.8027483630271" r="0.9054">
		<title>.id(point_26)</title>
	</circle>
	<circle style="fill: rgb(216, 216, 216);" cx="31.128837579129026" cy="-1477.051388586676" r="0.9054">
		<title>.id(point_27)</title>
	</circle>
	<circle style="fill: rgb(216, 216, 216);" cx="-0.5302498495162236" cy="-1440.3783733851974" r="0.9054">
		<title>.id(point_28)</title>
	</circle>
	<circle style="fill: rgb(216, 216, 216);" cx="1.35095105008789" cy="-1271.1118596574288" r="0.9054">
		<title>.id(point_29)</title>
	</circle>
	<circle style="fill: rgb(216, 216, 216);" cx="52.67591030647481" cy="-1251.129190346378" r="0.9054">
		<title>.id(point_30)</title>
	</circle>
	<circle style="fill: rgb(216, 216, 216);" cx="7.073489392386879" cy="-1292.596456954932" r="0.9054">
		<title>.id(point_31)</title>
	</circle>
	<circle style="fill: rgb(216, 216, 216);" cx="8.396828481560332" cy="-1081.322763354821" r="0.9054">
		<title>.id(point_32)</title>
	</circle>
	<circle style="fill: rgb(216, 216, 216);" cx="29.781847549530085" cy="-1491.3226582978964" r="0.9054">
		<title>.id(point_33)</title>
	</circle>
	<circle style="fill: rgb(216, 216, 216);" cx="32.10460312919948" cy="-1490.0007355701014" r="0.9054">
		<title>.id(point_34)</title>
	</circle>
	<circle style="fill: rgb(216, 216, 216);" cx="23.108778231193163" cy="-1410.0733081579376" r="0.9054">
		<title>.id(point_35)</title>
	</circle>
	<circle style="fill: rgb(216, 216, 216);" cx="23.617146541891433" cy="-1399.5378536905591" r="0.9054">
		<title>.id(point_36)</title>
	</circle>
	<circle style="fill: rgb(216, 216, 216);" cx="27.133166395298723" cy="-1422.1456022309558" r="0.9054">
		<title>.id(point_37)</title>
	</circle>
	<circle style="fill: rgb(216, 216, 216);" cx="13.041828695878364" cy="-1398.7510069936168" r="0.9054">
		<title>.id(point_38)</title>
	</circle>
	<circle style="fill: rgb(216, 216, 216);" cx="6.198668081365819" cy="-1402.543663439788" r="0.9054">
		<title>.id(point_39)</title>
	</circle>
	<circle style="fill: rgb(216, 216, 216);" cx="12.905182112968868" cy="-1398.381512083867" r="0.9054">
		<title>.id(point_40)</title>
	</circle>
	<circle style="fill: rgb(216, 216, 216);" cx="9.583819031879447" cy="-1398.8078117886068" r="0.9054">
		<title>.id(point_41)</title>
	</circle>
	<circle style="fill: rgb(216, 216, 216);" cx="-0.5325990705313647" cy="-1409.9722880033792" r="0.9054">
		<title>.id(point_42)</title>
	</circle>
	<circle style="fill: rgb(216, 216, 216);" cx="30.939512138781986" cy="-1487.950713507789" r="0.9054">
		<title>.id(point_43)</title>
	</circle>
	<circle style="fill: rgb(216, 216, 216);" cx="13.41469698134992" cy="-1451.3720492672578" r="0.9054">
		<title>.id(point_44)</title>
	</circle>
	<circle style="fill: rgb(216, 216, 216);" cx="10.735655554213938" cy="-1438.671116566727" r="0.9054">
		<title>.id(point_45)</title>
	</circle>
	<circle style="fill: rgb(216, 216, 216);" cx="-0.31017271915688016" cy="-1438.851147927675" r="0.9054">
		<title>.id(point_46)</title>
	</circle>
	<circle style="fill: rgb(216, 216, 216);" cx="10.592027032311247" cy="-1438.529426800293" r="0.9054">
		<title>.id(point_47)</title>
	</circle>
	<circle style="fill: rgb(216, 216, 216);" cx="8.942669648465985" cy="-1392.875422646072" r="0.9054">
		<title>.id(point_48)</title>
	</circle>
	<circle style="fill: rgb(216, 216, 216);" cx="11.833468987853301" cy="-1399.1031274892453" r="0.9054">
		<title>.id(point_49)</title>
	</circle>
	<circle style="fill: rgb(216, 216, 216);" cx="8.744349061295676" cy="-1393.2396692480268" r="0.9054">
		<title>.id(point_50)</title>
	</circle>
	<circle style="fill: rgb(216, 216, 216);" cx="10.6328693668997" cy="-1395.5148329800013" r="0.9054">
		<title>.id(point_51)</title>
	</circle>
	<circle style="fill: rgb(216, 216, 216);" cx="29.291456666452696" cy="-1074.078212670699" r="0.9054">
		<title>.id(point_52)</title>
	</circle>
	<circle style="fill: rgb(216, 216, 216);" cx="29.300585661648043" cy="-1074.088490600201" r="0.9054">
		<title>.id(point_53)</title>
	</circle>
	<circle style="fill: rgb(216, 216, 216);" cx="18.98725201325569" cy="-1293.9695027010152" r="0.9054">
		<title>.id(point_54)</title>
	</circle>
	<circle style="fill: rgb(216, 216, 216);" cx="2.090317709420715" cy="-1286.20027845962" r="0.9054">
		<title>.id(point_55)</title>
	</circle>
	<circle style="fill: rgb(216, 216, 216);" cx="11.22816888805228" cy="-1388.7202789932862" r="0.9054">
		<title>.id(point_56)</title>
	</circle>
	<circle style="fill: rgb(216, 216, 216);" cx="11.494493404945372" cy="-1377.9163200062399" r="0.9054">
		<title>.id(point_57)</title>
	</circle>
	<circle style="fill: rgb(216, 216, 216);" cx="11.238562312167417" cy="-1388.5508616035397" r="0.9054">
		<title>.id(point_58)</title>
	</circle>
	<circle style="fill: rgb(216, 216, 216);" cx="2.0844358057967" cy="-1286.193471878812" r="0.9054">
		<title>.id(point_59)</title>
	</circle>
	<circle style="fill: rgb(216, 216, 216);" cx="27.563288693440068" cy="-1423.2865294289297" r="0.9054">
		<title>.id(point_60)</title>
	</circle>
	<circle style="fill: rgb(216, 216, 216);" cx="7.5485738652207885" cy="-1397.2220604057889" r="0.9054">
		<title>.id(point_61)</title>
	</circle>
	<circle style="fill: rgb(216, 216, 216);" cx="7.5662579381568555" cy="-1397.2347141738915" r="0.9054">
		<title>.id(point_62)</title>
	</circle>
	<circle style="fill: rgb(216, 216, 216);" cx="8.368894163694616" cy="-1397.8294801203758" r="0.9054">
		<title>.id(point_63)</title>
	</circle>
	<circle style="fill: rgb(216, 216, 216);" cx="12.75649882159101" cy="-1254.9218994347525" r="0.9054">
		<title>.id(point_64)</title>
	</circle>
	<circle style="fill: rgb(216, 216, 216);" cx="2.099887904342979" cy="-1287.070501768007" r="0.9054">
		<title>.id(point_65)</title>
	</circle>
	<circle style="fill: rgb(216, 216, 216);" cx="1.7365899611095883" cy="-1286.334011271967" r="0.9054">
		<title>.id(point_66)</title>
	</circle>
	<circle style="fill: rgb(216, 216, 216);" cx="27.12602809249242" cy="-1422.1272601280941" r="0.9054">
		<title>.id(point_67)</title>
	</circle>
	<circle style="fill: rgb(216, 216, 216);" cx="14.735124723480904" cy="-1486.811683070394" r="0.9054">
		<title>.id(point_68)</title>
	</circle>
	<circle style="fill: rgb(216, 216, 216);" cx="-0.5436316032499475" cy="-1420.334121953317" r="0.9054">
		<title>.id(point_69)</title>
	</circle>
	<circle style="fill: rgb(216, 216, 216);" cx="10.853798274939814" cy="-1380.4188498588485" r="0.9054">
		<title>.id(point_70)</title>
	</circle>
	<circle style="fill: rgb(216, 216, 216);" cx="63.12292547206555" cy="-1316.9906013333298" r="0.9054">
		<title>.id(point_71)</title>
	</circle>
	<circle style="fill: rgb(216, 216, 216);" cx="22.771785907579815" cy="-1279.374864942849" r="0.9054">
		<title>.id(point_72)</title>
	</circle>
	<circle style="fill: rgb(216, 216, 216);" cx="37.820382573460556" cy="-1306.5725563622518" r="0.9054">
		<title>.id(point_73)</title>
	</circle>
	<circle style="fill: rgb(216, 216, 216);" cx="53.78507348328521" cy="-1203.4643711818417" r="0.9054">
		<title>.id(point_74)</title>
	</circle>
	<circle style="fill: rgb(216, 216, 216);" cx="-8.724511777056644" cy="-1070.310052158949" r="0.9054">
		<title>.id(point_75)</title>
	</circle>
	<circle style="fill: rgb(216, 216, 216);" cx="23.00218139713943" cy="-1487.1189747841402" r="0.9054">
		<title>.id(point_76)</title>
	</circle>
	<circle style="fill: rgb(216, 216, 216);" cx="0.6599975923028982" cy="-1285.8093957475412" r="0.9054">
		<title>.id(point_77)</title>
	</circle>
	<circle style="fill: rgb(216, 216, 216);" cx="-0.540690365804594" cy="-1431.1320557637962" r="0.9054">
		<title>.id(point_78)</title>
	</circle>
	<circle style="fill: rgb(216, 216, 216);" cx="9.395596638923449" cy="-1385.7820462127595" r="0.9054">
		<title>.id(point_79)</title>
	</circle>
	<path d="M 8.745960920004407 -1393.2367076109026 C 9.027640456486623 -1393.710646222215, 9.309319932419559 -1394.1845847318393, 9.590999468900515 -1394.6585233433898 C 9.872679005381473 -1395.1324619549391, 10.154358541860347 -1395.6064005661972, 10.436038078342037 -1396.0803391777472 C 10.717717614823734 -1396.554277789297, 10.999397151301162 -1397.028216400555, 11.281076687783441 -1397.5021550121048" stroke="#01136e" fill="none">
		<title>.id(nerve_feature_01)</title>
	</path>
	<path d="M 27.72944530586744 -1491.970582534606 C 30.159886610390434 -1488.9250594217428, 34.92308267689745 -1490.9882688390278, 36.97879270891376 -1493.5795511609745 C 39.034502740930066 -1496.170833482922, 40.64283765907608 -1499.6432866295802, 45.10191541605596 -1501.4684309287995 C 49.560993173035826 -1503.2935752280196, 54.551217136113614 -1503.1881015429387, 59.21281228622012 -1503.508004244492" stroke="#01136e" fill="none">
		<title>.id(nerve_feature_02)</title>
	</path>
	<path d="M 11.229664976689417 -1388.6960780133202 C 11.108023963861614 -1389.4677015974123, 10.986428915648226 -1390.2390336070732, 10.86478790259422 -1391.010657192527 C 10.743146889540213 -1391.782280777981, 10.621505876214945 -1392.553904364962, 10.499864862918303 -1393.3255279520586 C 10.378223849621655 -1394.0971515391545, 10.256582836304077 -1394.8687751260848, 10.134941822990406 -1395.640398713187" stroke="#01136e" fill="none">
		<title>.id(nerve_feature_03)</title>
	</path>
	<path d="M 30.328762021816416 -1485.9824567196656 C 30.627328206392004 -1483.0715030544136, 30.93722466353824 -1480.0008000771966, 31.127722353817095 -1477.0685694963893 C 31.318220044095956 -1474.1363389155815, 31.423750406011763 -1471.2153542840067, 31.48214420522591 -1468.325292521673 C 31.540538004440087 -1465.4352307593394, 31.55138683246905 -1462.5734524825048, 31.53647477521725 -1459.7355261723546 C 31.521562717965455 -1456.8975998622052, 31.480548614483556 -1454.0822417967117, 31.425503830682004 -1451.2816959249062 C 31.37045904688045 -1448.4811500531002, 31.301166449538982 -1445.6950853049618, 31.224252400612095 -1442.9175809060089 C 31.1473383516852 -1440.1400765070562, 31.062679996268646 -1437.3710936614948, 30.973933671452542 -1434.606849367539 C 30.88518734663645 -1431.8426050735834, 30.792284728603025 -1429.0831246508255, 30.697291272207163 -1426.3261070667359 C 30.602297815811315 -1423.5690894826464, 30.50517404846083 -1420.8145648939876, 30.407173445484425 -1418.0610807935097 C 30.309172842508026 -1415.307596693032, 30.21026984124623 -1412.5551782329396, 30.111377513449767 -1409.8027483630271" stroke="#01136e" fill="none">
		<title>.id(nerve_feature_04)</title>
	</path>
	<path d="M 11.545723039061695 -1236.5222417676873 C 10.413614950534912 -1240.3633464274665, 9.275709149272533 -1244.2241220188835, 8.143600956906468 -1248.0652270312678 C 7.011492764540408 -1251.9063320436526, 5.8793843334401625 -1255.747437865004, 4.747276024137199 -1259.5885432743203 C 3.6151677148342336 -1263.429648683636, 2.4830593726035683 -1267.2707542046076, 1.35095105008789 -1271.1118596574288" stroke="#01136e" fill="none">
		<title>.id(nerve_feature_05)</title>
	</path>
	<path d="M 28.392365346976746 -1304.6450960905584 C 29.404203021881944 -1302.4152153329908, 30.415453070839625 -1300.1866295804264, 31.427291343358938 -1297.9567475057472 C 32.43912961587825 -1295.7268654310676, 33.45096915269529 -1293.4969805694748, 34.462808087143664 -1291.2670970360139 C 35.47464702159202 -1289.0372135025534, 36.48648609199448 -1286.8073296696234, 37.498325097582935 -1284.577445978629 C 38.510164103171405 -1282.3475622876344, 39.52200312343897 -1280.1176785661944, 40.53384213668309 -1277.887794858082 C 41.54568114992721 -1275.65791114997, 42.55752016475684 -1273.4280274399314, 43.56935917886416 -1271.198143730745 C 44.58119819297149 -1268.9682600215585, 45.59303720722174 -1266.7383763120592, 46.60487622137602 -1264.508492602678 C 47.616715235530314 -1262.2786088932967, 48.62855424972669 -1260.0487251846725, 49.64039326392358 -1257.818841474533 C 50.652232278120465 -1255.5889577643936, 51.66407129231012 -1253.3590740557827, 52.67591030647481 -1251.129190346378" stroke="#01136e" fill="none">
		<title>.id(nerve_feature_06)</title>
	</path>
	<path d="M 28.392365346976753 -1304.6450960905586 C 26.022328098828915 -1303.305638813082, 23.6637546417002 -1301.9726604450443, 21.29371707442746 -1300.633202988423 C 18.923679507154716 -1299.2937455318013, 16.553641224303053 -1297.9542876677094, 14.18360329910963 -1296.6148300088087 C 11.813565373916205 -1295.2753723499081, 9.443527356037126 -1293.935914636477, 7.073489392386879 -1292.596456954932" stroke="#01136e" fill="none">
		<title>.id(nerve_feature_07)</title>
	</path>
	<path d="M 21.827192350821704 -1108.5291287500536 C 20.34439783032644 -1105.5253791924097, 18.777063076326833 -1102.3503734792334, 17.294221359355795 -1099.346528314105 C 15.811379642384752 -1096.3426831489764, 14.328428541953732 -1093.338616400988, 12.8455339999878 -1090.334664227189 C 11.362639458021867 -1087.33071205339, 9.879729191630497 -1084.3267280243429, 8.396828481560332 -1081.322763354821" stroke="#01136e" fill="none">
		<title>.id(nerve_feature_08)</title>
	</path>
	<path d="M 46.34266593014693 -1501.924074997515 C 46.209467003820386 -1502.6121603285426, 45.0304155054845 -1502.359329617286, 43.10101072922034 -1501.1852744168937 C 41.17160595295616 -1500.0112192165002, 38.91333915711348 -1498.35629696802, 36.6515128013849 -1496.644516854548 C 34.38968644565632 -1494.9327367410763, 32.081686823617076 -1493.1230246400628, 29.781847549530085 -1491.3226582978964" stroke="#01136e" fill="none">
		<title>.id(nerve_feature_09)</title>
	</path>
	<path d="M 36.99083278965363 -1493.5947445211914 C 36.35174934040198 -1493.1205878145415, 35.711044908321874 -1492.6452293476914, 35.09620037912777 -1492.190362344123 C 34.481355849933664 -1491.735495340556, 33.89129431963404 -1491.3003505514146, 33.38758145999244 -1490.931720907928 C 32.88386860035083 -1490.5630912644413, 32.49102201038549 -1490.2795136070436, 32.10460312919948 -1490.0007355701014" stroke="#01136e" fill="none">
		<title>.id(nerve_feature_10)</title>
	</path>
	<path d="M 23.108778231193163 -1410.0733081579376 C 23.16521323288053 -1408.903745897332, 23.22209965358482 -1407.7248284031964, 23.278534803510315 -1406.5552630704149 C 23.334969953435802 -1405.385697737632, 23.391405307291652 -1404.2161281785586, 23.447840611903075 -1403.0465596404617 C 23.50427591651451 -1401.8769911023653, 23.560711230541745 -1400.70742236841, 23.617146541891433 -1399.5378536905591" stroke="#01136e" fill="none">
		<title>.id(nerve_feature_11)</title>
	</path>
	<path d="M 6.198668081365819 -1402.543663439788 C 6.943836307095471 -1402.0812021780155, 7.689004532871059 -1401.6187409160448, 8.434172758599633 -1401.1562796544583 C 9.179340984328208 -1400.6938183928728, 9.92450921005386 -1400.2313571310667, 10.669677435784122 -1399.7688958691638 C 11.414845661514383 -1399.306434607261, 12.16001388723803 -1398.8439733456394, 12.905182112968868 -1398.381512083867" stroke="#01136e" fill="none">
		<title>.id(nerve_feature_12)</title>
	</path>
	<path d="M 11.229664976689415 -1388.6960780133197 C 11.247012564714275 -1391.9611387718214, 11.264359183592088 -1395.226017124618, 11.28170677162932 -1398.4910778844544 C 11.299054359666552 -1401.75613864429, 11.31640194772474 -1405.021199410413, 11.33374953577461 -1408.2862601737104 C 11.35109712382448 -1411.5513209370092, 11.368444711873796 -1414.8163816995277, 11.38579229992526 -1418.0814424639766 C 11.403139887976725 -1421.3465032284244, 11.42048747602486 -1424.6115639915838, 11.437835064076502 -1427.8766247543551 C 11.455182652128142 -1431.141685517126, 11.472530240176166 -1434.4067462819683, 11.489877828227831 -1437.6718070447475" stroke="#01136e" fill="none">
		<title>.id(nerve_feature_13)</title>
	</path>
	<path d="M 29.144661188116956 -1489.15059166544 C 29.344088606741025 -1489.0172721808667, 29.54352020841433 -1488.8839498998495, 29.74294762703825 -1488.7506304152764 C 29.942375045662178 -1488.6173109307026, 30.14180246428489 -1488.4839914461063, 30.34122988290943 -1488.3506719615323 C 30.540657301533972 -1488.2173524769594, 30.74008472015816 -1488.0840329923974, 30.939512138781986 -1487.950713507789" stroke="#01136e" fill="none">
		<title>.id(nerve_feature_14)</title>
	</path>
	<path d="M 13.41469698134992 -1451.3720492672578 C 13.116812776383481 -1449.9598250283038, 12.820871886799123 -1448.5568137559624, 12.522985597324885 -1447.1445796351593 C 12.225099307850652 -1445.7323455143573, 11.927209748839804 -1444.3200958926047, 11.629321267564787 -1442.9078513806398 C 11.331432786289776 -1441.4956068686752, 11.033544139331763 -1440.0833615713568, 10.735655554213938 -1438.671116566727" stroke="#01136e" fill="none">
		<title>.id(nerve_feature_15)</title>
	</path>
	<path d="M 31.128837579129033 -1477.051388586676 C 29.417436689843765 -1473.8412250848976, 27.706035925203736 -1470.6310618173611, 25.994635035905702 -1467.4208983154283 C 24.283234146607665 -1464.2107348134953, 22.57183325733814 -1461.0005713126102, 20.860432368040843 -1457.790407810383 C 19.149031478743538 -1454.5802443081557, 17.43763058947023 -1451.3700808062752, 15.72622970017597 -1448.159917305338 C 14.01482881088171 -1444.9497538044009, 12.30342792160424 -1441.7395903012302, 10.592027032311247 -1438.529426800293" stroke="#01136e" fill="none">
		<title>.id(nerve_feature_16)</title>
	</path>
	<path d="M 8.942669648465985 -1392.875422646072 C 9.263870559537736 -1393.5673919717117, 9.585062610352244 -1394.259342209453, 9.906263521423808 -1394.9513115352577 C 10.227464432495374 -1395.6432808610614, 10.548665343565 -1396.3352501866261, 10.869866254638122 -1397.0272195122504 C 11.19106716571124 -1397.7191888378738, 11.512268076781465 -1398.4111581635777, 11.833468987853301 -1399.1031274892453" stroke="#01136e" fill="none">
		<title>.id(nerve_feature_17)</title>
	</path>
	<path d="M 11.229664976689417 -1388.69607801332 C 11.163353609803904 -1389.4537259499243, 11.097048936906125 -1390.2112974036752, 11.030737569878752 -1390.96894534168 C 10.964426202851378 -1391.7265932796847, 10.898114835656623 -1392.4842412200949, 10.831803468474451 -1393.2418891598668 C 10.76549210129228 -1393.9995370996392, 10.699180734094522 -1394.7571850400677, 10.6328693668997 -1395.5148329800013" stroke="#01136e" fill="none">
		<title>.id(nerve_feature_18)</title>
	</path>
	<path d="M 28.102604358979516 -1102.609945724173 C 29.223883707098626 -1098.8806986249958, 30.30181841447254 -1095.356904212337, 31.274800752474242 -1091.6410291879238 C 32.247783090475934 -1087.9251541635108, 33.17963879122677 -1084.0574063005354, 32.88452283760103 -1080.8298662846307 C 32.58940688397527 -1077.6023262687265, 30.849117218830344 -1075.832279595623, 29.291456666452696 -1074.078212670699" stroke="#01136e" fill="none">
		<title>.id(nerve_feature_19)</title>
	</path>
	<path d="M 18.98725201325569 -1293.9695027010152 C 17.108751762868447 -1293.1057667464745, 15.239861249393588 -1292.246449357093, 13.361357863019183 -1291.3827119599637 C 11.482854476644771 -1290.5189745628347, 9.604345381026448 -1289.6552345413322, 7.725838627239468 -1288.7914955964927 C 5.847331873452488 -1287.9277566516535, 3.9688246909586944 -1287.0640175096319, 2.090317709420715 -1286.20027845962" stroke="#01136e" fill="none">
		<title>.id(nerve_feature_20)</title>
	</path>
	<path d="M 29.28676246983459 -1310.321146371698 C 26.265968633420417 -1307.6417898850893, 23.230040257745923 -1304.949009501761, 20.2092431138602 -1302.2696500813422 C 17.188445969974495 -1299.590290660923, 14.167640988673439 -1296.910924289835, 11.14684009374648 -1294.231561542344 C 8.126039198819521 -1291.552198794853, 5.105237147699941 -1288.8728350220567, 2.0844358057967 -1286.193471878812" stroke="#01136e" fill="none">
		<title>.id(nerve_feature_21)</title>
	</path>
	<path d="M 9.583819031879447 -1398.8078117886068 C 8.460853020350651 -1400.0471167676858, 7.3282180306368385 -1401.297092428746, 6.205247984074229 -1402.5364018609814 C 5.082277937511616 -1403.775711293218, 3.959299859064929 -1405.0150295891365, 2.8363254138293597 -1406.2543438759715 C 1.713350968593794 -1407.4936581628072, 0.5903757458186648 -1408.7329733072058, -0.5325990705313647 -1409.9722880033792" stroke="#01136e" fill="none">
		<title>.id(nerve_feature_22)</title>
	</path>
	<path d="M 12.75649882159101 -1254.9218994347525 C 11.572454020156613 -1258.4938967381183, 10.38820151797028 -1262.0665206280855, 9.204156716280346 -1265.6385179339752 C 8.020111914590416 -1269.2105152398647, 6.836067112330943 -1272.7825125448387, 5.652022310361221 -1276.354509850842 C 4.4679775083915 -1279.9265071568454, 3.28393270634053 -1283.4985044620946, 2.099887904342979 -1287.070501768007" stroke="#01136e" fill="none">
		<title>.id(nerve_feature_23)</title>
	</path>
	<path d="M 27.133166395298723 -1422.1456022309558 C 26.159606261139295 -1418.5659521230743, 25.22552910862822 -1414.8952967110622, 23.765646318214852 -1411.4807836988361 C 22.3057635278015 -1408.06627068661, 20.281396168262674 -1405.5425996256256, 18.38236436890262 -1403.461436798689 C 16.483332569542572 -1401.3802739717523, 14.5543797729839 -1399.600519110349, 13.041828695878364 -1398.7510069936168" stroke="#01136e" fill="none">
		<title>.id(nerve_feature_24)</title>
	</path>
	<path d="M 11.229664976689419 -1388.69607801332 C 10.952914320444119 -1389.2005971715869, 10.676223820051952 -1389.7050066306058, 10.399673606379576 -1390.2096388188668 C 10.12312339270719 -1390.7142710071282, 9.846773631935461 -1391.2190162419618, 9.570825040106811 -1391.7239871221611 C 9.294876448278163 -1392.2289580023603, 9.019438935061501 -1392.7342161311205, 8.744349061295676 -1393.2396692480268" stroke="#01136e" fill="none">
		<title>.id(nerve_feature_25)</title>
	</path>
	<path d="M 27.563288693440068 -1423.2865294289297 C 25.655364232904198 -1420.1573518943308, 23.75107667170733 -1417.0279852434087, 21.767310397619205 -1413.9439733521558 C 19.783544123531073 -1410.8599614609032, 17.726268849938833 -1407.8131561866849, 15.435023561862206 -1404.9378145205155 C 13.143778273785585 -1402.0624728543469, 10.567520070794552 -1399.3806151720737, 7.5485738652207885 -1397.2220604057889" stroke="#01136e" fill="none">
		<title>.id(nerve_feature_26)</title>
	</path>
	<path d="M 22.42575022088169 -1284.2719150990947 C 21.64372754037725 -1286.9792996578333, 20.985372926638604 -1289.6175805542557, 19.573318216845532 -1292.7573552135682 C 18.161263507052453 -1295.8971298728804, 15.694886875663826 -1299.3921389475502, 13.496642063425764 -1302.8312774306248 C 11.298397251187712 -1306.2704159136997, 9.125472245954628 -1309.9670986712247, 8.61162464536032 -1314.1061793210783 C 8.097777044766024 -1318.2452599709313, 8.361991755471147 -1322.4074682362752, 8.5596723293081 -1326.5531902956225 C 8.757352903145051 -1330.698912354969, 9.020069379925328 -1334.8436513047086, 9.277108652326548 -1338.9868567463268 C 9.53414792472777 -1343.1300621879452, 9.796707480255165 -1347.2733738960455, 10.05776150908319 -1351.416473862319 C 10.318815537911217 -1355.5595738285926, 10.581393755582035 -1359.7029289417392, 10.83161455653712 -1363.8466552483503 C 11.081835357492205 -1367.990381554961, 11.344671293805185 -1372.1356724688558, 11.459798218178541 -1376.2867036519988 C 11.574925142551894 -1380.437734835142, 11.483822791536861 -1384.5900214081828, 11.22816888805228 -1388.7202789932862" stroke="#01136e" fill="none">
		<title>.id(nerve_feature_27)</title>
	</path>
	<path d="M 32.099208595231914 -1481.0923952351013 C 32.15514498205483 -1477.8373938261082, 32.21762845350523 -1474.1722108900278, 32.255811883627146 -1470.915188274683 C 32.29399531374906 -1467.6581656593385, 32.315269744117714 -1464.3989545151264, 32.2974247954973 -1461.136512837823 C 32.2795798468769 -1457.874071160519, 32.22315396936627 -1454.6079028967365, 32.093749658505466 -1451.3379337833428 C 31.964345347644684 -1448.0679646699496, 31.762716304874747 -1444.7932672775835, 31.432240768151566 -1441.5197093969775 C 31.10176523142837 -1438.2461515163723, 30.643339703177183 -1434.971810024116, 29.9638063207661 -1431.7223993154812 C 29.284272938355013 -1428.4729886068478, 28.344844091347095 -1425.2574791657155, 27.12602809249242 -1422.1272601280941" stroke="#01136e" fill="none">
		<title>.id(nerve_feature_28)</title>
	</path>
	<path d="M 13.414696981349918 -1451.3720492672578 C 11.888552588310258 -1449.9797807945233, 10.372942642517803 -1448.5971226698978, 8.84679039038551 -1447.2048470278487 C 7.320638138253218 -1445.8125713857987, 5.7944716459252765 -1444.4202827521735, 4.268310958881227 -1443.0279994147722 C 2.7421502718371746 -1441.6357160773707, 1.2159885310035556 -1440.243431778795, -0.31017271915688016 -1438.851147927675" stroke="#01136e" fill="none">
		<title>.id(nerve_feature_29)</title>
	</path>
	<path d="M 27.217690080710746 -1492.7051869279194 C 25.877389215702017 -1492.0723788396701, 24.11804776840635 -1491.2417254189775, 22.77768825338675 -1490.6088896409894 C 21.437328738367153 -1489.976053863001, 20.096839215166145 -1489.3431567002974, 18.756417159445572 -1488.7102913938907 C 17.415995103724992 -1488.0774260874846, 16.075554146667184 -1487.4445518560372, 14.735124723480904 -1486.811683070394" stroke="#01136e" fill="none">
		<title>.id(nerve_feature_30)</title>
	</path>
	<path d="M 7.566257938156698 -1397.2347141738917 C 6.456118825339308 -1399.8392490560016, 5.445394438709612 -1402.4300383188752, 4.508546880526102 -1405.0055067570129 C 3.5716993223425897 -1407.580975195151, 2.7057951949669414 -1410.1420168313532, 1.8756099428535182 -1412.6943115518206 C 1.045424690740095 -1415.2466062722888, 0.2508812884514102 -1417.7904394849847, -0.5436316032499475 -1420.334121953317" stroke="#01136e" fill="none">
		<title>.id(nerve_feature_31)</title>
	</path>
	<path d="M 11.494493404945366 -1377.9163200062399 C 11.423244018662372 -1378.1946172927455, 11.3525440253989 -1378.4707686717566, 11.28129463579688 -1378.7490659712355 C 11.21004524619486 -1379.027363270715, 11.138795853195642 -1379.305660583394, 11.06754645918219 -1379.5839579001472 C 10.996297065168736 -1379.8622552169002, 10.925047670037259 -1380.1405525378595, 10.853798274939814 -1380.4188498588485" stroke="#01136e" fill="none">
		<title>.id(nerve_feature_32)</title>
	</path>
	<path d="M 30.328762021816413 -1485.9824567196656 C 29.093771924108278 -1483.2395615375146, 27.822106796180787 -1480.415029136528, 26.586599896171553 -1477.6720917009516 C 25.351092996162325 -1474.929154265376, 24.11569007096049 -1472.1858076685016, 22.874685708464895 -1469.4429331469855 C 21.633681345969276 -1466.7000586254703, 20.394353690259855 -1463.9547358313737, 19.09810383943075 -1461.2131523300588 C 17.801853988601643 -1458.4715688287445, 16.519588886027957 -1455.7043219491425, 14.690466687486857 -1453.022184553889 C 12.861344488945761 -1450.3400471586353, 10.177893618651206 -1448.1395463429296, 7.531416125274804 -1446.14951956809 C 4.8849386318983985 -1444.1594927932506, 2.1676432512824935 -1442.2730194925211, -0.5302498495162236 -1440.3783733851974" stroke="#01136e" fill="none">
		<title>.id(nerve_feature_33)</title>
	</path>
	<path d="M 8.745960920004405 -1393.2367076109022 C 9.150546539011176 -1394.7854484277536, 9.554960857043962 -1396.334219536008, 9.95925921567426 -1397.883011524701 C 10.363557574304556 -1399.431803513394, 10.767740706654884 -1400.9806160137111, 11.17186622367949 -1402.5294387610247 C 11.575991740704096 -1404.0782615083372, 11.98005964273247 -1405.6270945049903, 12.384127544590193 -1407.175927500302" stroke="#01136e" fill="none">
		<title>.id(nerve_feature_34)</title>
	</path>
	<path d="M 22.311423994542885 -1283.9811994975075 C 24.012186884635586 -1285.3568206735233, 25.70612556220203 -1286.7269222491043, 27.406888794700972 -1288.102543702769 C 29.107652027199922 -1289.4781651564338, 30.808415993365372 -1290.8537872026354, 32.50917960638327 -1292.229408963526 C 34.20994321940118 -1293.6050307244168, 35.91070691364396 -1294.980652551167, 37.61147056877223 -1296.35627434618 C 39.312234223900504 -1297.7318961411931, 41.01299788804386 -1299.1075179430281, 42.71376154782502 -1300.4831397423125 C 44.41452520760619 -1301.858761541596, 46.11528886842466 -1303.2343833411871, 47.81605252872029 -1304.6100051399328 C 49.516816189015906 -1305.9856269386787, 51.21757984946875 -1307.3612487381197, 52.91834350981939 -1308.736870537718 C 54.619107170170025 -1310.1124923373163, 56.31987083057293 -1311.488114136366, 58.02063449094115 -1312.863735935523 C 59.72139815130936 -1314.23935773468, 61.42216181170576 -1315.6149795341719, 63.12292547206555 -1316.9906013333298" stroke="#01136e" fill="none">
		<title>.id(nerve_feature_35)</title>
	</path>
	<path d="M 22.311423994542885 -1283.9811994975075 C 22.328476466729462 -1283.8105741919323, 22.345473906734615 -1283.6404995329203, 22.36252638249098 -1283.469874192699 C 22.379578858247346 -1283.299248852478, 22.396631341901767 -1283.1286234322774, 22.413683821653603 -1282.9579980512108 C 22.430736301405453 -1282.7873726701444, 22.447788782103196 -1282.616747280445, 22.464841262329212 -1282.4461218945867 C 22.481893742555222 -1282.2754965087288, 22.498946222902177 -1282.1048711225897, 22.515998703184636 -1281.934245736161 C 22.533051183467098 -1281.7636203497325, 22.550103663772173 -1281.5929949639717, 22.56715614406143 -1281.422369577521 C 22.584208624350683 -1281.2517441910704, 22.6012611046501 -1281.0811188053578, 22.618313584940775 -1280.910493418854 C 22.63536606523144 -1280.73986803235, 22.652418545529653 -1280.569242645783, 22.669471025820418 -1280.398617260186 C 22.686523506111186 -1280.2279918745887, 22.703575986409938 -1280.0573664879773, 22.720628466700095 -1279.8867411015178 C 22.737680946990256 -1279.7161157150588, 22.754733427289025 -1279.5454903293537, 22.771785907579815 -1279.374864942849" stroke="#01136e" fill="none">
		<title>.id(nerve_feature_36)</title>
	</path>
	<path d="M 16.36546673984561 -1269.9428072635887 C 17.557819064521258 -1271.97849767763, 18.742737408396113 -1274.0014961344461, 19.935089965190766 -1276.037186944749 C 21.12744252198542 -1278.0728777550519, 22.31979558317743 -1280.108569426049, 23.51214839892568 -1282.1442606781468 C 24.704501214673943 -1284.179951930245, 25.89685408797234 -1286.2156432812985, 27.089206933261202 -1288.2513345832979 C 28.28155977855008 -1290.2870258852975, 29.47391263039645 -1292.3227172002896, 30.666265479072777 -1294.3584085080422 C 31.85861832774911 -1296.3940998157948, 33.05097117717778 -1298.429791125261, 34.24332402619274 -1300.465482435021 C 35.435676875207704 -1302.5011737447808, 36.6280297243811 -1304.5368650526455, 37.820382573460556 -1306.5725563622518" stroke="#01136e" fill="none">
		<title>.id(nerve_feature_37)</title>
	</path>
	<path d="M 16.36546673984561 -1269.9428072635887 C 17.751326794619935 -1267.4807341124545, 19.138525860306757 -1265.0162821197803, 20.524386755811104 -1262.554207475445 C 21.910247651315444 -1260.09213283111, 23.29611041448757 -1257.6300548692866, 24.68197225169622 -1255.1679785517479 C 26.067834088904867 -1252.7059022342094, 27.45369615085239 -1250.2438255177392, 28.83955810137984 -1247.7817489995039 C 30.225420051907285 -1245.319672481269, 31.611282029499936 -1242.8575959143634, 32.99714399364271 -1240.3955193716151 C 34.383005957785464 -1237.9334428288666, 35.76886792524529 -1235.4713662808506, 37.15472989102948 -1233.0092897346221 C 38.54059185681367 -1230.5472131883932, 39.92645382305127 -1228.085136642712, 41.31231578903298 -1225.6230600965341 C 42.698177755014676 -1223.1609835503557, 44.08403972110521 -1220.6989070047352, 45.46990168711074 -1218.2368304583138 C 46.85576365311628 -1215.7747539118927, 48.24162561917762 -1213.3126773658582, 49.62748758519734 -1210.8506008200782 C 51.01334955121707 -1208.3885242742977, 52.39921151725129 -1205.9264477280678, 53.78507348328521 -1203.4643711818417" stroke="#01136e" fill="none">
		<title>.id(nerve_feature_38)</title>
	</path>
	<path d="M 29.300585661648043 -1074.088490600201 C 27.826254972405977 -1072.6881015209945, 25.947946720698 -1071.5982035031911, 23.65667890778652 -1070.9609545124015 C 21.365411094875043 -1070.3237055216123, 18.812761802417413 -1070.0091417657375, 16.177488682343554 -1069.8361912770927 C 13.542215562269691 -1069.663240788448, 10.814950034114096 -1069.6357322251151, 8.05738917336396 -1069.6683072772803 C 5.299828312613824 -1069.7008823294452, 2.508066915916304 -1069.7959715903548, -0.2942281705058645 -1069.9129781316226 C -3.096523256928034 -1070.029984672891, -5.9107105292989655 -1070.1702708629625, -8.724511777056644 -1070.310052158949" stroke="#01136e" fill="none">
		<title>.id(nerve_feature_39)</title>
	</path>
	<path d="M 27.217690080710746 -1492.7051869279194 C 26.767711121353873 -1492.108894020804, 26.152827371820432 -1491.2940763265765, 25.702790415539265 -1490.6977065643603 C 25.252753459258116 -1490.1013368021438, 24.802594513136807 -1489.504805384829, 24.35249691266089 -1488.908355259358 C 23.902399312184976 -1488.3119051338867, 23.452285612802637 -1487.7154336746928, 23.00218139713943 -1487.1189747841402" stroke="#01136e" fill="none">
		<title>.id(nerve_feature_40)</title>
	</path>
	<path d="M 29.568995327607738 -1322.972754450469 C 27.162636663736446 -1319.8793102920745, 24.723598546627045 -1316.7438557436583, 22.317239203428496 -1313.6504107103162 C 19.91087986022995 -1310.556965676974, 17.504518969171546 -1307.4635186549256, 15.098158861923265 -1304.3700726407592 C 12.691798754674975 -1301.2766266265926, 10.285438449247588 -1298.183180356755, 7.879078244477009 -1295.089734216473 C 5.472718039706431 -1291.9962880761911, 3.066357807973935 -1288.90284190173, 0.6599975923028982 -1285.8093957475412" stroke="#01136e" fill="none">
		<title>.id(nerve_feature_41)</title>
	</path>
	<path d="M 8.368894163694439 -1397.829480120376 C 7.379500138327493 -1401.5276738192174, 6.3850715867839245 -1405.2446857578134, 5.395677297582172 -1408.9428804434633 C 4.406283008380418 -1412.6410751291128, 3.4168881047365387 -1416.3392721110438, 2.427493517525097 -1420.0374679106205 C 1.4380989303136569 -1423.7356637101982, 0.44870425586567986 -1427.433859836131, -0.540690365804594 -1431.1320557637962" stroke="#01136e" fill="none">
		<title>.id(nerve_feature_42)</title>
	</path>
	<path d="M 12.75649882159101 -1254.9218994347525 C 11.532088924552673 -1258.4120644715465, 10.307459244047596 -1261.9028559993465, 9.083049346747535 -1265.3930210377102 C 7.8586394494474785 -1268.8831860760738, 6.634229551565661 -1272.3733511162368, 5.40981965397929 -1275.863516154694 C 4.18540975639292 -1279.3536811931513, 2.9609998587282345 -1282.8438462334148, 1.7365899611095883 -1286.334011271967" stroke="#01136e" fill="none">
		<title>.id(nerve_feature_43)</title>
	</path>
	<path d="M 11.238562312167401 -1388.5508616035397 C 11.033868755789532 -1388.243336250473, 10.828451715885192 -1387.9347239579688, 10.62375814612837 -1387.6271985847725 C 10.419064576371548 -1387.3196732115753, 10.214370992746069 -1387.01214781765, 10.009677406099014 -1386.704622419157 C 9.804983819451953 -1386.3970970206638, 9.600290229097412 -1386.0895716164962, 9.395596638923449 -1385.7820462127595" stroke="#01136e" fill="none">
		<title>.id(nerve_feature_44)</title>
	</path>
	<path d="M 11.01529428418843 -1499.081708231075 C 14.546819358756743 -1497.2676813922867, 18.185462079808897 -1497.0379511734961, 20.90680453490343 -1496.8194738549546 C 23.628146989997962 -1496.6009965364135, 27.347359924366064 -1493.9273706743963, 29.13420188098356 -1489.1783910982751 C 30.921043837601054 -1484.4294115221537, 31.792260876579146 -1482.0084922725403, 32.893998470750375 -1478.806227297953 C 33.99573606492159 -1475.6039623233657, 34.73714521437138 -1472.5118932743508, 35.21558618690166 -1469.318541750134 C 35.69402715943194 -1466.125190225919, 35.97891013714147 -1462.8668479273044, 36.14758577321373 -1459.5625756205027 C 36.316261409285985 -1456.2583033137, 36.37828719131529 -1452.9430203613176, 36.22509941899489 -1449.6189032236155 C 36.07191164667447 -1446.294786085914, 35.6326764220555 -1442.9943274229393, 35.244213896062575 -1439.6347388861395 C 34.85575137006963 -1436.2751503493391, 34.37336409674432 -1432.8746360972764, 33.559663474625935 -1429.5082233022258 C 32.74596285250756 -1426.1418105071757, 31.808972569633088 -1422.7783888516774, 30.93820663359286 -1419.40206020693 C 30.06744069755263 -1416.0257315621825, 29.215663653953353 -1412.643916914875, 28.38082369567461 -1409.2577154489054 C 27.545983737395883 -1405.871513982935, 26.69919296704307 -1402.4786157149194, 25.856566248999357 -1399.102989039671 C 25.01393953095563 -1395.7273623644228, 24.205732934557165 -1392.3570582852133, 23.56298253119173 -1388.9855513749612 C 22.920232127826313 -1385.6140444647103, 22.452372096537204 -1382.2464905109348, 22.261323980856794 -1378.8903450638848 C 22.070275865176395 -1375.5341996168352, 22.12996835071588 -1372.1908122129203, 22.37934509064229 -1368.8855243655996 C 22.628721830568697 -1365.5802365182797, 23.067318133609344 -1362.3126648540106, 23.632792343561984 -1359.0830979270652 C 24.19826655351462 -1355.8535310001191, 24.90387541787338 -1352.6672488788975, 25.63710492924792 -1349.482500932286 C 26.370334440622475 -1346.2977529856746, 27.11809110837088 -1343.1068819415598, 27.712998653275545 -1339.8552856198978 C 28.307906198180206 -1336.603689298236, 28.674639503161224 -1333.2876023117751, 29.001885575720273 -1330.042339412912 C 29.32913164827932 -1326.797076514049, 29.601092689063528 -1323.5532858584418, 29.6839777652549 -1319.948624085448 C 29.76686284144628 -1316.3439623124546, 29.624181664797483 -1312.663138464197, 29.1225179926937 -1309.016483752451 C 28.620854320589935 -1305.3698290407049, 27.831144547389304 -1301.7240255422118, 26.92419950448499 -1298.2109059468617 C 26.017254461580677 -1294.6977863515121, 24.974256936074617 -1291.3281343319168, 23.914732501687286 -1288.293894144959 C 22.855208067299962 -1285.2596539580013, 21.764626259011006 -1282.5394674480333, 20.666310552554307 -1280.0295890969924 C 19.567994846097612 -1277.5197107459508, 18.518774974113636 -1275.3000508562452, 17.539504626129023 -1272.9508061488261 C 16.56023427814442 -1270.6015614414066, 15.646983147910168 -1268.072416955041, 14.842966350820648 -1265.193317409886 C 14.03894955373113 -1262.314217864731, 13.351492072592613 -1259.1216078039024, 12.86427304607366 -1255.706557127604 C 12.377054019554706 -1252.2915064513054, 12.097754271011953 -1248.6287046373027, 11.899205395040855 -1244.824989204421 C 11.70065651906975 -1241.0212737715392, 11.574729206629586 -1237.1090756565832, 11.41698606407007 -1233.2077063017769 C 11.259242921510554 -1229.306336946971, 11.088405901416465 -1225.374768480121, 10.913218354251253 -1221.5501765185222 C 10.738030807086036 -1217.725584556923, 10.554203232100392 -1214.014719159442, 10.404811120739087 -1210.3871669455505 C 10.255419009377787 -1206.759614731658, 10.142552604844779 -1203.2195263396266, 10.11086106580369 -1199.7714237174096 C 10.079169526762602 -1196.3233210951933, 10.112337444234639 -1192.9299761000448, 9.919239243161847 -1189.445878105392 C 9.726141042089054 -1185.9617801107393, 9.24332286509724 -1182.409926675335, 8.53490790823545 -1178.7781100482803 C 7.826492951373663 -1175.1462934212252, 6.926268392643876 -1171.4758985278547, 6.032599397398546 -1167.8266596822134 C 5.138930402153217 -1164.1774208365714, 4.252595543863729 -1160.5115464959636, 3.61554807996499 -1156.8990831156907 C 2.9785006160662517 -1153.286619735418, 2.5990794830937487 -1149.7207786698111, 2.6221844793347096 -1146.3599640649459 C 2.6452894755756713 -1142.999149460081, 3.0721295855339306 -1139.9688556998321, 4.057121482764368 -1136.376994358623 C 5.042113379994805 -1132.785133017414, 6.433019952865571 -1128.9996755047594, 8.448942451507593 -1125.250493975642 C 10.464864950149613 -1121.5013124465247, 13.182194422027644 -1117.8186220580399, 15.947795765571886 -1114.579154966626 C 18.713397109116123 -1111.3396878752121, 21.675525145272594 -1108.5926963680054, 24.67636836416856 -1105.984448256711 C 27.677211583064523 -1103.3762001454163, 30.65997316909635 -1099.7267809808247, 33.10506026155289 -1096.767318796406 C 35.55014735400943 -1093.8078566119875, 37.526750130299604 -1091.8699626706843, 40.16464810112641 -1089.662164215331 C 42.802546071953216 -1087.4543657599775, 45.743325206501495 -1085.2346716713728, 48.179593315563075 -1083.146528573149 C 50.61586142462467 -1081.0583854749254, 52.677999139855345 -1079.063374673896, 54.65301401744222 -1077.1374799076104" stroke="#01136e" fill="none">
		<title>.id(nerve_feature_48)</title>
	</path>
	<circle cx="33.29544317836564" cy="-1096.4833507785136" r="1" fill="none">
		<title>.id(marker_227)</title>
	</circle>
	<circle cx="3.372240264444654" cy="-1139.2308699916905" r="1" fill="none">
		<title>.id(marker_228)</title>
	</circle>
	<circle cx="22.228768467104825" cy="-1283.76082600887" r="1" fill="none">
		<title>.id(marker_229)</title>
	</circle>
	<circle cx="29.54755419279007" cy="-1322.9638852456799" r="1" fill="none">
		<title>.id(marker_230)</title>
	</circle>
	<circle cx="28.572135434939632" cy="-1333.7498556906507" r="1" fill="none">
		<title>.id(marker_231)</title>
	</circle>
	<circle cx="27.97261298222726" cy="-1407.6248391697948" r="1" fill="none">
		<title>.id(marker_232)</title>
	</circle>
	<circle cx="35.72239077105642" cy="-1443.815217592464" r="1" fill="none">
		<title>.id(marker_233)</title>
	</circle>
	<circle cx="35.21284092238886" cy="-1439.6221937809235" r="1" fill="none">
		<title>.id(marker_234)</title>
	</circle>
	<circle cx="36.20706577445275" cy="-1449.0215439693407" r="1" fill="none">
		<title>.id(marker_235)</title>
	</circle>
	<circle cx="35.69778317967358" cy="-1464.819441320075" r="1" fill="none">
		<title>.id(marker_236)</title>
	</circle>
	<circle cx="29.07514597588993" cy="-1489.5589070756573" r="1" fill="none">
		<title>.id(marker_237)</title>
	</circle>
	<circle cx="22.806135433972916" cy="-1496.5895195446326" r="1" fill="none">
		<title>.id(marker_238)</title>
	</circle>
</svg>
