<?xml version="1.0" ?>
<svg xmlns="http://www.w3.org/2000/svg" width="1000" height="1000" viewBox="-101 -235 231 382">
	<path d="M -28.02876379623011 -33.50474318107915 C -28.271248669243604 -31.84131411531247, -28.511089853686272 -30.195667562759276, -28.762301751394553 -28.562082628797835 C -29.01351364910285 -26.9284976948364, -29.274836964049157 -25.331866300569395, -29.547984136808626 -23.7931176133826 C -29.8211313095681 -22.25436892619582, -30.10323815300423 -20.76301268916374, -30.385190086267446 -19.272464944172206" stroke="#01136e" fill="none">
		<title>.id(group_1_name)</title>
	</path>
	<path d="M 75.63615810894304 135.62642492680257 C 76.38016469630057 131.91132502500324, 77.11976399380436 127.81519877455423, 78.72136828286263 124.4025215288556 C 80.32297257192093 120.98984428315698, 82.59484392333287 118.16101771092808, 85.65437987206877 115.95675239096282 C 88.71391582080467 113.75248707099753, 92.19290180468134 112.05226218187866, 95.72078885461812 110.65335848101799 M 95.72078885461809 110.653358481018 C 99.24867590455486 109.25445478015732, 102.94941184997552 108.03606042846927, 106.032968266143 106.53978448208957 C 109.11652468231048 105.04350853570992, 111.61409224402207 103.4618894593463, 114.15568116345707 101.90305076060177" stroke="#01136e" fill="none">
		<title>.id(group_6_name)</title>
	</path>
	<path d="M 83.83832522669822 117.42018398786794 C 84.6647165750749 114.58942802501429, 85.48185703913555 111.85278923821879, 86.55607214422186 109.16066491510878 C 87.63028724930815 106.46854059199866, 89.03465034283765 104.02036383319027, 90.76757628185536 101.97341491764197 M 90.76757628185536 101.973414917642 C 92.50050222087306 99.92646600209375, 94.4313498834006 98.14814372859065, 96.34943751501007 96.36196208137441" stroke="#01136e" fill="none">
		<title>.id(group_7_name)</title>
	</path>
	<path d="M 93.92515307252391 132.67461190916487 C 94.9445469840313 130.4984773954616, 95.94477082998345 128.34573026459427, 97.1526166642115 126.31209761605234 C 98.36046249843952 124.27846496751052, 99.83327607587988 122.47959413597614, 101.51669946751352 120.98967138753582 C 103.20012285914713 119.49974863909546, 105.02035673729547 118.23393824580555, 106.83231709978539 116.96545234075789" stroke="#01136e" fill="none">
		<title>.id(group_8_name)</title>
	</path>
	<path d="M -30.383538022453592 -19.281198631965044 C -31.586334755453315 -18.54660039040353, -32.789422746118355 -17.812099185367167, -33.99273708680379 -17.07764913152764 C -35.19605142748923 -16.343199077688116, -36.39957382375016 -15.608808735504677, -37.603200149005765 -14.874448309426683 C -38.80682647426138 -14.140087883348684, -40.0105567433493 -13.405757364319005, -41.21428700476726 -12.671426849968846" stroke="#01136e" fill="none">
		<title>.id(group_9_name)</title>
	</path>
	<path d="M -30.383538022453592 -19.281198631965047 C -30.07372000831828 -17.2887197955365, -29.763657033455917 -15.296191350376734, -29.453452615902282 -13.303784790827482 C -29.14324819834866 -11.311378231278226, -28.832888885237967 -9.319000899264829, -28.52245214766976 -7.326638330628581 C -28.21201541010155 -5.3342757619923376, -27.901501244247513 -3.3419279321501687, -27.590987080375996 -1.3495801150213973" stroke="#01136e" fill="none">
		<title>.id(group_10_name)</title>
	</path>
	<path d="M -77.0716894068494 -225.959822674308 C -84.16927818575977 -222.77713673778345, -88.54613249655053 -222.64837861886807, -89.84564398708034 -217.8427418693477 C -91.14515547761019 -213.03710511982732, -91.14565308465056 -209.47829589277273, -91.46849156276848 -205.8651235676836 C -91.79133004088636 -202.2519512425945, -91.47008268283916 -198.8286520888961, -91.02275274275878 -195.3117498866306 C -90.57542280267847 -191.79484768436495, -89.99662784806642 -188.3941061477067, -89.32682661554884 -185.12767968516107 C -88.6570253830313 -181.8612532226155, -87.85519308368447 -178.64765648535507, -86.93116355648534 -175.4596415557849 C -86.00713402928625 -172.27162662621475, -85.00386291709682 -169.14099468016624, -83.79351090267399 -166.1091669398557 M -83.793510902674 -166.1091669398557 C -82.58315888825118 -163.07733919954512, -81.10553887281313 -160.20193806865734, -79.65107898475831 -157.2361053054944 C -78.19661909670351 -154.27027254233147, -76.76078143597951 -151.26644068471614, -75.23782270270164 -148.33627435763484 C -73.71486396942376 -145.4061080305535, -72.12438414712406 -142.53157671903838, -70.46296682950874 -139.74748720238384 C -68.80154951189341 -136.96339768572926, -67.08119866178569 -134.29561528966832, -65.58331208143646 -131.4314331551133 C -64.08542550108723 -128.56725102055827, -62.62182873211198 -125.5960969886869, -61.288846041108265 -122.64080534629308 C -59.955863350104536 -119.68551370389932, -58.73438620930946 -116.70730342958504, -57.53998896193739 -113.6486283861665 C -56.345591714565316 -110.58995334274796, -55.157696386054475 -107.4554518838178, -54.02152057756886 -104.25161318809101 C -52.88534476908324 -101.0477744923642, -51.85403863874182 -97.78859138100343, -50.85103989933543 -94.51959287120049 C -49.848041159929025 -91.25059436139748, -48.85190707087486 -87.97423068374128, -47.790556194144244 -84.72268383094413 C -46.729205317413616 -81.47113697814697, -45.59910162149012 -78.23206413234236, -44.40366147950791 -75.207431430421 C -43.208221337525686 -72.18279872849963, -41.980738015488505 -69.48840469741647, -40.68624370388174 -67.02025044791472 C -39.391749392274974 -64.55209619841297, -37.65483378700228 -61.82160876157002, -36.09729226989029 -58.92123653060453 C -34.539750752778296 -56.020864299639015, -33.259711386397726 -52.54405844323307, -32.323626773125135 -49.483950155579734 C -31.387542159852533 -46.42384186792642, -30.581437245586446 -43.206120151527394, -29.755597852343428 -39.96382985806966 C -28.929758459100412 -36.72153956461192, -28.053363064325115 -33.445305039172545, -27.05765816604902 -30.224039387597063 C -26.061953267772925 -27.002773736021577, -24.991334743575976 -23.802836763195607, -24.0703623695827 -20.800004685415217 C -23.14938999558941 -17.79717260763483, -22.332872361520405 -15.015636255016956, -21.325733062403792 -12.106132243952942 C -20.31859376328719 -9.196628232888925, -19.209859235275932 -6.253848491769934, -18.029912614347275 -3.2674115550829153 C -16.84996599341861 -0.280974618395899, -15.599458037306132 2.7470288450007128, -14.309555356079947 5.820736583157086 C -13.01965267485377 8.89444432131346, -11.690102073628664 12.014349906092727, -10.35303028243346 15.181069044240642 C -9.015958491238257 18.347788182388555, -7.674382600067971 21.553520182491436, -6.353603020597957 24.8166593620286 C -5.032823441127941 28.07979854156575, -3.7341948507655927 31.398043447464865, -2.499265109596082 34.7552120422763 C -1.264335368426569 38.11238063708773, -0.09250332858290933 41.510577116670845, 0.9673079468948764 44.9122583774226 C 2.0271192223726633 48.31393963817436, 2.95967524711413 51.70504060346986, 3.7619710224220335 55.058876273525584 C 4.564266797729936 58.41271194358133, 5.249521187578816 61.71727788674789, 5.876341069933675 64.88577326060542 C 6.503160952288534 68.05426863446294, 7.042275084638505 71.06326997152883, 7.662635426861154 73.92257517694121 C 8.28299576908381 76.7818803823536, 9.035264961149847 79.52204790558338, 10.24974881171379 82.18938411136874 C 11.464232662277732 84.85672031715411, 13.185922986701023 87.3875906933788, 15.403044832043381 89.92889664320145 C 17.620166677385733 92.4702025930241, 19.935547516370775 94.67122108037493, 22.837625365699303 97.65348580365857 C 25.739703215027824 100.63575052694216, 28.822596041145683 104.30892016033755, 31.428138840309252 107.80812371281071 C 34.03368163947283 111.30732726528386, 36.499004561913694 114.81397826511532, 39.23620017080673 117.90933847778282 C 41.973395779699786 121.00469869045028, 45.074329239446264 123.70470138698244, 48.36148271662547 125.8416915276213 C 51.64863619380472 127.97868166826015, 55.11998466190023 129.48825911557472, 58.48701961160311 130.76778355638442 C 61.85405456130598 132.04730799719408, 65.0424280870823 133.29778903455815, 68.06261085156598 134.17965650104506 C 71.08279361604966 135.06152396753203, 73.6561882842646 135.58479156062342, 78.03315835323262 135.7809301272298 C 82.41012842220066 135.97706869383617, 86.6934971870501 134.89068567715745, 91.33874830750341 133.52077625563368 C 95.98399942795669 132.15086683410993, 100.62584539610803 129.83289703934258, 105.4241142480789 128.80566973849747 C 110.22238310004977 127.77844243765239, 115.11926768067583 127.66616565581792, 119.63529197846073 128.47840135306438" stroke="#01136e" fill="none">
		<title>.id(group_11_name)</title>
	</path>
</svg>
